<?xml version="1.0" encoding="UTF-8"?><svg xmlns="http://www.w3.org/2000/svg" width="550" height="250" viewBox="0 0 550 250"><defs><style>.m{fill:none;}.n{fill:#e6e6e6;}.o,.p{fill:#fff;}.q{fill:#940925;}.r{fill:#9cb9db;}.s{fill:#9f0079;}.t{fill:#ad0a2b;}.u{fill:#afd0f5;}.v{fill:#c60c30;}.w{fill:#850066;}.p{opacity:.7;}</style></defs><g id="a"/><g id="b"/><g id="c"><g id="d"><path class="m" d="M464.45,80.44l2.5-4.58h-.05l-2.51,4.58h.06Z"/><path class="m" d="M450.11,87.81s0-.06,0-.1c-.02,.13-.02,.26-.02,.4,0-.05,0-.09,0-.14v-.16Z"/><path class="m" d="M450,108.86c.09-.26,.18-.53,.27-.79l.06-.2c.05-.15,.09-.3,.14-.45,.05-.15,.09-.3,.13-.45,.16-.57,.3-1.14,.42-1.71,.04-.16,.07-.32,.1-.47,.02-.11,.04-.23,.06-.34-.03,.14-.05,.28-.09,.42-.02,.1-.04,.21-.07,.31-.04,.18-.07,.36-.12,.53-.02,.09-.04,.17-.06,.25-.02,.09-.04,.18-.07,.27-.02,.09-.04,.18-.07,.26-.03,.13-.07,.25-.1,.38-.02,.1-.05,.19-.08,.29,0,.03-.02,.07-.03,.1,0,.03-.01,.05-.02,.07,0,.01,0,.03-.01,.04-.05,.2-.11,.39-.18,.58-.09,.28-.18,.56-.28,.84-.14,.41-.3,.82-.47,1.23,0,0,0,.01,.01,.02,.15-.38,.3-.77,.44-1.17Z"/><path class="w" d="M468.08,80.61c1.82,.12,3.64,.32,5.43,.68,0,0,.01,0,.01,.01,.37,1.27,.78,2.52,1.22,3.77l.02,.06,7.79-14.26c-1.28,.8-2.51,1.47-4.06,1.5-.23,0-.47,0-.72-.03-2.25-.73-5.29-.53-6.57,1.69-.14,.18-.29,.35-.45,.5-.98,.93-2.38,1.37-3.8,1.32l-2.5,4.58c1.21,.04,2.42,.09,3.63,.17Z"/><path class="r" d="M470.75,74.53c.16-.15,.31-.32,.45-.5,1.28-2.21,4.32-2.42,6.57-1.69,.25,.03,.49,.04,.72,.03,1.54-.03,2.78-.7,4.06-1.5l1.79-3.27-9.92-5.42-7.47,13.67c1.42,.05,2.81-.39,3.8-1.32Z"/><path class="w" d="M451.32,103.66c-.03,.17-.06,.35-.09,.52,.04-.21,.08-.41,.11-.62,0,.03-.01,.07-.02,.1Z"/><path class="w" d="M451.66,100.78h0s0,.03,0,.04c0-.01,0-.03,0-.04Z"/><path class="w" d="M451.74,98.4c0-.27,0-.54-.02-.81,0-.09,0-.18,0-.26-.01-.26-.02-.52-.04-.78,0-.03,0-.06,0-.09-.02-.28-.04-.57-.07-.85,0-.02,0-.03,0-.04-.03-.31-.07-.62-.11-.93h0c-.03-.25-.06-.5-.1-.74,0-.02,0-.04-.01-.07-.02-.11-.04-.23-.06-.35-.04-.24-.08-.48-.13-.72-.26-1.38-.63-2.75-1.08-4.1,0-.14,0-.27,0-.41,0-.09,0-.19,0-.28,0,.05,0,.09,0,.14,0,.04,0,.09,0,.14,0,.04,0,.09,0,.13,0,.12,0,.25,0,.37,.45,1.35,.82,2.71,1.08,4.1,.05,.28,.1,.56,.15,.84,.02,.14,.05,.28,.07,.42,.05,.34,.1,.68,.14,1.03,.01,.14,.03,.27,.04,.41,.02,.18,.04,.36,.05,.54,0,.09,.02,.18,.02,.27,.03,.32,.04,.65,.06,.98,0,0,0,.02,0,.03,0,.27,.02,.54,.02,.81,0,.11,0,.22,0,.33,0,.14,0,.29,0,.43,0,.07,0,.13,0,.2,0,.15,0,.3,0,.45,0,.21-.01,.41-.02,.62,.02-.29,.03-.58,.04-.87,0-.32,.01-.63,0-.94Z"/><path class="o" d="M449.55,110.05v-.02s0-.01,0-.02v.02s0,.01,0,.02Z"/><path class="o" d="M449.58,110.08s-.02,.04-.03,.06c.06,.1,.12,.19,.18,.29,.01-.03,.02-.06,.04-.09-.07-.1-.14-.21-.2-.32v.02s0,.02,.02,.03Z"/><path class="o" d="M449.55,110.05s-.02,.04-.02,.06c0,.01,.01,.02,.02,.03,0-.02,.02-.04,.03-.06,0,0-.02-.02-.02-.03Z"/><path class="s" d="M451.61,101.35h0v0Z"/><path class="s" d="M451.61,101.36c0,.09-.02,.18-.03,.28,0-.09,.02-.18,.03-.27h0Z"/><path class="s" d="M451.66,100.79c-.01,.19-.03,.38-.04,.57,.02-.18,.03-.35,.04-.53,0,0,0-.02,0-.03Z"/><path class="s" d="M451.69,100.29c-.01,.17-.02,.33-.03,.5h0c.01-.17,.02-.33,.03-.5Z"/><path class="u" d="M454.19,79.92c.52-.26,1.03-.63,1.54-1.13,.21-.1,.42-.21,.64-.33,.22-.12,.44-.24,.67-.38,.16-.05,.33-.1,.49-.15,1.41-1.79,3.54-2.76,6-2.17,.24,0,.48-.02,.73-.02,.22,0,.45,0,.67,.03,.24-.04,.48-.07,.71-.09,.42,.11,.84,.17,1.27,.19l7.51-13.74-2.9-1.58-5.77-3.15h0l-12.29,22.48c.24,.03,.49,.05,.73,.08Z"/><path class="s" d="M456.33,80.11c1.97,.14,3.95,.2,5.92,.26,.72,.02,1.43,.04,2.15,.07l2.51-4.59c-.42-.02-.85-.08-1.27-.19-.23,.02-.47,.05-.71,.09-.23-.02-.45-.03-.67-.03-.24,0-.49,.02-.73,.02-2.46-.59-4.58,.38-6,2.17-.16,.05-.33,.1-.49,.15-.23,.14-.45,.26-.67,.38-.22,.12-.43,.23-.64,.33-.5,.5-1.02,.87-1.54,1.13,.71,.08,1.43,.14,2.14,.19Z"/><g><path class="w" d="M458.94,83.55c0-.12,.04-.28-.06-.36-.06-.05-.15-.08-.22-.11-.13-.07-.27-.14-.4-.2-.3-.15-.59-.29-.89-.43-.64-.29-1.29-.57-1.94-.83-1.63-.65-3.28-1.22-4.94-1.77l-4.68,4.68c-.61,.48-1.15,1.02-1.61,1.61-.85,1.08-1.44,2.33-1.77,3.65-.05,.19-.09,.38-.12,.57-.02,.11-.04,.21-.05,.31-.02,.14-.04,.28-.05,.43,0,.08-.02,.17-.02,.25,0,.04,0,.07,0,.1v.16c-.01,.09-.01,.19-.01,.28,0,.14,0,.28,0,.41,.46,1.34,.82,2.71,1.08,4.1,.04,.24,.09,.48,.13,.72,.02,.11,.04,.23,.06,.35,0,.02,0,.04,.01,.07,.04,.24,.07,.49,.1,.73h0c.04,.32,.07,.63,.11,.94,0,.01,0,.03,0,.04,.03,.28,.05,.57,.07,.85,0,.03,0,.06,0,.09,.02,.26,.03,.52,.04,.78,0,.08,0,.17,0,.26,0,.27,.01,.54,.02,.81,0,.32,0,.63,0,.94,0,.29-.02,.58-.04,.87,0,.02,0,.04,0,.07,0,.17-.02,.33-.03,.49,0,.02,0,.03,0,.04-.01,.18-.03,.36-.04,.53v.02c0,.09-.02,.18-.03,.27l-.03,.28c-.03,.29-.07,.59-.11,.88,0,.02,0,.03,0,.05,0,.06-.01,.11-.02,.17-.01,.08-.02,.16-.04,.24,0,0,0,.02,0,.02,0,.06-.02,.13-.03,.19,0,.03,0,.06-.01,.09-.03,.21-.07,.42-.11,.62,0,.03,0,.06-.01,.08-.01,.05-.02,.11-.03,.16-.02,.12-.04,.23-.06,.34-.03,.16-.06,.32-.1,.47-.12,.57-.27,1.15-.42,1.71-.04,.15-.08,.3-.13,.45-.04,.15-.09,.3-.14,.45l-.06,.2c-.08,.27-.18,.53-.27,.79-.14,.39-.29,.78-.44,1.17,.07,.11,.14,.21,.2,.32,3.64,5.74,5.02,10.42,3.16,12.28-.04,.04-.09,.08-.14,.12h0l-31.46,31.47c0,1.18-.02,2.36-.02,3.55l29.5-29.5c3.32-3.32,5.72-7.24,7.18-11.41,1.8-5.15,2.2-10.69,1.17-16.01-.26-1.38-.63-2.75-1.08-4.1-.08-2.24,.64-4.46,2.03-6.24,.46-.59,1-1.13,1.61-1.61l5.26-5.26c-.06-1.24-.1-2.48-.11-3.72Z"/><path class="t" d="M441.83,113.98s-.02,.06-.04,.09c-.06-.1-.12-.19-.18-.29-1.48,3.68-3.71,7.12-6.67,10.09l-22.72,22.72c.3,.54,.55,1.13,.72,1.77,.58,2.16,.51,4.47,.48,6.68-.01,.94-.02,1.87-.02,2.81l31.46-31.46h0c.05-.05,.1-.09,.14-.13,1.86-1.86,.48-6.54-3.16-12.28Z"/><path class="v" d="M441.62,113.68s0-.01-.01-.02v-.02c-1.82-2.83-4.19-5.91-6.98-9.02l-34.72,34.72c.91,.48,1.93,.8,2.75,1.1,3.52,1.31,7.69,2.76,9.57,6.14l22.72-22.72c2.97-2.97,5.19-6.41,6.67-10.09,0,0-.01-.02-.02-.03,0-.02,.01-.04,.02-.06Z"/><path class="v" d="M400.5,99.02c.07,.62,.2,1.23,.4,1.81,1.02,2.9,4.14,3.8,6.84,4.4,2.87,.64,5.97,1.16,8.16,3.31,0,0,0,.01,0,.02-.35,.63-.72,1.25-1.11,1.87l12.83-12.83c-9.66-8.72-19-13.36-21.82-10.53-.04,.04-.08,.09-.13,.14h0l-4.51,4.5c-.09,.49-.18,.99-.26,1.48-.17,1.02-.34,2.13-.42,3.24-.05,.86-.06,1.73,.03,2.59Z"/><path class="s" d="M447.33,78.82c-2.22-.73-4.44-1.47-6.59-2.37-.33,.06-.66,.08-.98,.08l-.66,.66c-.61,.84-1.34,1.57-2.15,2.15-1.87,1.34-4.17,1.98-6.46,1.77-.97-.3-1.96-.56-2.95-.76-2.05-.42-4.14-.63-6.23-.64-.76,0-1.52,.03-2.29,.08-5.91,.44-11.71,2.59-16.59,6.42-.48,1.81-.91,3.64-1.26,5.48l4.51-4.51h0s.08-.09,.13-.13c2.83-2.83,12.16,1.81,21.82,10.53,1.17,1.05,2.34,2.16,3.51,3.33,1.23,1.23,2.4,2.46,3.5,3.69,2.8,3.11,5.16,6.19,6.99,9.02,.16-.41,.32-.82,.47-1.23,.1-.28,.19-.56,.28-.84,.06-.19,.12-.38,.18-.58,0-.01,0-.03,.01-.04,0-.02,.01-.05,.02-.07,.01-.03,.02-.07,.03-.1,.03-.1,.06-.19,.08-.29,.04-.13,.07-.25,.1-.38,.03-.08,.05-.17,.07-.26,.02-.09,.05-.18,.07-.27,.02-.08,.04-.17,.06-.25,.04-.18,.08-.35,.12-.53,.02-.1,.05-.21,.07-.31,.03-.14,.06-.28,.09-.42,.01-.05,.02-.11,.03-.16,0-.02,.01-.05,.01-.08,.03-.18,.06-.35,.09-.52,0-.03,.01-.07,.02-.1,0-.03,0-.06,.01-.09,.01-.06,.02-.13,.03-.19,0,0,0-.01,0-.02,.01-.08,.02-.16,.04-.24,0-.06,.01-.11,.02-.17,0-.01,0-.03,0-.05,.04-.29,.07-.59,.11-.88l.03-.28c0-.09,.02-.18,.03-.28h0c.02-.2,.03-.39,.04-.58,.01-.17,.02-.33,.03-.5,0-.02,0-.04,0-.07,.01-.21,.02-.42,.02-.62,0-.15,0-.3,0-.45,0-.07,0-.13,0-.2,0-.14,0-.29,0-.43,0-.11,0-.22,0-.33,0-.27-.01-.54-.02-.81,0,0,0-.02,0-.03-.01-.33-.03-.65-.06-.98,0-.09-.01-.18-.02-.27-.01-.18-.03-.36-.05-.54-.01-.14-.03-.27-.04-.41-.04-.34-.08-.69-.14-1.03-.02-.14-.04-.28-.07-.42-.04-.28-.1-.56-.15-.84-.26-1.38-.63-2.75-1.08-4.1,0-.12,0-.25,0-.37,0-.04,0-.09,0-.13,0-.05,0-.1,0-.14,0-.14,0-.27,.02-.4,0-.09,0-.17,.02-.25,.02-.14,.03-.28,.05-.43,.01-.1,.03-.21,.05-.31,.03-.19,.07-.38,.12-.57,.31-1.35,.91-2.63,1.78-3.73,.47-.59,1.01-1.13,1.61-1.61l4.62-4.62c-1.03-.34-2.07-.67-3.1-1.01Z"/><path class="o" d="M414.44,110.98c-4.07,6.27-9.66,11.38-13.67,17.7-.98,1.54-1.87,3.14-2.51,4.85-.4,1.08-.77,2.32-.5,3.48,.26,1.09,1.12,1.8,2.13,2.33l34.72-34.72c-1.1-1.23-2.27-2.46-3.5-3.69-1.17-1.17-2.34-2.28-3.51-3.33l-12.83,12.83c-.12,.19-.23,.38-.35,.56Z"/></g><g><path class="w" d="M398.47,145.67l-25.15,25.15c.67,.5,1.33,1.02,1.98,1.55l23.15-23.15c0-1.18,0-2.36,.02-3.54Z"/><path class="t" d="M398.48,145.24c.03-2.08,.11-4.17-.02-6.25-.1-1.56-.34-3.15-1.07-4.54-.01-.03-.03-.05-.05-.08l-18.03,18.03,6.22,6.22-7.01,7.01-6.22-6.22-6.81,6.81c1.31,.49,2.54,1.16,3.75,1.86,1.42,.83,2.78,1.75,4.1,2.73l25.15-25.15c0-.14,0-.28,0-.42Z"/><path class="v" d="M393.92,130.97c-1.94-1.19-4.09-1.96-6.21-2.75-.86-.32-1.83-.64-2.7-1.09l-15.48,15.48,9.78,9.78,18.03-18.03c-.78-1.45-2.03-2.54-3.42-3.39Z"/><path class="v" d="M335.99,135.14s.01,.01,.01,.02c-.35,1.04-.74,2.07-1.17,3.08-1.82,4.29-4.24,8.3-5.94,12.64-.42,1.07-.79,2.16-1.1,3.26-.16,.57-.3,1.14-.42,1.72-.06,.29-.12,.58-.17,.88-.02,.11-.09,.3,0,.36,.03,.02,.17,0,.21,0,1.45-.05,2.9-.36,4.32-.62,3.36-.63,6.88-1.46,10.33-1.13,.2,.02,.41,.05,.63,.08l12.81-12.81-16.18-16.18-7.47,7.47c1.4,.33,2.79,.73,4.14,1.24Z"/><path class="v" d="M347.09,175.8c.65-.85,1.31-1.68,2-2.51,2.42-2.92,5.25-5.96,8.92-7.25,1.69-.59,3.49-.74,5.25-.44,.77,.13,1.51,.34,2.22,.61l6.81-6.81-9.78-9.78-14.83,14.83c-.04,2.02-.3,4.05-.53,6.02-.19,1.56-.41,3.12-.53,4.69-.02,.3-.04,.61-.05,.91,0,.09-.03,.38,.01,.37,.04,0,.09-.06,.15-.14l.06-.08c.12-.17,.25-.38,.3-.44Z"/><path class="v" d="M400.11,97.84c.22-.35,.43-.71,.63-1.07,.22-.39,.2-.52-.13-.81-.43-.37-.9-.69-1.39-.97-1.93-1.08-4.16-1.47-6.3-1.95-1.88-.42-3.91-.9-5.39-2.2-1.2-1.05-1.75-2.47-1.91-4.02v-.04c-.1-.85-.09-1.72-.03-2.59,.06-1,.19-2,.35-2.99,.09-.57,.19-1.13,.29-1.69l-39.9,39.9,16.18,16.18,37.31-37.31c.09-.15,.19-.3,.28-.45Z"/><path class="s" d="M387.34,74.65c.05-.21,.11-.42,.17-.62-.93,.73-1.83,1.52-2.68,2.37l-56.77,56.77c1.27,.2,2.54,.44,3.79,.74l54.38-54.38c.31-1.64,.69-3.26,1.11-4.87Z"/><rect class="n" x="373.95" y="154.62" width="9.92" height="8.79" transform="translate(-1.46 314.5) rotate(-45)"/><path class="o" d="M385.01,127.13c-.55-.29-1.07-.64-1.48-1.09-.95-1.04-.85-2.46-.5-3.74,.7-2.56,2.16-4.92,3.65-7.1,3.3-4.83,7.43-9.02,10.93-13.7,.78-1.04,1.52-2.11,2.21-3.21l-37.31,37.31-16.18-16.18-7.01,7.01,16.18,16.18-12.81,12.81c1.09,.16,2.22,.51,3.02,1.26,.95,.89,1.4,2.26,1.64,3.5,.28,1.4,.36,2.83,.33,4.27l14.83-14.83,9.78,9.78,7.01-7.01-9.78-9.78,15.48-15.48Z"/></g><g><path class="w" d="M371.93,184.76l-20.12,29.65c-.04,.05-.07,.1-.12,.15-1.41,1.77-5.32,1.57-10.47-.18h-.01l-2.63,3.87c-1.25-.57-2.52-1.18-3.79-1.82-2.17-1.09-4.35-2.29-6.53-3.58-2.18-1.29-4.36-2.67-6.53-4.14-1.37-.93-2.69-1.87-3.99-2.83-.2-.12-.4-.24-.6-.36,1.49,1.11,3.02,2.21,4.6,3.28,4.35,2.95,8.73,5.53,13.06,7.72,4.02,2.04,8,3.73,11.83,5.08,3.09,.35,4.46-1.66,5.87-3.74l21.68-31.95c-.74-.4-1.48-.78-2.24-1.14Z"/><path class="w" d="M328.25,212.85c2.19,1.29,4.37,2.48,6.53,3.58,1.27,.64,2.53,1.25,3.79,1.82l2.63-3.87c-.11-.04-.22-.08-.34-.12-.91,.73-2.03,1.17-3.59,.99-3.84-1.35-7.81-3.05-11.83-5.08-2.55-1.29-5.13-2.73-7.71-4.29,1.3,.96,2.63,1.91,3.99,2.83,2.17,1.47,4.35,2.86,6.53,4.14Z"/><path class="t" d="M370.47,184.09c-1.68-.75-3.41-1.4-5.18-1.91-.65-.19-1.29-.34-1.95-.45l-22.1,32.57s.03,0,.04,.01c-.03,.02-.05,.05-.08,.07,5.16,1.76,9.06,1.96,10.47,.18,.05-.05,.08-.1,.12-.15l20.12-29.65c-.48-.23-.96-.46-1.45-.68Z"/><path class="o" d="M341.25,214.3l-.05,.08h.01s.05-.04,.08-.07c-.01,0-.03,0-.04-.01Z"/><path class="o" d="M341.25,214.3c-.1-.03-.21-.07-.31-.1-.02,.02-.05,.04-.08,.06,.11,.04,.23,.08,.34,.12l.05-.08Z"/><path class="v" d="M330.81,177.56c-1.27,.49-2.53,1-3.8,1.48-.98,.37-1.98,.74-3.02,.94-.01,0-.02,0-.02-.02-.1-3.24,.45-6.44,1.24-9.57,.7-2.8,1.57-5.55,2.28-8.34,.37-1.47,.7-2.94,.94-4.44,.03-.19,.06-.38,.09-.56,.04-.29-.07-.32-.33-.36-.34-.05-.69-.1-1.03-.14-.76-.09-1.52-.16-2.29-.2-.21-.01-.42-.02-.63-.03l-18.3,26.96c-.04,.05-.07,.11-.1,.16-1.95,3.4,4.33,11.56,14.55,19.29l18.55-27.33c-2.79,.1-5.54,1.16-8.12,2.15Z"/><path class="v" d="M359.97,181.63c-3.16,.39-5.75,2.27-7.75,4.67-2.19,2.63-3.79,5.71-5.31,8.76-.02,.03-.03,.06-.04,.09-.04,.09-.09,.17-.13,.26,0,.01-.03,.02-.03,0-.23-1.21-.31-2.44-.4-3.66-.11-1.56-.2-3.12-.34-4.67-.11-1.22-.23-2.46-.44-3.7l-16.92,24.94c4.41,2.65,8.63,4.68,12.26,5.96,.03-.02,.05-.04,.08-.06,.11,.04,.21,.07,.31,.1l22.1-32.57c-1.11-.19-2.24-.24-3.38-.1Z"/><path class="s" d="M324.31,205.56c-1.37-.93-2.67-1.87-3.93-2.82-10.22-7.73-16.49-15.89-14.55-19.29,.03-.06,.06-.11,.1-.16l18.3-26.96c-1.29-.05-2.58-.05-3.86-.01l-18.43,27.16c-1.41,2.07-2.78,4.09-1.31,6.83,2.67,3.06,5.71,6.13,9.09,9.12,2.31,2.05,4.79,4.06,7.4,6.01,2.78,1.71,5.56,3.26,8.31,4.65,1.19,.6,2.37,1.17,3.54,1.71h0c-1.15-.52-2.31-1.08-3.48-1.67-2.76-1.4-5.55-2.96-8.34-4.67,.19,.14,.39,.28,.58,.43,2.58,1.56,5.16,3,7.71,4.29,4.02,2.04,8,3.73,11.83,5.08,1.56,.18,2.68-.26,3.59-.99-3.63-1.28-7.85-3.3-12.26-5.96-1.42-.85-2.85-1.76-4.29-2.74Z"/><path class="o" d="M344.27,178.89c-.45-1.02-1.06-2.02-1.97-2.7-.91-.68-2.18-.82-3.28-.79-.03,0-.07,0-.1,0l-18.55,27.33c1.25,.95,2.56,1.89,3.93,2.82,1.44,.98,2.87,1.89,4.29,2.74l16.92-24.94c-.25-1.54-.63-3.06-1.25-4.48Z"/></g><rect class="n" x="484.42" y="48.83" width="6.77" height="7.99" transform="translate(207.56 455.58) rotate(-61.35)"/><rect class="t" x="477.91" y="56.71" width="11.18" height="7.99" transform="translate(198.41 455.9) rotate(-61.35)"/><rect class="o" x="472.22" y="42.87" width="6.77" height="6.58" transform="translate(207.06 441.41) rotate(-61.35)"/><polygon class="v" points="471.51 60.52 476.87 50.71 471.1 47.56 465.75 57.36 465.74 57.37 471.51 60.52"/><polygon class="v" points="471.51 60.52 471.51 60.52 465.74 57.37 471.51 60.52"/><rect class="o" x="478.01" y="46.02" width="6.77" height="6.61" transform="translate(207.29 448.13) rotate(-61.35)"/><polygon class="o" points="476.87 50.71 471.51 60.52 474.41 62.11 474.41 62.11 477.32 63.69 482.67 53.88 476.87 50.71"/><rect class="o" x="472.96" y="59.66" height="3.3"/><path class="t" d="M499.71,37.85l-7.01-3.83c.3,.32,.38,.82,.16,1.22l-1.02,1.86,7.01,3.83,1.02-1.86c.22-.41,.14-.9-.16-1.22Z"/><path class="q" d="M492.41,39.02l-3.22,5.89,7.01,3.83,3.22-5.89c.37-.68,.12-1.54-.56-1.92l-7.01-3.83c.68,.37,.93,1.23,.56,1.92Z"/><path class="v" d="M487.06,32.07c.22-.41,.14-.9-.16-1.22l-4.5-2.46c-.44-.08-.89,.12-1.12,.53l-1.02,1.86,5.78,3.16,1.02-1.86Z"/><path class="o" d="M487.06,32.07l-1.02,1.86,5.8,3.17,1.02-1.86c.22-.41,.14-.9-.16-1.22l-5.8-3.17c.3,.32,.38,.82,.16,1.22Z"/><path class="t" d="M486.6,35.85c.37-.68,.12-1.54-.56-1.92l-5.78-3.16c-.68-.37-1.54-.12-1.92,.56l-3.22,5.89,8.25,4.51,3.22-5.89Z"/><path class="o" d="M486.6,35.85l-3.22,5.89,5.8,3.17,3.22-5.89c.37-.68,.12-1.54-.56-1.92l-5.8-3.17c.68,.37,.93,1.23,.56,1.92Z"/><path class="q" d="M487.83,47.38c-.37,.68-1.24,.93-1.92,.56l7.01,3.83c.68,.37,1.54,.12,1.92-.56l1.36-2.48-7.01-3.83-1.36,2.48Z"/><path class="t" d="M482.03,44.21l1.36-2.48-8.25-4.51-1.36,2.48c-.37,.68-.12,1.54,.56,1.92l5.78,3.16c.68,.37,1.54,.12,1.92-.56Z"/><path class="o" d="M482.03,44.21c-.37,.68-1.24,.93-1.92,.56l5.8,3.17c.68,.37,1.54,.12,1.92-.56l1.36-2.48-5.8-3.17-1.36,2.48Z"/></g><g><g><path class="m" d="M191.82,81.88c-.96,1.23-1.63,2.65-1.98,4.15,.36-1.47,1.03-2.86,1.97-4.06,.52-.66,1.12-1.26,1.8-1.8l9.35-9.35s-.04-.01-.06-.02l-9.28,9.28c-.68,.54-1.28,1.14-1.8,1.8Z"/><path class="m" d="M189.57,87.88s0-.07,0-.11c-.02,.14-.03,.29-.02,.45,0-.05,.01-.1,.01-.16v-.18Z"/><path class="m" d="M189.44,111.32c.1-.29,.2-.59,.3-.89l.07-.23c.05-.17,.1-.34,.15-.51,.05-.17,.1-.33,.15-.5,.17-.63,.33-1.27,.47-1.91,.04-.17,.08-.35,.11-.53,.02-.13,.05-.25,.07-.38-.03,.16-.06,.31-.1,.47-.02,.11-.05,.23-.07,.34-.04,.2-.08,.4-.13,.59-.02,.1-.04,.19-.07,.28-.02,.1-.05,.2-.07,.3-.02,.1-.05,.2-.08,.29-.04,.14-.07,.28-.11,.42-.03,.11-.06,.22-.09,.33-.01,.04-.02,.08-.03,.11,0,.03-.01,.05-.02,.08,0,.02,0,.03-.01,.04-.06,.22-.13,.43-.2,.65-.1,.31-.2,.62-.31,.93-.16,.46-.34,.92-.52,1.37,0,0,.01,.02,.02,.02,.17-.43,.34-.86,.49-1.3Z"/><path class="w" d="M191.8,81.97c-.94,1.2-1.61,2.59-1.97,4.06-.05,.21-.1,.42-.13,.63-.02,.12-.04,.23-.05,.35-.02,.16-.04,.32-.06,.47-.01,.09-.02,.18-.02,.28,0,.04,0,.08,0,.11v.18c-.01,.1-.02,.21-.02,.32,0,.15,0,.31,0,.46,.51,1.5,.91,3.02,1.21,4.56,.05,.27,.1,.54,.14,.8,.02,.13,.04,.26,.06,.39,0,.03,0,.05,.01,.08,.04,.27,.08,.54,.11,.81h0c.04,.35,.08,.7,.12,1.05,0,.01,0,.03,0,.05,.03,.32,.06,.63,.08,.95,0,.03,0,.07,0,.1,.02,.29,.03,.58,.05,.87,0,.09,0,.19,0,.29,.01,.3,.02,.6,.02,.9,0,.35,0,.7-.01,1.05-.01,.32-.02,.65-.04,.97,0,.03,0,.05,0,.08,0,.18-.02,.37-.03,.55,0,.02,0,.03,0,.05-.01,.2-.03,.4-.05,.59v.02c0,.1-.02,.2-.03,.3l-.03,.31c-.04,.33-.08,.65-.12,.98,0,.02,0,.04-.01,.05-.01,.06-.02,.12-.03,.19-.01,.09-.03,.18-.04,.26,0,.01,0,.02,0,.03,0,.07-.02,.14-.03,.21,0,.03-.01,.07-.02,.1-.03,.23-.07,.46-.12,.69,0,.03-.01,.06-.02,.09-.01,.06-.02,.12-.04,.18-.02,.13-.05,.26-.07,.38-.03,.17-.07,.35-.11,.53-.14,.64-.3,1.28-.47,1.91-.05,.17-.09,.33-.15,.5-.05,.17-.1,.34-.15,.51l-.07,.23c-.09,.3-.2,.59-.3,.89-.16,.44-.32,.87-.49,1.3,.08,.12,.15,.24,.23,.35,4.06,6.39,5.59,11.61,3.52,13.68-.05,.05-.1,.09-.16,.14h.01l-91.34,91.35c-.05,.05-.1,.1-.16,.14-1.91,1.64-6.14,.61-11.42-2.4h-.01l-3.68,3.68c-1.25-.89-2.51-1.81-3.76-2.78-2.14-1.65-4.27-3.42-6.4-5.28-2.11-1.86-4.21-3.83-6.28-5.9-1.3-1.3-2.55-2.61-3.77-3.93-.19-.18-.39-.35-.59-.52,1.4,1.53,2.84,3.05,4.35,4.55,4.14,4.14,8.4,7.88,12.67,11.18,3.98,3.07,7.96,5.76,11.88,8.03,3.31,1.03,5.23-.89,7.2-2.86l89.11-89.11c3.7-3.7,6.37-8.06,8-12.71,2.01-5.73,2.45-11.9,1.31-17.83-.29-1.54-.7-3.06-1.21-4.56-.09-2.5,.72-4.97,2.26-6.95,.51-.66,1.12-1.26,1.8-1.8l18.69-18.69c-1.62,.45-3.15,.78-4.81,.33-.25-.07-.5-.15-.76-.26-2.18-1.48-5.49-2.22-7.55-.26-.2,.15-.42,.28-.64,.4-1.34,.69-2.97,.72-4.47,.23l-9.35,9.35c-.68,.54-1.28,1.14-1.8,1.8Z"/><path class="r" d="M207.43,70.6c.22-.11,.43-.24,.64-.4,2.06-1.96,5.38-1.23,7.55,.26,.26,.11,.51,.19,.76,.26,1.66,.45,3.19,.12,4.81-.33l2.94-2.94-8.9-8.9-12.27,12.27c1.5,.5,3.13,.46,4.47-.23Z"/><path class="w" d="M190.91,105.53c-.03,.19-.07,.39-.1,.58,.05-.23,.09-.46,.12-.69,0,.03-.02,.07-.02,.11Z"/><path class="w" d="M191.29,102.32h0s0,.04,0,.05c0-.01,0-.03,0-.05Z"/><path class="w" d="M191.37,99.67c0-.3,0-.6-.02-.9,0-.1,0-.2,0-.29-.01-.29-.03-.58-.05-.87,0-.03,0-.07,0-.1-.02-.32-.05-.63-.08-.95,0-.02,0-.03,0-.05-.03-.35-.07-.69-.12-1.04h0c-.03-.28-.07-.55-.11-.82,0-.03,0-.05-.01-.08-.02-.13-.04-.26-.06-.39-.04-.27-.09-.54-.14-.8-.29-1.54-.7-3.06-1.21-4.56,0-.15,0-.3,0-.46,0-.1,0-.21,0-.32,0,.05,0,.1-.01,.16,0,.05,0,.1,0,.15,0,.05,0,.1,0,.14,0,.14,0,.28,0,.41,.51,1.5,.91,3.02,1.21,4.56,.06,.31,.11,.62,.16,.94,.03,.16,.05,.31,.07,.47,.06,.38,.11,.76,.15,1.14,.02,.15,.03,.3,.05,.46,.02,.2,.04,.4,.05,.61,.01,.1,.02,.2,.02,.3,.03,.36,.05,.73,.07,1.09,0,.01,0,.02,0,.03,.01,.3,.02,.6,.03,.9,0,.12,0,.24,0,.37,0,.16,0,.32,0,.48,0,.07,0,.15,0,.22,0,.17,0,.34-.01,.51,0,.23-.01,.46-.03,.69,.02-.33,.03-.65,.04-.97,0-.35,.01-.7,.01-1.05Z"/><path class="w" d="M75.78,211.49c2.12,1.87,4.26,3.63,6.4,5.28,1.25,.97,2.51,1.9,3.76,2.78l3.68-3.68c-.11-.06-.23-.14-.35-.2-1.15,.61-2.46,.85-4.13,.33-3.91-2.28-7.9-4.97-11.88-8.04-2.52-1.95-5.04-4.06-7.53-6.31,1.22,1.32,2.47,2.63,3.77,3.93,2.07,2.07,4.17,4.04,6.28,5.9Z"/><path class="o" d="M188.94,112.64v-.02s0-.01,0-.02v.02s0,.01,0,.02Z"/><path class="o" d="M188.97,112.68s-.02,.05-.03,.07c.07,.11,.14,.21,.2,.32,.01-.03,.03-.06,.04-.1-.07-.11-.15-.23-.23-.35v.02s0,.03,.02,.04Z"/><path class="o" d="M188.94,112.64s-.02,.04-.03,.07c0,.01,.02,.03,.02,.04,.01-.02,.02-.05,.03-.07-.01-.01-.02-.02-.03-.04Z"/><path class="t" d="M188.94,112.74c-1.65,4.1-4.13,7.93-7.43,11.24l-45.39,45.39,6.93,6.93-7.81,7.81-6.93-6.93-38.61,38.61s.03,.01,.04,.02c-.03,.02-.07,.04-.1,.06,5.27,3,9.51,4.04,11.42,2.4,.06-.04,.11-.09,.16-.14l91.34-91.34h-.01c.06-.05,.11-.1,.16-.15,2.07-2.07,.54-7.29-3.52-13.68-.01,.03-.03,.06-.04,.1-.07-.11-.13-.21-.2-.32Z"/><path class="o" d="M89.69,215.8l-.07,.07h.01s.07-.03,.1-.05c-.01,0-.03-.02-.04-.02Z"/><path class="o" d="M89.69,215.8c-.11-.06-.21-.12-.32-.18-.03,.02-.07,.03-.1,.05,.12,.07,.23,.14,.35,.2l.07-.07Z"/><path class="v" d="M136.11,169.38l45.39-45.39c3.31-3.31,5.78-7.14,7.43-11.24,0-.01-.01-.02-.02-.04,0-.02,.02-.05,.03-.07,0-.01-.01-.02-.01-.02v-.02c-2.03-3.15-4.67-6.58-7.78-10.05l-55.93,55.93,10.9,10.9Z"/><path class="v" d="M91.58,140.46l-34.02,34.02c-.05,.05-.1,.1-.14,.16-2.84,3.31,2.31,13.55,11.87,24.15l40.31-40.31-18.02-18.02Z"/><path class="v" d="M89.69,215.8l38.61-38.61-10.9-10.9-40.3,40.3c4.26,3.82,8.46,6.92,12.16,9.08,.03-.02,.07-.03,.1-.05,.11,.06,.21,.12,.32,.18Z"/><path class="v" d="M173.35,94.73c-10.76-9.71-21.16-14.88-24.31-11.73-.05,.05-.09,.1-.14,.16h0l-49.51,49.5,18.02,18.02,55.94-55.94Z"/><path class="s" d="M191.24,102.96h0v0Z"/><path class="s" d="M191.23,102.97c-.01,.1-.02,.21-.03,.31,.01-.1,.02-.2,.03-.3h0Z"/><path class="s" d="M191.28,102.33c-.01,.21-.03,.42-.05,.63,.02-.2,.03-.39,.05-.59,0-.01,0-.02,0-.04Z"/><path class="s" d="M191.32,101.77c-.01,.18-.02,.37-.04,.56h0c.01-.19,.02-.37,.03-.56Z"/><path class="u" d="M207.45,50.69h0l-20.59,20.58c1,.01,2.04-.22,3.17-.83,.25-.04,.52-.09,.79-.15,.27-.06,.55-.12,.83-.2,.19,0,.38,0,.57,0,2.07-1.47,4.65-1.84,7.09-.44,.26,.07,.52,.13,.79,.2,.24,.07,.47,.15,.71,.24,.27,.04,.53,.08,.79,.13,.41,.24,.85,.44,1.3,.6l12.33-12.33-2.6-2.6-5.18-5.18Z"/><path class="s" d="M200.81,70.08c-.24-.09-.47-.17-.71-.24-.26-.07-.52-.14-.79-.2-2.44-1.4-5.02-1.03-7.09,.44-.19,0-.38,0-.57,0-.29,.07-.57,.14-.83,.2-.27,.06-.53,.11-.79,.15-1.13,.61-2.17,.84-3.17,.83l-.74,.74c-.68,.94-1.49,1.74-2.4,2.4-2.08,1.49-4.65,2.2-7.2,1.97-1.08-.34-2.18-.62-3.29-.85-2.29-.47-4.62-.71-6.94-.71-.85,0-1.7,.03-2.55,.09-7.85,.58-15.53,3.86-21.5,9.83L53.15,173.85c-1.97,1.97-3.89,3.89-2.86,7.2,2.28,3.91,4.97,7.9,8.03,11.88,2.1,2.72,4.39,5.44,6.83,8.12,2.68,2.45,5.39,4.73,8.12,6.83,1.17,.91,2.34,1.77,3.51,2.61h0c-1.15-.81-2.3-1.67-3.46-2.56-2.73-2.11-5.45-4.4-8.14-6.85,.18,.2,.37,.39,.55,.59,2.49,2.24,5.01,4.36,7.53,6.31,3.98,3.07,7.97,5.76,11.88,8.04,1.67,.52,2.98,.28,4.13-.33-3.7-2.16-7.9-5.26-12.16-9.08-1.37-1.23-2.74-2.53-4.11-3.89-1.3-1.3-2.53-2.61-3.71-3.91-9.56-10.6-14.71-20.84-11.87-24.15,.05-.06,.09-.11,.14-.16l34.02-34.02,7.81-7.81,49.51-49.51h0s.09-.1,.14-.15c3.15-3.15,13.54,2.02,24.31,11.73,1.3,1.17,2.61,2.41,3.91,3.71,1.37,1.37,2.67,2.74,3.89,4.11,3.11,3.47,5.75,6.9,7.78,10.05,.18-.45,.36-.91,.52-1.37,.11-.31,.21-.62,.31-.93,.07-.21,.14-.43,.2-.65,0-.02,0-.03,.01-.04,.01-.03,.02-.05,.02-.08,.01-.03,.02-.08,.03-.11,.03-.11,.07-.22,.09-.33,.04-.14,.08-.28,.11-.42,.03-.09,.05-.19,.08-.29,.03-.1,.05-.2,.07-.3,.03-.09,.05-.18,.07-.28,.05-.2,.09-.39,.13-.59,.03-.11,.05-.23,.07-.34,.04-.16,.07-.31,.1-.47,.01-.06,.02-.12,.04-.18,0-.03,.01-.05,.02-.09,.03-.2,.07-.39,.1-.58,0-.04,.01-.08,.02-.11,0-.04,0-.07,.02-.1,.01-.07,.02-.14,.03-.21,0,0,0-.02,0-.03,.01-.09,.03-.18,.04-.26,.01-.06,.02-.12,.03-.19,0-.02,0-.03,.01-.05,.04-.33,.08-.65,.12-.98l.03-.31c.01-.1,.02-.21,.03-.31h0c.02-.22,.03-.43,.05-.64,.01-.18,.02-.37,.04-.56,0-.03,0-.05,0-.08,.01-.23,.02-.46,.03-.69,0-.17,0-.34,.01-.51,0-.07,0-.15,0-.22,0-.16,0-.32,0-.48,0-.12,0-.24,0-.37,0-.3-.02-.6-.03-.9,0-.01,0-.02,0-.03-.02-.36-.04-.73-.07-1.09,0-.1-.01-.21-.02-.3-.02-.2-.03-.4-.05-.61-.02-.15-.03-.3-.05-.46-.04-.38-.09-.77-.15-1.14-.02-.16-.05-.31-.07-.47-.05-.31-.11-.63-.16-.94-.29-1.54-.7-3.06-1.21-4.56,0-.14,0-.27,0-.41,0-.05,0-.1,0-.14,0-.05,0-.11,0-.15,0-.15,0-.3,.02-.45,0-.1,.01-.19,.02-.28,.02-.16,.03-.32,.06-.47,.02-.11,.04-.23,.05-.35,.04-.21,.08-.42,.13-.63,.35-1.5,1.02-2.92,1.98-4.15,.52-.66,1.12-1.26,1.8-1.8l9.28-9.28c-.45-.15-.88-.35-1.3-.6-.26-.05-.52-.09-.79-.13Z"/><rect class="n" x="130.15" y="171.85" width="11.05" height="9.79" transform="translate(-85.24 147.7) rotate(-45)"/><path class="o" d="M128.3,177.19l7.81-7.81-10.9-10.9,55.93-55.93c-1.23-1.37-2.53-2.74-3.89-4.11-1.3-1.3-2.6-2.54-3.91-3.71l-55.94,55.94-18.02-18.02-7.81,7.81,18.02,18.02-40.31,40.31c1.17,1.3,2.41,2.61,3.71,3.91,1.37,1.37,2.74,2.67,4.11,3.89l40.3-40.3,10.9,10.9Z"/><rect class="n" x="228.68" y="48.31" width="7.54" height="8.9" transform="translate(30.78 179.82) rotate(-45)"/><rect class="t" x="219.16" y="55.37" width="12.45" height="8.9" transform="translate(23.71 176.89) rotate(-45)"/><rect class="o" x="217.74" y="38.15" width="7.54" height="7.33" transform="translate(35.31 168.87) rotate(-45)"/><polygon class="v" points="212.63 55.87 221.43 47.07 216.25 41.89 207.46 50.68 207.45 50.69 212.63 55.87"/><polygon class="v" points="212.63 55.87 212.63 55.87 207.45 50.69 212.63 55.87"/><rect class="o" x="222.93" y="43.33" width="7.54" height="7.36" transform="translate(33.16 174.07) rotate(-45)"/><polygon class="o" points="221.43 47.07 212.63 55.87 215.23 58.47 215.23 58.47 217.84 61.08 226.64 52.27 221.43 47.07"/><rect class="o" x="213.93" y="55.33" height="3.68"/><path class="t" d="M249.87,40.48l-6.29-6.29c.22,.44,.15,.99-.21,1.36l-1.67,1.67,6.29,6.29,1.67-1.67c.37-.37,.43-.92,.21-1.36Z"/><path class="q" d="M241.7,39.44l-5.28,5.28,6.29,6.29,5.28-5.28c.61-.61,.61-1.61,0-2.22l-6.29-6.29c.61,.61,.61,1.61,0,2.22Z"/><path class="v" d="M238.16,30.34c.37-.37,.43-.92,.21-1.36l-4.04-4.04c-.44-.22-.99-.15-1.36,.21l-1.67,1.67,5.18,5.18,1.67-1.67Z"/><path class="o" d="M238.16,30.34l-1.67,1.67,5.21,5.21,1.67-1.67c.37-.37,.43-.92,.21-1.36l-5.21-5.21c.22,.44,.15,.99-.21,1.36Z"/><path class="t" d="M236.49,34.23c.61-.61,.61-1.61,0-2.22l-5.18-5.18c-.61-.61-1.61-.61-2.22,0l-5.28,5.28,7.41,7.41,5.28-5.28Z"/><path class="o" d="M236.49,34.23l-5.28,5.28,5.21,5.21,5.28-5.28c.61-.61,.61-1.61,0-2.22l-5.21-5.21c.61,.61,.61,1.61,0,2.22Z"/><path class="q" d="M234.19,46.95c-.61,.61-1.61,.61-2.22,0l6.29,6.29c.61,.61,1.61,.61,2.22,0l2.23-2.23-6.29-6.29-2.23,2.23Z"/><path class="t" d="M228.98,41.74l2.23-2.23-7.41-7.41-2.23,2.23c-.61,.61-.61,1.61,0,2.22l5.18,5.18c.61,.61,1.61,.61,2.22,0Z"/><path class="o" d="M228.98,41.74c-.61,.61-1.61,.61-2.22,0l5.21,5.21c.61,.61,1.61,.61,2.22,0l2.23-2.23-5.21-5.21-2.23,2.23Z"/></g><path class="p" d="M177.31,81.08c0,1.83-5.1,.17-11.17,.17s-10.83,1.66-10.83-.17,4.92-3.32,11-3.32,11,1.49,11,3.32Z"/></g></g><g id="e"/><g id="f"/><g id="g"/><g id="h"/><g id="i"/><g id="j"/><g id="k"/><g id="l"/></svg>