<?xml version="1.0" encoding="utf-8"?>
<!-- Generator: Adobe Illustrator 26.3.1, SVG Export Plug-In . SVG Version: 6.00 Build 0)  -->
<svg version="1.1" xmlns="http://www.w3.org/2000/svg" xmlns:xlink="http://www.w3.org/1999/xlink" x="0px" y="0px"
	 viewBox="0 0 1812 1204" style="enable-background:new 0 0 1812 1204;" xml:space="preserve">
<style type="text/css">
	.st0{fill:#FFFFFF;}
	.st1{fill:none;stroke:#000000;stroke-miterlimit:10;}
	.st2{stroke:#000000;stroke-miterlimit:10;}
	.st3{font-family:'Helvetica';}
	.st4{font-size:11px;}
	.st5{fill:#FFFFFF;stroke:#000000;stroke-miterlimit:10;}
	.st6{font-size:12px;}
	.st7{stroke:#000000;}
	.st8{fill:none;stroke:#000000;}
	.st9{font-family:'ArialMT';}
	.st10{font-size:10px;}
</style>
<g id="Layer_2">
	<rect x="-0.3" y="-0.7" class="st0" width="1812.5" height="1204.9"/>
</g>
<g id="Layer_1">
	<g>
		<path pointer-events="stroke" class="st1" d="M475.5,30.5v43.6"/>
		<path pointer-events="all" class="st2" d="M475.5,79.4l-3.5-7l3.5,1.8l3.5-1.8L475.5,79.4z"/>
		<g transform="translate(-0.5 -0.5)">
			<text transform="matrix(1 0 0 1 445.2312 60.5)" class="st3 st4">window load</text>
		</g>
		<ellipse pointer-events="all" cx="475.5" cy="15.5" rx="15" ry="15"/>
		<path pointer-events="all" class="st5" d="M610.5,459.3v-24.5c0-8.3-4.2-12.5-12.5-12.5H353c-8.3,0-12.5,4.2-12.5,12.5v24.5"/>
		<path pointer-events="none" class="st1" d="M340.5,459.3v307.5c0,8.3,4.2,12.5,12.5,12.5h245c8.3,0,12.5-4.2,12.5-12.5V459.3"/>
		<path pointer-events="none" class="st1" d="M340.5,459.3h270"/>
		<g transform="translate(-0.5 -0.5)">
			<text transform="matrix(1 0 0 1 447.4893 441.5)" class="st3 st6" style="text-decoration: underline;">startSpillet</text>
		</g>
		<g pointer-events="none">
			<text transform="matrix(1 0 0 1 347 473.78)" class="st3 st6">Skjul andre skærme</text>
		</g>
		<g pointer-events="none">
			<text transform="matrix(1 0 0 1 347 493.78)" class="st3 st6">vis spil skærm</text>
		</g>
		<g pointer-events="none">
			<text transform="matrix(1 0 0 1 347 513.78)" class="st3 st6">Nulstil point og liv</text>
		</g>
		<g pointer-events="none">
			<text transform="matrix(1 0 0 1 347 533.78)" class="st3 st6">Skriv point ud</text>
		</g>
		<g pointer-events="none">
			<text transform="matrix(1 0 0 1 347 553.78)" class="st3 st6">Vis alle liv</text>
		</g>
		<g pointer-events="none">
			<text transform="matrix(1 0 0 1 347 573.78)" class="st3 st6">Start timer -animation</text>
		</g>
		<g pointer-events="none">
			<text transform="matrix(1 0 0 1 347 593.78)" class="st3 st6">Random position (i array) og random delay</text>
		</g>
		<g pointer-events="none">
			<text transform="matrix(1 0 0 1 347 613.78)" class="st3 st6">Start fald -animationer på elementer</text>
		</g>
		<g pointer-events="none">
			<text transform="matrix(1 0 0 1 347 633.78)" class="st3 st6">mouseDownGood på alle goodCont</text>
		</g>
		<g pointer-events="none">
			<text transform="matrix(1 0 0 1 347 653.78)" class="st3 st6">mouseDownBad på alle badCont</text>
		</g>
		<g pointer-events="none">
			<text transform="matrix(1 0 0 1 347 673.78)" class="st3 st6">genstartPlusPoint på alle goodCont</text>
		</g>
		<g pointer-events="none">
			<text transform="matrix(1 0 0 1 347 693.78)" class="st3 st6">genstartMinusLife på alle badCont</text>
		</g>
		<g pointer-events="none">
			<text transform="matrix(1 0 0 1 347 713.78)" class="st3 st6">mouseDownOel på oelCont</text>
		</g>
		<g pointer-events="none">
			<text transform="matrix(1 0 0 1 347 733.78)" class="st3 st6">gameOverOel på contOel</text>
		</g>
		<g pointer-events="none">
			<text transform="matrix(1 0 0 1 347 753.78)" class="st3 st6">stop #france_national_anthem sound</text>
		</g>
		<g pointer-events="none">
			<text transform="matrix(1 0 0 1 347 773.78)" class="st3 st6">start #sound_french_ambience sound</text>
		</g>
		<path pointer-events="none" class="st5" d="M210.5,748.7v-24.5c0-8.3-4.2-12.5-12.5-12.5H13c-8.3,0-12.5,4.2-12.5,12.5v24.5"/>
		<path pointer-events="none" class="st1" d="M0.5,748.7v81.5c0,8.3,4.2,12.5,12.5,12.5h185c8.3,0,12.5-4.2,12.5-12.5v-81.5"/>
		<path pointer-events="none" class="st1" d="M0.5,748.7h210"/>
		<g transform="translate(-0.5 -0.5)">
			<text transform="matrix(1 0 0 1 57.4736 730.5)" class="st3 st6" style="text-decoration: underline;">mouseDownGood</text>
		</g>
		<g pointer-events="none">
			<text transform="matrix(1 0 0 1 7 763.17)" class="st3 st6">&quot;Flaske Smadres lyd&quot;</text>
		</g>
		<g pointer-events="none">
			<text transform="matrix(1 0 0 1 7 783.17)" class="st3 st6">frys flaske</text>
		</g>
		<g pointer-events="none">
			<text transform="matrix(1 0 0 1 7 803.17)" class="st3 st6">rykker background-position til -100%</text>
		</g>
		<g pointer-events="none">
			<text transform="matrix(1 0 0 1 7 821.67)" class="st3 st6">starter forsvind animation</text>
		</g>
		<g pointer-events="none">
			<text transform="matrix(1 0 0 1 7 838.67)" class="st3 st6">start genstartGood - animation</text>
		</g>
		<path pointer-events="none" class="st5" d="M583,117.5V93c0-8.3-4.2-12.5-12.5-12.5h-190c-8.3,0-12.5,4.2-12.5,12.5v24.5"/>
		<path pointer-events="none" class="st1" d="M368,117.5V205c0,8.3,4.2,12.5,12.5,12.5h190c8.3,0,12.5-4.2,12.5-12.5v-87.5"/>
		<path pointer-events="none" class="st1" d="M368,117.5h215"/>
		<g transform="translate(-0.5 -0.5)">
			<text transform="matrix(1 0 0 1 446.5898 99.5)" class="st3 st6" style="text-decoration: underline;">sidenVises</text>
		</g>
		<g pointer-events="none">
			<text transform="matrix(1 0 0 1 374.5 132)" class="st3 st6">Skjul andre skærme</text>
		</g>
		<g pointer-events="none">
			<text transform="matrix(1 0 0 1 374.5 152)" class="st3 st6">Vis start skærm</text>
		</g>
		<g pointer-events="none">
			<text transform="matrix(1 0 0 1 374.5 172)" class="st3 st6">Start #france_national_anthem sound</text>
		</g>
		<g pointer-events="none">
			<text transform="matrix(1 0 0 1 374.5 192)" class="st3 st6">Aktiver #start_button til infoSide</text>
		</g>
		<g pointer-events="none">
			<text transform="matrix(1 0 0 1 374.5 212)" class="st3 st6">windowResize</text>
		</g>
		<path pointer-events="none" class="st5" d="M200.5,969.2v-24.5c0-8.3-4.2-12.5-12.5-12.5H23c-8.3,0-12.5,4.2-12.5,12.5v24.5"/>
		<path pointer-events="none" class="st1" d="M10.5,969.2v67.5c0,8.3,4.2,12.5,12.5,12.5h165c8.3,0,12.5-4.2,12.5-12.5v-67.5"/>
		<path pointer-events="none" class="st1" d="M10.5,969.2h190"/>
		<g transform="translate(-0.5 -0.5)">
			<text transform="matrix(1 0 0 1 69.1426 951.5)" class="st3 st6" style="text-decoration: underline;">genstartGood</text>
		</g>
		<g pointer-events="none">
			<text transform="matrix(1 0 0 1 17 983.67)" class="st3 st6">Vis element igen</text>
		</g>
		<g pointer-events="none">
			<text transform="matrix(1 0 0 1 17 1003.67)" class="st3 st6">Ny random position</text>
		</g>
		<g pointer-events="none">
			<text transform="matrix(1 0 0 1 17 1023.67)" class="st3 st6">ryk background-position til 0%</text>
		</g>
		<g pointer-events="none">
			<text transform="matrix(1 0 0 1 17 1043.67)" class="st3 st6">Genstart fald -animation</text>
		</g>
		<path pointer-events="none" class="st1" d="M95.5,842.3l10-0.1v83.6"/>
		<path pointer-events="none" class="st2" d="M105.5,931l-3.5-7l3.5,1.8l3.5-1.8L105.5,931z"/>
		<g transform="translate(-0.5 -0.5)">
			<text transform="matrix(1 0 0 1 22.334 885.5)" class="st3 st4">genstartGood animation begynder</text>
		</g>
		<path pointer-events="none" class="st1" d="M340.5,539.3v-20.1h-235v186.1"/>
		<path pointer-events="none" class="st2" d="M105.5,710.5l-3.5-7l3.5,1.8l3.5-1.8L105.5,710.5z"/>
		<g transform="translate(-0.5 -0.5)">
			<text transform="matrix(1 0 0 1 59.7593 570.5)" class="st3 st4">Klik på fransk Flaske</text>
		</g>
		<path pointer-events="none" class="st5" d="M850.5,739.2v-24.5c0-8.3-4.2-12.5-12.5-12.5H653c-8.3,0-12.5,4.2-12.5,12.5v24.5"/>
		<path pointer-events="none" class="st1" d="M640.5,739.2v87.5c0,8.3,4.2,12.5,12.5,12.5h185c8.3,0,12.5-4.2,12.5-12.5v-87.5"/>
		<path pointer-events="none" class="st1" d="M640.5,739.2h210"/>
		<g transform="translate(-0.5 -0.5)">
			<text transform="matrix(1 0 0 1 701.4756 721.5)" class="st3 st6" style="text-decoration: underline;">mouseDownBad</text>
		</g>
		<g pointer-events="none">
			<text transform="matrix(1 0 0 1 647 753.67)" class="st3 st6">Flaske smadres lys </text>
		</g>
		<g pointer-events="none">
			<text transform="matrix(1 0 0 1 647 773.67)" class="st3 st6">frys flaske</text>
		</g>
		<g pointer-events="none">
			<text transform="matrix(1 0 0 1 647 793.67)" class="st3 st6">rykker background-position til -100%</text>
		</g>
		<g pointer-events="none">
			<text transform="matrix(1 0 0 1 647 813.67)" class="st3 st6">starter forsvind animation</text>
		</g>
		<g pointer-events="none">
			<text transform="matrix(1 0 0 1 647 833.67)" class="st3 st6">start genstartBad - animation</text>
		</g>
		<path pointer-events="none" class="st5" d="M840.5,969.2v-24.5c0-8.3-4.2-12.5-12.5-12.5H663c-8.3,0-12.5,4.2-12.5,12.5v24.5"/>
		<path pointer-events="none" class="st1" d="M650.5,969.2v67.5c0,8.3,4.2,12.5,12.5,12.5h165c8.3,0,12.5-4.2,12.5-12.5v-67.5"/>
		<path pointer-events="none" class="st1" d="M650.5,969.2h190"/>
		<g transform="translate(-0.5 -0.5)">
			<text transform="matrix(1 0 0 1 713.1445 951.5)" class="st3 st6" style="text-decoration: underline;">genstartBad</text>
		</g>
		<g pointer-events="none">
			<text transform="matrix(1 0 0 1 657 983.67)" class="st3 st6">Vis element igen</text>
		</g>
		<g pointer-events="none">
			<text transform="matrix(1 0 0 1 657 1003.67)" class="st3 st6">Ny random position</text>
		</g>
		<g pointer-events="none">
			<text transform="matrix(1 0 0 1 657 1023.67)" class="st3 st6">ryk background-position til 0%</text>
		</g>
		<g pointer-events="none">
			<text transform="matrix(1 0 0 1 657 1043.67)" class="st3 st6">Genstart fald -animation</text>
		</g>
		<path pointer-events="none" class="st1" d="M610.5,594.3l135-0.1v101.6"/>
		<path pointer-events="none" class="st2" d="M745.5,701l-3.5-7l3.5,1.8l3.5-1.8L745.5,701z"/>
		<g transform="translate(-0.5 -0.5)">
			<text transform="matrix(1 0 0 1 664.7891 635.5)" class="st3 st4">Klik på Dansk, Tysk, Italiensk...</text>
		</g>
		<path pointer-events="none" class="st1" d="M610.5,514.3l820-0.1v131.7"/>
		<path pointer-events="none" class="st2" d="M1430.5,651.2l-3.5-7l3.5,1.8l3.5-1.8L1430.5,651.2z"/>
		<g transform="translate(-0.5 -0.5)">
			<text transform="matrix(1 0 0 1 713.9531 517.5)" class="st3 st4">timer -animation færdig</text>
		</g>
		<path pointer-events="none" class="st5" d="M1550.5,682.3v-5c0-16.7-8.3-25-25-25h-190c-16.7,0-25,8.3-25,25v5"/>
		<path pointer-events="none" class="st1" d="M1310.5,682.3v75c0,16.7,8.3,25,25,25h190c16.7,0,25-8.3,25-25v-75"/>
		<path pointer-events="none" class="st1" d="M1310.5,682.3h240"/>
		<g transform="translate(-0.5 -0.5)">
			<text transform="matrix(1 0 0 1 1402.8174 671.5)" class="st3 st6" style="text-decoration: underline;">stopSpillet</text>
		</g>
		<g pointer-events="none">
			<text transform="matrix(1 0 0 1 1317 696.78)" class="st3 st6">Fjern alle animationer</text>
		</g>
		<g pointer-events="none">
			<text transform="matrix(1 0 0 1 1317 716.78)" class="st3 st6">Fjern alle klasser</text>
		</g>
		<g pointer-events="none">
			<text transform="matrix(1 0 0 1 1317 736.78)" class="st3 st6">Fjern alle event listeners</text>
		</g>
		<g pointer-events="none">
			<text transform="matrix(1 0 0 1 1317 756.78)" class="st3 st6">load() #french_national_anthem sound</text>
		</g>
		<g pointer-events="none">
			<text transform="matrix(1 0 0 1 1317 776.78)" class="st3 st6">pause() #sound_french_ambience sound</text>
		</g>
		<path pointer-events="none" class="st1" d="M1463.6,782.6l-3.1,39.6h80v30h18.6"/>
		<path pointer-events="none" class="st2" d="M1564.4,852.2l-7,3.5l1.8-3.5l-1.8-3.5L1564.4,852.2z"/>
		<g transform="translate(-0.5 -0.5)">
			<text transform="matrix(1 0 0 1 1473.9939 824.5)" class="st3 st4">Hvis antalLiv &gt; 0</text>
		</g>
		<path pointer-events="none" class="st5" d="M1660.5,882.2L1660.5,882.2c0-20-10-30-30-30h-130c-20,0-30,10-30,30l0,0"/>
		<path pointer-events="none" class="st1" d="M1470.5,882.2v50c0,20,10,30,30,30h130c20,0,30-10,30-30v-50"/>
		<path pointer-events="none" class="st1" d="M1470.5,882.2h190"/>
		<g transform="translate(-0.5 -0.5)">
			<text transform="matrix(1 0 0 1 1527.4814 871.5)" class="st3 st6" style="text-decoration: underline;">levelComplete</text>
		</g>
		<g pointer-events="none">
			<text transform="matrix(1 0 0 1 1477 896.67)" class="st3 st6">Vis levelcomplete skærm</text>
		</g>
		<g pointer-events="none">
			<text transform="matrix(1 0 0 1 1477 916.67)" class="st3 st6">play() #france_national_anthem</text>
		</g>
		<g pointer-events="none">
			<text transform="matrix(1 0 0 1 1477 936.67)" class="st3 st6">load() #sound_french_ambience</text>
		</g>
		<g pointer-events="none">
			<text transform="matrix(1 0 0 1 1477 956.67)" class="st3 st6">aktiver genstart2 knap</text>
		</g>
		<path pointer-events="none" class="st1" d="M1528.3,965.4l-2.6,99.5"/>
		<path pointer-events="none" class="st2" d="M1525.5,1070.2l-3.3-7.1l3.5,1.8l3.5-1.7L1525.5,1070.2z"/>
		<path pointer-events="none" class="st5" d="M1440.5,882.2L1440.5,882.2c0-20-10-30-30-30h-130c-20,0-30,10-30,30l0,0"/>
		<path pointer-events="none" class="st1" d="M1250.5,882.2v50c0,20,10,30,30,30h130c20,0,30-10,30-30v-50"/>
		<path pointer-events="none" class="st1" d="M1250.5,882.2h190"/>
		<g transform="translate(-0.5 -0.5)">
			<text transform="matrix(1 0 0 1 1317.4893 871.5)" class="st3 st6" style="text-decoration: underline;">gameOver</text>
		</g>
		<g pointer-events="none">
			<text transform="matrix(1 0 0 1 1257 896.67)" class="st3 st6">Vis gameover skærm</text>
		</g>
		<g pointer-events="none">
			<text transform="matrix(1 0 0 1 1257 916.67)" class="st3 st6">play() #sound_sad_trombone</text>
		</g>
		<g pointer-events="none">
			<text transform="matrix(1 0 0 1 1257 936.67)" class="st3 st6">load() #sound_french_ambience</text>
		</g>
		<g pointer-events="none">
			<text transform="matrix(1 0 0 1 1257 956.67)" class="st3 st6">aktiver genstart1 knap</text>
		</g>
		<ellipse pointer-events="none" class="st7" cx="1295.5" cy="1086.3" rx="11" ry="11"/>
		<ellipse pointer-events="none" class="st8" cx="1295.5" cy="1086.3" rx="15" ry="15"/>
		<ellipse pointer-events="none" class="st7" cx="1525.5" cy="1086.3" rx="11" ry="11"/>
		<ellipse pointer-events="none" class="st8" cx="1525.5" cy="1086.3" rx="15" ry="15"/>
		<path pointer-events="none" class="st1" d="M1367.2,962.2l0,80h433.3v-620H567.9"/>
		<path pointer-events="none" class="st2" d="M562.6,422.2l7-3.5l-1.8,3.5l1.8,3.5L562.6,422.2z"/>
		<g transform="translate(-0.5 -0.5)">
			<text transform="matrix(1 0 0 1 1382.532 1045.5)" class="st3 st4">Klik på genstart1</text>
		</g>
		<path pointer-events="none" class="st1" d="M1594.6,962l-0.1,40.2h146V456.8l-1119.6,0.1"/>
		<path pointer-events="none" class="st2" d="M615.7,456.9l7-3.5l-1.8,3.5l1.8,3.5L615.7,456.9z"/>
		<g transform="translate(-0.5 -0.5)">
			<text transform="matrix(1 0 0 1 1633.532 1005.5)" class="st3 st4">Klik på genstart2</text>
		</g>
		<path pointer-events="none" class="st1" d="M1298,962.2l-2.3,102.7"/>
		<path pointer-events="none" class="st2" d="M1295.5,1070.2l-3.3-7.1l3.5,1.8l3.5-1.7L1295.5,1070.2z"/>
		<path pointer-events="none" class="st5" d="M400.5,959.2v-24.5c0-8.3-4.2-12.5-12.5-12.5H223c-8.3,0-12.5,4.2-12.5,12.5v24.5"/>
		<path pointer-events="none" class="st1" d="M210.5,959.2v87.5c0,8.3,4.2,12.5,12.5,12.5h165c8.3,0,12.5-4.2,12.5-12.5v-87.5"/>
		<path pointer-events="none" class="st1" d="M210.5,959.2h190"/>
		<g transform="translate(-0.5 -0.5)">
			<text transform="matrix(1 0 0 1 258.4727 941.5)" class="st3 st6" style="text-decoration: underline;">genstartPlusPoint</text>
		</g>
		<g pointer-events="none">
			<text transform="matrix(1 0 0 1 217 973.67)" class="st3 st6">Få 1 point</text>
		</g>
		<g pointer-events="none">
			<text transform="matrix(1 0 0 1 217 993.67)" class="st3 st6">Vis point</text>
		</g>
		<g pointer-events="none">
			<text transform="matrix(1 0 0 1 217 1013.67)" class="st3 st6">&quot;Glad fransk lyd&quot;</text>
		</g>
		<g pointer-events="none">
			<text transform="matrix(1 0 0 1 217 1033.67)" class="st3 st6">Ny random position</text>
		</g>
		<g pointer-events="none">
			<text transform="matrix(1 0 0 1 217 1053.67)" class="st3 st6">Genstart fald -animation</text>
		</g>
		<path pointer-events="none" class="st5" d="M628,949.2v-24.5c0-8.3-4.2-12.5-12.5-12.5h-165c-8.3,0-12.5,4.2-12.5,12.5v24.5"/>
		<path pointer-events="none" class="st1" d="M438,949.2v87.5c0,8.3,4.2,12.5,12.5,12.5h165c8.3,0,12.5-4.2,12.5-12.5v-87.5"/>
		<path pointer-events="none" class="st1" d="M438,949.2h190"/>
		<g transform="translate(-0.5 -0.5)">
			<text transform="matrix(1 0 0 1 486.1416 931.5)" class="st3 st6" style="text-decoration: underline;">genstartMinusLife</text>
		</g>
		<g pointer-events="none">
			<text transform="matrix(1 0 0 1 444.5 963.67)" class="st3 st6">Mist 1 liv</text>
		</g>
		<g pointer-events="none">
			<text transform="matrix(1 0 0 1 444.5 983.67)" class="st3 st6">Vis liv</text>
		</g>
		<g pointer-events="none">
			<text transform="matrix(1 0 0 1 444.5 1003.67)" class="st3 st6">Vis element igen</text>
		</g>
		<g pointer-events="none">
			<text transform="matrix(1 0 0 1 444.5 1023.67)" class="st3 st6">Ny random position</text>
		</g>
		<g pointer-events="none">
			<text transform="matrix(1 0 0 1 444.5 1043.67)" class="st3 st6">Genstart fald -animation</text>
		</g>
		<path pointer-events="none" class="st1" d="M1140.5,1132.3v-462l164.1-0.1"/>
		<path pointer-events="none" class="st2" d="M1309.9,670.2l-7,3.5l1.8-3.5l-1.8-3.5L1309.9,670.2z"/>
		<path pointer-events="none" class="st5" d="M545.5,287.5V263c0-8.3-4.2-12.5-12.5-12.5H418c-8.3,0-12.5,4.2-12.5,12.5v24.5"/>
		<path pointer-events="none" class="st1" d="M405.5,287.5V355c0,8.3,4.2,12.5,12.5,12.5h115c8.3,0,12.5-4.2,12.5-12.5v-67.5"/>
		<path pointer-events="none" class="st1" d="M405.5,287.5h140"/>
		<g transform="translate(-0.5 -0.5)">
			<text transform="matrix(1 0 0 1 453.8174 269.5)" class="st3 st6" style="text-decoration: underline;">infoSide</text>
		</g>
		<g pointer-events="none">
			<text transform="matrix(1 0 0 1 412 302)" class="st3 st6">startGame</text>
		</g>
		<g pointer-events="none">
			<text transform="matrix(1 0 0 1 412 322)" class="st3 st6">Skjul andre skærme</text>
		</g>
		<g pointer-events="none">
			<text transform="matrix(1 0 0 1 412 342)" class="st3 st6">Vis info skærm</text>
		</g>
		<g pointer-events="none">
			<text transform="matrix(1 0 0 1 412 362)" class="st3 st6">Aktiver #start_button2</text>
		</g>
		<path pointer-events="none" class="st1" d="M475.5,217.5v26.6"/>
		<path pointer-events="none" class="st2" d="M475.5,249.4l-3.5-7l3.5,1.8l3.5-1.8L475.5,249.4z"/>
		<path pointer-events="none" class="st1" d="M475.5,367.5v48.4"/>
		<path pointer-events="none" class="st2" d="M475.5,421.2l-3.5-7l3.5,1.8l3.5-1.8L475.5,421.2z"/>
		<path pointer-events="none" class="st1" d="M305.5,915.8V812.3h130l-0.2-27.9"/>
		<path pointer-events="none" class="st2" d="M305.5,921l-3.5-7l3.5,1.8l3.5-1.8L305.5,921z"/>
		<path pointer-events="none" class="st2" d="M435.3,779.2l3.5,7l-3.5-1.7l-3.5,1.8L435.3,779.2z"/>
		<g transform="translate(-0.5 -0.5)">
			<text transform="matrix(1 0 0 1 242.5 881.5)" class="st3 st6">fald -animation kørt en ga...</text>
		</g>
		<path pointer-events="none" class="st1" d="M556.2,905.1l0.3-92.6l-94-0.2l0.2-27.5"/>
		<path pointer-events="none" class="st2" d="M556.2,910.4l-3.5-7l3.5,1.8l3.5-1.7L556.2,910.4z"/>
		<path pointer-events="none" class="st2" d="M462.8,779.5l3.4,7l-3.5-1.8l-3.5,1.7L462.8,779.5z"/>
		<g transform="translate(-0.5 -0.5)">
			<text transform="matrix(1 0 0 1 482.5 881.5)" class="st3 st6">fald -animation kørt en ga...</text>
		</g>
		<path pointer-events="none" class="st1" d="M521,1049.4l0.5,82.8h169h200h250"/>
		<g transform="translate(-0.5 -0.5)">
			<text transform="matrix(1 0 0 1 608.2793 1136.5)" class="st3 st4">Ingen liv tilbage</text>
		</g>
		<path pointer-events="none" class="st1" d="M745.5,839.2v86.6"/>
		<path pointer-events="none" class="st2" d="M745.5,931l-3.5-7l3.5,1.8l3.5-1.8L745.5,931z"/>
		<path pointer-events="none" class="st1" d="M610.5,549.3l395,0.2v146.3"/>
		<path pointer-events="none" class="st2" d="M1005.5,701l-3.5-7l3.5,1.8l3.5-1.8L1005.5,701z"/>
		<g transform="translate(-0.5 -0.5)">
			<text transform="matrix(1 0 0 1 816.0681 555.5)" class="st3 st4">Klik på Øl flaske</text>
		</g>
		<path pointer-events="none" class="st5" d="M1110.5,739.2v-24.5c0-8.3-4.2-12.5-12.5-12.5H913c-8.3,0-12.5,4.2-12.5,12.5v24.5"/>
		<path pointer-events="none" class="st1" d="M900.5,739.2v87.5c0,8.3,4.2,12.5,12.5,12.5h185c8.3,0,12.5-4.2,12.5-12.5v-87.5"/>
		<path pointer-events="none" class="st1" d="M900.5,739.2h210"/>
		<g transform="translate(-0.5 -0.5)">
			<text transform="matrix(1 0 0 1 973.8213 721.5)" class="st3 st6" style="text-decoration: underline;">clickBadOel</text>
		</g>
		<g pointer-events="none">
			<text transform="matrix(1 0 0 1 907 753.67)" class="st3 st6">flaske smadres lyd  </text>
		</g>
		<g pointer-events="none">
			<text transform="matrix(1 0 0 1 907 773.67)" class="st3 st6">frys flaske</text>
		</g>
		<g pointer-events="none">
			<text transform="matrix(1 0 0 1 907 793.67)" class="st3 st6">Rykker background position til -100%</text>
		</g>
		<g pointer-events="none">
			<text transform="matrix(1 0 0 1 907 813.67)" class="st3 st6">starter forsvind animation</text>
		</g>
		<g pointer-events="none">
			<text transform="matrix(1 0 0 1 907 833.67)" class="st3 st6">start genstartOel - animation</text>
		</g>
		<path pointer-events="none" class="st1" d="M1005.5,839.2v86.6"/>
		<path pointer-events="none" class="st2" d="M1005.5,931l-3.5-7l3.5,1.8l3.5-1.8L1005.5,931z"/>
		<path pointer-events="none" class="st5" d="M1100.5,969.2v-24.5c0-8.3-4.2-12.5-12.5-12.5H923c-8.3,0-12.5,4.2-12.5,12.5v24.5"/>
		<path pointer-events="none" class="st1" d="M910.5,969.2v67.5c0,8.3,4.2,12.5,12.5,12.5h165c8.3,0,12.5-4.2,12.5-12.5v-67.5"/>
		<path pointer-events="none" class="st1" d="M910.5,969.2h190"/>
		<g transform="translate(-0.5 -0.5)">
			<text transform="matrix(1 0 0 1 974.4834 951.5)" class="st3 st6" style="text-decoration: underline;">genstartOel</text>
		</g>
		<g pointer-events="none">
			<text transform="matrix(1 0 0 1 917 983.67)" class="st3 st6">Vis element igen</text>
		</g>
		<g pointer-events="none">
			<text transform="matrix(1 0 0 1 917 1003.67)" class="st3 st6">Ny random position</text>
		</g>
		<g pointer-events="none">
			<text transform="matrix(1 0 0 1 917 1023.67)" class="st3 st6">ryk background-position til 0%</text>
		</g>
		<g pointer-events="none">
			<text transform="matrix(1 0 0 1 917 1043.67)" class="st3 st6">Genstart fald -animation</text>
		</g>
		<path pointer-events="none" class="st5" d="M400.5,1138.3v-24.5c0-8.3-4.2-12.5-12.5-12.5H223c-8.3,0-12.5,4.2-12.5,12.5v24.5"/>
		<path pointer-events="none" class="st1" d="M210.5,1138.3v27.5c0,8.3,4.2,12.5,12.5,12.5h165c8.3,0,12.5-4.2,12.5-12.5v-27.5"/>
		<path pointer-events="none" class="st1" d="M210.5,1138.3h190"/>
		<g transform="translate(-0.5 -0.5)">
			<text transform="matrix(1 0 0 1 269.4824 1120.5)" class="st3 st6" style="text-decoration: underline;">gameOveroel</text>
		</g>
		<g pointer-events="none">
			<text transform="matrix(1 0 0 1 217 1152.78)" class="st3 st6">sæt liv til = 0</text>
		</g>
		<g pointer-events="none">
			<text transform="matrix(1 0 0 1 217 1172.78)" class="st3 st6">start stopSpillet()</text>
		</g>
		<path pointer-events="none" class="st1" d="M305.5,1178.3v14h875v-490h123.6"/>
		<path pointer-events="none" class="st2" d="M1309.4,702.3l-7,3.5l1.8-3.5l-1.8-3.5L1309.4,702.3z"/>
		<path pointer-events="none" class="st1" d="M1400.7,784.4l-0.2,47.9h-80l20,15.9"/>
		<path pointer-events="none" class="st2" d="M1344.6,851.5l-7.7-1.6l3.6-1.6l0.8-3.8L1344.6,851.5z"/>
		<g transform="translate(-0.5 -0.5)">
			<text transform="matrix(1 0 0 1 1329.782 839.5)" class="st3 st4">Hvis antalLiv &lt;= 0</text>
		</g>
		<path pointer-events="none" class="st1" d="M451.2,780.2l0.3,60.3h-31v240h-115v14.4"/>
		<path pointer-events="none" class="st2" d="M305.5,1100.2l-3.5-7l3.5,1.8l3.5-1.8L305.5,1100.2z"/>
	</g>
	<a xlink:href="https://www.diagrams.net/doc/faq/svg-export-text-problems"  transform="translate(0,-5)">
		<text transform="matrix(1 0 0 1 835.6333 1204.5)" class="st9 st10">Text is not SVG - cannot display</text>
	</a>
</g>
</svg>
