<?xml version="1.0" encoding="UTF-8"?><svg id="Layer_2" xmlns="http://www.w3.org/2000/svg" width="419.56" height="474.93" viewBox="0 0 419.56 474.93"><defs><style>.cls-1{fill:#fff;}</style></defs><path class="cls-1" d="M227.73,447.78c0-.42-.02-.85-.04-1.28-.01-.24-.03-.49-.04-.74-.2,.32-.38,.64-.53,.94l-.97,1.96-1.87-1.15c-.44-.27-.97-.53-1.52-.8-1.4-.68-2.99-1.46-3.96-2.89-9.34-13.75-23.68-22.59-43.82-27.02-1.73-.38-3.49-.72-5.19-1.05-5.45-1.05-11.08-2.13-16.64-4.74-2.95-1.38-6.49-1.67-10.23-1.98-2.61-.22-5.31-.44-7.9-1.06-17.67-4.19-36.64-8.91-57.99-14.44-7.33-1.9-14.1-6.05-20.7-12.69-1.28-1.29-2.7-2.54-4.07-3.76-2.22-1.97-4.52-4.01-6.48-6.36-6.64-7.97-10.44-17.38-11.61-28.77-.69-6.7-2.01-13.49-3.28-20.05-1.12-5.78-2.29-11.76-3.03-17.73-1.21-9.67-1.3-19.71-1.23-29.1,.07-7.5,.34-15.11,.6-22.47,.44-12.53,.9-25.5,.38-38.17-.47-11.49,.58-22.93,1.6-34,.7-7.6,1.42-15.47,1.63-23.21,.05-1.66-.1-3.33-.25-5.09-.17-1.91-.34-3.88-.25-5.87,.36-9.25,.79-18.66,1.2-27.76,.4-8.69,.8-17.67,1.15-26.5,.11-2.91,.08-5.9,.06-8.79-.04-3.67-.07-7.47,.18-11.22,.79-11.91,1.85-23.98,2.87-35.66l.53-6.07c.1-1.14,.67-2.07,1.13-2.81,.15-.25,.31-.49,.43-.74l.6-1.21,5.06,.4,.02,1.83c0,.35,0,.71,.02,1.06l1.73-.73-.28-1.43c.79-.15,1.58-.35,2.42-.56,1.86-.47,3.78-.95,5.79-.95h.19c9.88,.13,19.93,.36,29.64,.57,8.09,.18,16.45,.37,24.67,.5l10.64,.17c24.45,.4,49.72,.82,74.59,.96,1.68,0,3.35,.01,5.03,.01,8.32,0,16.79-.11,24.97-.21,8.2-.1,16.68-.21,25.03-.21,3.46,0,6.91,.02,10.36,.06,12.7,.16,25.59,.61,38.06,1.05,9.23,.33,18.78,.66,28.17,.88,.98,.02,1.95,.03,2.93,.03,5.35,0,10.83-.3,16.12-.6,1.25-.07,2.5-.14,3.75-.2,.54-.03,1.08-.04,1.61-.04,4.66,0,9.06,1.04,13.31,2.04,1.52,.36,3.09,.73,4.64,1.04,8.92,1.81,8.18,7.12,7.7,10.64-.13,.92-.25,1.8-.24,2.6,.08,5.59,.06,11.27,.05,16.77-.02,7.56-.04,15.38,.18,23.04,.05,1.73,.08,3.47,.12,5.22,.18,8.88,.38,18.07,2.27,26.61,1.58,7.17,2.09,14.12,2.57,20.84,1.53,21.55,3.31,43.1,5.3,67.03,.26,3.13,.72,6.32,1.16,9.4,.28,1.93,.55,3.85,.79,5.78,.51,4.23,.99,8.46,1.47,12.68,.91,7.98,1.84,16.22,2.97,24.29,1.97,14.12,1.75,28.44,1.54,42.28-.07,4.57-.14,9.3-.14,13.94,0,4.51-.14,9.09-.29,13.51-.2,5.86-.4,11.93-.22,17.84,.44,14.81-6.54,26.66-20.76,35.22-11.07,6.67-23.91,12.13-39.24,16.69-11.32,3.36-22.53,8.02-33.37,12.52-2.31,.96-4.61,1.92-6.92,2.86-8.08,3.32-16.17,7.07-23.99,10.69-2.1,.97-4.2,1.95-6.3,2.92-1.54,.71-3.17,1.74-4.99,3.15l-.78,.61c-7.22,5.6-14.7,11.39-20.35,18.79-.95,1.24-2.41,1.7-3.71,2.11-.46,.15-.89,.28-1.24,.44l-2.86,1.25,.06-3.12Zm-6.74-244.64c-1.6,0-2.65,.3-3.21,.91-.68,.74-.94,2.24-.76,4.44,.17,2.07,.42,4.19,.67,6.24,.4,3.32,.81,6.76,.88,10.19,.18,8.2,.25,16.52,.33,24.58,.08,8.58,.16,17.46,.36,26.18,.12,4.98,.51,10.06,.88,14.98,.26,3.38,.53,6.87,.7,10.31,.37,7.06,.68,14.24,.99,21.18,.26,5.91,.52,11.82,.81,17.72,.09,1.92,.3,3.9,.5,5.81,.12,1.18,.25,2.35,.35,3.53,.27,3.17,.56,6.34,.84,9.51,.71,7.96,1.45,16.18,1.99,24.3,.46,7,.82,14.12,1.17,21,.31,6.18,.63,12.57,1.03,18.85,.15,2.39,.47,4.85,.78,7.22,.34,2.65,.69,5.38,.84,8.12,3.05-4.88,7.67-8.14,12.17-11.31,.8-.57,1.6-1.13,2.39-1.7,8.04-5.83,16.99-10.09,25.64-14.2,3.63-1.73,7.39-3.51,11-5.38,13.05-6.75,27.02-11.19,40.52-15.49,9.84-3.13,20.01-6.36,29.64-10.45,6.35-2.69,12.45-5.93,18.14-9.62,9.99-6.5,14.6-16.51,14.5-31.51-.08-10.93-.33-22.05-.57-32.81-.14-6.37-.29-12.75-.4-19.12-.03-1.5,.07-2.99,.16-4.43,.12-1.88,.23-3.66,.09-5.4-.54-6.32-1.18-12.75-1.8-18.97-.67-6.77-1.37-13.76-1.95-20.66-.5-5.93-.89-11.97-1.27-17.8-.39-6.05-.8-12.31-1.33-18.44-1.03-12.02-2.45-27.85-4.27-43.66-.61-5.31-1.43-10.7-2.22-15.91-1.1-7.27-2.24-14.8-2.86-22.27-.96-11.67-1.25-23.56-1.54-35.06-.07-2.94-.15-5.88-.23-8.83-.27-9.25-.37-18.66-.47-27.77l-.08-6.62c-.02-1.4-.3-1.73-.31-1.74h0s-.1-.05-.39-.05c-.39,0-.9,.09-1.53,.26-.51,.14-1.07,.21-1.67,.21-1.3,0-2.61-.34-3.76-.64l-.59-.15c-1.15-.29-2.25-.69-3.31-1.09-1.67-.62-3.26-1.2-4.71-1.22-4.07-.06-8.46-.09-13.84-.09-3.26,0-6.52,0-9.78,.02-3.26,0-6.53,.02-9.79,.02-5.21,0-9.48-.03-13.45-.08-8.63-.12-17.39-.41-25.86-.68-7.16-.23-14.55-.47-21.83-.61-1.27-.02-2.54-.04-3.81-.04-3.82,0-7.72,.1-11.49,.19-2.52,.06-5.05,.13-7.57,.16-.49,0-.97,.01-1.45,.01-.9,0-2.09-.02-3.31-.17-2.26-.28-4.21-.51-5.56-.51-2.29,0-2.53,0-3.37,7.38-.25,2.18-.51,4.36-.78,6.54-1.02,8.4-2.07,17.08-2.05,25.55,.02,7.59,.77,15.35,1.49,22.86,.43,4.47,.87,9.09,1.17,13.65,.21,3.2,.21,6.44,.22,9.58,.01,4.21,.02,8.57,.53,12.75,.96,8,.17,15.86-.59,23.45-.11,1.06-.21,2.13-.32,3.2-.77,8.08-.42,16.49-.08,24.62,.05,1.26,.11,2.53,.15,3.79,.22,5.7,1.66,7.01,7.69,7.01h.27c2.3-.02,4.59-.02,6.89-.02,6.69,0,13.48,.06,20.05,.11,5.8,.05,11.6,.1,17.41,.11h.47c3.92,0,7.92-.06,11.78-.13,3.22-.05,6.43-.1,9.65-.12,8.21-.04,16.41-.08,24.61-.08,3.4,0,6.8,0,10.2,.02,8.51,.04,17.15,.15,25.51,.26,3.95,.05,7.9,.1,11.84,.15h.92c.35,0,.82,0,1.32,.07l.58,.07c1.57,.18,3.73,.43,4.82,2.14,.66,1.04,.74,2.34,.24,3.84-.79,2.38-4.39,3.9-6.53,3.9-.11,0-.22,0-.33-.01-2.98-.2-5.97-.61-8.86-1.01-3.71-.52-7.56-1.05-11.27-1.09-.64,0-1.28-.01-1.91-.01-5.39,0-10.9,.24-16.22,.46-4.96,.21-10.09,.43-15.15,.47-1.13,0-2.27,.01-3.4,.01-6.55,0-13.19-.12-19.62-.24-5.06-.09-10.3-.19-15.44-.23-8.23-.06-16.6-.06-24.69-.07-6.18,0-12.35,0-18.53-.03-2.46,0-5.03-.12-7.64-.35-.52-.05-1-.07-1.44-.07Zm-178.65-2.22c-2.9,0-4.62,.41-5.41,1.3-.89,1-1.1,3.21-.66,6.96,.17,1.44,.24,2.64,.21,3.77-.12,6.52-.26,13.05-.39,19.58-.19,9.23-.38,18.46-.54,27.68-.03,1.8,.08,3.7,.18,5.54,.22,3.91,.45,7.95-.55,11.77-1.28,4.87-.55,9.55,.21,14.5,.47,3.06,.96,6.22,.95,9.45,0,1.55,.63,3.24,1.31,5.04,.63,1.67,1.28,3.39,1.51,5.24,.38,3.01,.57,6.06,.74,9.02,.47,7.72,.91,15.02,4.54,21.78,.45,.83,.36,1.67,.3,2.23-.01,.12-.03,.23-.03,.35,.21,1.01,.39,2.1,.58,3.18,.45,2.62,.88,5.1,1.72,7.41,2.59,7.08,8.42,12.01,14.07,16.78,.58,.49,1.15,.97,1.72,1.46,5.15,4.4,12,9.75,19.41,12.16,16.89,5.51,34.44,9.67,49.38,13.01,7.74,1.74,15.7,3.18,23.4,4.58,9.53,1.73,19.39,3.53,28.97,5.89,6.8,1.68,13.12,5.26,19.22,8.73,1.19,.68,2.38,1.35,3.56,2,3.59,2,6.93,4.46,10.47,7.07,.76,.56,1.54,1.13,2.33,1.71,.01-.34,.01-.64,0-.92-.28-4.2-.58-8.41-.88-12.62-.5-7.11-1.03-14.45-1.44-21.69-.84-14.55-1.64-29.36-2.41-43.67-.42-7.82-.84-15.65-1.27-23.47-.27-4.91-.56-9.82-.85-14.73-.5-8.56-1.02-17.41-1.44-26.12-.19-4-.47-8.09-.74-12.04-.72-10.55-1.47-21.45-.64-32.13,.54-6.96,0-13.94-.53-20.69-.33-4.19-.67-8.53-.75-12.85-.06-3.03-1.14-4.06-4.31-4.06-.23,0-.46,0-.71,.02-14.06,.74-29.09,1.19-45.97,1.37-.42,0-.85,0-1.28,0-4.57,0-9.2-.27-13.67-.53-2.94-.17-5.97-.35-8.95-.45-6.98-.22-13.96-.41-20.94-.6-10.12-.27-20.59-.55-30.89-.94-8.38-.32-16.89-.82-25.11-1.3-4.08-.24-8.15-.48-12.23-.7-.78-.04-1.52-.06-2.2-.06Zm7.61-7.89c5.32,0,10.11,.08,14.63,.25,4.15,.16,8.34,.53,12.39,.89,3.07,.27,6.24,.55,9.35,.74,3.39,.2,6.77,.42,10.16,.64,10.81,.69,21.98,1.41,32.96,1.6,6.62,.11,13.72,.17,21.7,.17,9.46,0,19.09-.08,28.4-.15,3.71-.03,7.41-.06,11.12-.09,3.45-.02,6.99-.24,10.41-.45,2.16-.13,4.32-.26,6.48-.35,2.29-.09,2.99-.56,2.91-3.29-.3-10.53-.4-21.23-.5-31.57l-.06-5.81c-.05-4.38,0-8.83,.04-13.13,.1-9.06,.2-18.42-.6-27.51-2.55-29.06-2.12-54.58,1.32-78.01,.22-1.49-.07-1.96-.16-2.07-.11-.13-.52-.43-1.87-.43-.11,0-.23,0-.35,0-4.53,.14-9.14,.34-13.59,.53-9.07,.38-18.44,.78-27.68,.78h-1.14c-6.38-.02-12.83-.48-19.06-.93-4.98-.35-10.13-.72-15.17-.86-7.4-.2-14.73-.22-22.21-.22h-4.49c-4.24,0-9.16,0-13.99-.06-10.32-.13-20.79-.4-30.92-.67l-3.44-.09c-2.56-.07-5.15-.24-7.64-.4-1.13-.07-2.27-.15-3.4-.21l-1.61-.09-.33-2.09c0,.3,.02,.59,.02,.89,.07,2.45,.14,4.98-.03,7.5-.34,5.34-.75,10.77-1.15,16.02-.5,6.64-1.02,13.51-1.41,20.25-.44,7.62-.71,15.39-.97,22.91-.11,3.2-.22,6.4-.35,9.61l-.39,10.16c-.33,8.7-.67,17.4-1.03,26.11l-.14,3.32c-.57,13.92-1.17,28.31-1.86,42.46-.08,1.61,.11,2.66,.55,3.13,.49,.52,1.62,.62,2.47,.62h.18c3.86-.06,7.27-.09,10.44-.09Z"/><path class="cls-1" d="M45.39,28.59c2.66-.52,5.33-1.52,7.98-1.48,18.11,.24,36.21,.78,54.31,1.07,28.42,.46,56.83,.97,85.25,1.13,21.79,.12,43.59-.61,65.38-.34,22.07,.27,44.14,1.43,66.21,1.93,7.64,.17,15.31-.37,22.96-.77,6.64-.35,12.73,1.72,19.06,3,8.99,1.82,5.8,6.83,5.86,11.31,.18,13.28-.14,26.57,.23,39.84,.3,10.78,.13,21.8,2.44,32.21,1.53,6.92,2.03,13.63,2.53,20.55,1.59,22.36,3.44,44.71,5.3,67.05,.43,5.11,1.34,10.17,1.96,15.26,1.49,12.34,2.73,24.71,4.45,37.01,2.6,18.61,1.35,37.29,1.38,55.95,.02,10.47-.82,20.96-.51,31.41,.46,15.52-7.46,26.02-19.79,33.45-12.08,7.28-25.13,12.43-38.78,16.49-13.8,4.1-27.11,9.97-40.47,15.45-10.26,4.21-20.28,9-30.37,13.64-1.91,.88-3.71,2.09-5.38,3.38-7.71,5.98-15.48,11.89-21.5,19.76-.82,1.07-2.74,1.31-4.16,1.93,.03-1.48-.31-3.08,.14-4.41,2.74-7.98,9.72-12.02,16.01-16.58,11.24-8.15,24.17-13.11,36.39-19.43,22.4-11.59,47.12-16.16,70.03-25.87,6.39-2.71,12.63-6.01,18.45-9.79,11.92-7.75,15.5-19.81,15.41-33.2-.12-17.32-.67-34.63-.97-51.95-.06-3.32,.52-6.67,.24-9.96-1.14-13.22-2.64-26.41-3.75-39.63-1.02-12.07-1.56-24.18-2.6-36.25-1.25-14.59-2.6-29.18-4.28-43.72-1.47-12.74-4.02-25.36-5.07-38.12-1.19-14.54-1.35-29.18-1.77-43.78-.33-11.44-.41-22.9-.55-34.35-.04-3.41-1.42-4.35-4.76-3.43-1.5,.42-3.37-.18-5-.59-2.85-.72-5.65-2.33-8.48-2.37-15.62-.23-31.24,.09-46.86-.13-15.9-.23-31.78-.98-47.68-1.29-7.64-.15-15.3,.21-22.95,.32-1.5,.02-3.01,.04-4.49-.14-9.76-1.19-10.05-1.14-11.16,8.63-1.22,10.75-2.87,21.55-2.84,32.32,.04,12.21,1.88,24.41,2.66,36.63,.48,7.47-.13,15.03,.76,22.44,1.06,8.87-.07,17.45-.91,26.22-.9,9.47-.3,19.12,.07,28.68,.28,7.18,2.95,8.98,9.97,8.93,14.78-.1,29.56,.17,44.33,.2,7.31,0,14.61-.21,21.92-.25,11.6-.06,23.19-.12,34.79-.06,12.45,.06,24.9,.27,37.34,.41,.67,0,1.34-.04,2,.05,2.12,.28,5.06,.28,4,3.43-.43,1.29-3.21,2.64-4.82,2.53-6.77-.45-13.5-2.03-20.25-2.11-11.1-.12-22.21,.85-33.32,.92-12.81,.09-25.63-.37-38.44-.46-14.41-.1-28.82-.04-43.22-.1-2.49,0-4.99-.12-7.47-.34-5.8-.53-8.06,1.57-7.58,7.44,.44,5.45,1.42,10.87,1.54,16.31,.37,16.92,.29,33.84,.69,50.76,.2,8.46,1.15,16.9,1.59,25.35,.67,12.96,1.16,25.94,1.8,38.9,.15,3.14,.59,6.27,.86,9.41,.97,11.26,2.08,22.5,2.83,33.77,.88,13.27,1.36,26.57,2.2,39.84,.36,5.58,1.53,11.12,1.67,16.7,.05,2.01-1.86,4.07-2.87,6.11-1.66-1.02-3.89-1.65-4.88-3.11-10.88-16.02-27.21-23.93-45.05-27.85-7.29-1.6-14.38-2.35-21.41-5.64-5.47-2.55-12.42-1.72-18.52-3.17-19.37-4.59-38.68-9.44-57.95-14.43-7.74-2.01-14.15-6.5-19.78-12.16-3.4-3.41-7.37-6.32-10.43-9.99-6.64-7.97-10.07-17.13-11.16-27.69-1.3-12.69-4.74-25.15-6.32-37.82-1.19-9.52-1.29-19.23-1.21-28.84,.19-20.25,1.8-40.54,.98-60.74-.78-19.24,2.71-38.03,3.23-57.08,.1-3.64-.66-7.31-.51-10.94,.7-18.09,1.64-36.18,2.35-54.27,.26-6.65-.21-13.33,.23-19.96,.92-13.91,2.19-27.8,3.4-41.69,.09-.98,.89-1.89,1.36-2.84l1.88,.15c.03,3.56,.28,7.13,.05,10.67-.78,12.1-1.86,24.19-2.56,36.29-.63,10.84-.9,21.7-1.32,32.55-.47,12.09-.92,24.17-1.42,36.26-.63,15.25-1.25,30.51-2,45.76-.19,3.91,.94,5.92,5.24,5.85,8.32-.13,16.66-.15,24.97,.16,7.24,.28,14.46,1.2,21.7,1.63,14.4,.86,28.79,1.99,43.2,2.24,20.41,.35,40.84,.07,61.26-.07,5.65-.04,11.3-.57,16.95-.8,3.5-.14,4.93-1.64,4.83-5.34-.35-12.45-.43-24.9-.56-37.35-.15-13.6,.62-27.28-.56-40.79-2.28-25.95-2.48-51.76,1.31-77.55,.56-3.78-1.22-4.89-4.43-4.78-14.11,.45-28.23,1.35-42.34,1.3-11.4-.04-22.79-1.47-34.19-1.78-13.57-.37-27.15-.12-40.72-.28-11.45-.14-22.89-.46-34.33-.76-3.66-.1-7.32-.4-10.98-.61l-.28-1.79,.03,.04ZM221.33,432.87c.12-2.59,.27-3.7,.2-4.81-.76-11.43-1.66-22.86-2.32-34.3-1.29-22.37-2.45-44.76-3.68-67.13-.75-13.61-1.63-27.22-2.28-40.84-.7-14.64-2.52-29.4-1.39-43.92,.89-11.47-1.06-22.5-1.27-33.74-.08-4.3-2.2-6.25-7.12-6-15.28,.8-30.59,1.2-45.89,1.37-7.93,.09-15.87-.71-23.81-.97-17.27-.55-34.55-.89-51.82-1.54-12.44-.47-24.87-1.33-37.31-2-9.28-.5-11.39,1.64-10.36,10.42,.14,1.16,.23,2.33,.2,3.49-.3,15.76-.65,31.52-.93,47.28-.1,5.63,1.07,11.56-.31,16.84-2.22,8.46,1.13,16.29,1.1,24.44,0,3.5,2.38,6.95,2.83,10.53,1.34,10.59,.19,21.59,5.51,31.5,.28,.51-.07,1.32,.06,1.96,.74,3.67,1.12,7.47,2.39,10.95,3.04,8.32,10.03,13.66,16.37,19.07,5.97,5.1,12.77,10.16,20.09,12.54,16.22,5.29,32.89,9.33,49.56,13.06,17.36,3.89,35.08,6.21,52.33,10.46,7.83,1.93,15.09,6.55,22.29,10.54,5.13,2.85,9.72,6.68,15.59,10.8h-.03Z"/><path class="cls-1" d="M293.71,360.35c-1.64,0-2.95-.31-4.01-.96-1.75-1.07-3.65-1.52-6.37-1.52-.92,0-1.84,.05-2.82,.1s-1.98,.1-2.99,.1c-1.62,0-2.96-.13-4.22-.42-2.73-.63-5.52-1.1-8.29-1.39-.64-.07-1.34-.1-2.2-.1-.63,0-1.28,.02-1.94,.03-.74,.02-1.49,.04-2.28,.04h-1.5s-.85-2.92-1.09-3.72c-1.28,.39-2.43,.58-3.49,.58-2.65,0-6.1-1.22-7.54-7.03-.14-.58-1.05-1.43-1.78-2.12-.27-.26-.54-.51-.79-.76-8.15-8.15-8.72-15.27-1.96-24.59,.5-.68,.88-1.55,1.05-2.38,2.3-11.24,9.21-20.33,20.52-26.99,6.52-3.83,13.46-7.09,20.18-10.24,3.15-1.48,6.4-3,9.55-4.57,.89-.44,1.75-.95,2.66-1.5,.94-.56,1.91-1.14,2.94-1.65,1.33-.65,2.68-1.2,4.25-1.83,.5-.2,1.03-.41,1.58-.64,0,0,.89-9.29,1.17-12.21l-1.8-.98c-.57-.31-1.16-.59-1.75-.88-1.46-.71-2.98-1.44-4.3-2.56-3.32-2.84-6.83-4.21-10.74-4.21-3.19,0-6.74,.92-10.84,2.81-2.51,1.16-3.48,2.59-3.48,5.11,.01,5.86-5.35,6.49-8.24,6.83l-.51,.06h-.16c-.81,0-1.58-.4-2.36-1.22-1.12-1.19-2.63-3.74-2.52-5.69,.12-1.87,1.5-3.24,2.83-4.56,.18-.18,.35-.35,.52-.52-2.61-6.61-1.37-8.29,5.22-13.4,5.5-4.26,12.86-6.61,20.73-6.61,8.97,0,17.1,3.09,22.3,8.48,3.82,3.96,6.47,9.09,8.13,12.62,.28,.6,.82,1.75,1.06,3.11l.04-.31,2.16-1.08,1.03,.86c1.37,1.19,2.25,2.6,3.03,3.84,1.3,2.08,1.95,3,3.69,3,.15,0,.3,0,.46-.02l2.32-.19-.16,2.32c-.02,.33-.02,.74-.01,1.14,.01,1.72,.03,3.49-1.68,4.02-2.44,.79-4.95,1.16-7.53,1.5-1.06,.14-2.17,.21-3.3,.21-.65,0-1.3-.02-1.95-.07-.24-.02-.48-.02-.71-.02-4.5,0-6.75,3.02-9.35,6.52-1.14,1.53-2.32,3.11-3.73,4.47-8.87,8.53-19.16,15.64-31.44,21.76-7.43,3.7-11.63,9.01-12.49,15.79-.29,2.26-.88,6.96-.19,7.75,.05,.06,.33,.17,.98,.17,1.44,0,3.71-.5,7.15-1.37,8.44-2.14,14.71-7.4,21.34-12.97,.98-.82,1.96-1.64,2.94-2.45,7.11-5.85,12.93-8.45,18.87-8.45s11.84,2.54,19.25,8.25c2.32,1.78,4.47,3.79,6.54,5.73,1.29,1.21,2.63,2.46,3.97,3.62,1.57,1.36,2.96,1.99,4.36,1.99,1.3,0,2.72-.55,4.36-1.68,3.27-2.26,7.58-3.91,12.12-4.65,.47-.08,.94-.12,1.4-.12,2.15,0,4.05,.88,5.21,2.41,1.22,1.61,1.53,3.76,.88,6.07-1.46,5.14-3.33,11.13-6.16,16.58-1.08,2.07-2.99,3.43-4.84,4.75-1.01,.72-1.96,1.4-2.72,2.14-.41,.41-.75,1.12-1.09,1.89,.64,.38,1.28,.74,1.71,.77,2.42,.16,4.92,.18,7.35,.19,1.92,.01,3.91,.02,5.87,.11,1.23,.06,2.33,.49,3.29,.87,.37,.14,.73,.29,1.1,.4l2.62,.83-1.6,2.24c-.19,.26-.39,.62-.6,1.01-.64,1.15-1.43,2.59-2.95,3.01-.78,.21-1.55,.46-2.32,.71-2.21,.71-4.5,1.45-7.02,1.45-1.79,0-3.44-.37-5.07-1.13-1.71-.8-3.64-1.26-5.3-1.26-.44,0-.86,.03-1.25,.1-1.48,.25-2.82,.38-4.08,.38-3.52,0-6.59-1.01-9.39-3.08-.41,.04-1.06,.22-1.59,.37-.58,.16-1.19,.33-1.78,.43-1.2,.2-2.39,.42-3.57,.63-2.51,.46-5.11,.93-7.71,1.23-6.56,.75-13.36,1.42-20.78,2.03-.72,.06-1.5,.17-2.33,.29-1.35,.2-2.75,.4-4.09,.4Zm-3.09-11.98c.91,0,2.21,.16,3.2,.91,1.75,1.33,3.67,1.95,6.06,1.95,1.8,0,3.65-.33,5.62-.68,.88-.16,1.76-.31,2.64-.44l1.59-.23c3.51-.51,7.13-1.04,10.72-1.46,3.8-.44,7.67-.79,11.41-1.13l1-.09c2.68-.24,5.36-.45,8.23-.68,1.26-.1,2.55-.2,3.89-.31,.86-1.09,1.77-2.22,2.71-3.39,2.85-3.54,6.08-7.54,8.83-11.71,1.37-2.08,2.24-5.46,2.01-6.4-.51-.53-.87-.53-1.02-.53-1.2,0-3.02,1.57-4.22,2.61l-.43,.37c-2.62,2.25-5.45,3.39-8.42,3.39-2.43,0-4.89-.77-7.32-2.3-7.38-4.66-14.3-9.77-20.68-14.59-2.45-1.85-5.76-2.92-9.08-2.92s-6.43,1.05-8.63,2.97l-2.08,1.82c-7.9,6.95-16.07,14.13-27.09,17.25-1.35,.38-2.67,.86-4.06,1.38-3.04,1.11-6.19,2.27-9.62,2.27-2.04,0-3.95-.4-5.85-1.22-.03-.01-.15-.04-.35-.04-.25,0-.43,.05-.49,.08-.97,.42-1.45,.7-1.68,.89,.11,.29,.32,.64,.46,.77,5.84,5.15,11.29,9.48,19.05,10.4,2.07,.25,4.12,.63,6.11,1.01,3.24,.61,6.3,1.2,9.4,1.2,2.04,0,3.89-.26,5.67-.79,.75-.22,1.61-.34,2.43-.34Zm-9.45-60.58c-1.5,.37-2.9,.83-4.1,1.53-5.51,3.23-10.82,7.11-15.96,10.86-1.12,.82-2.24,1.63-3.36,2.45-.68,.49-1.28,1.4-1.91,2.36-.22,.33-.44,.67-.67,.99-1.29,1.84-2.21,3.74-2.83,5.73,.37-.62,.79-1.24,1.26-1.84,1.94-2.49,3.9-4.99,6.3-7.04,3.32-2.83,7.08-5.67,11.48-8.67,3.22-2.2,6.55-4.32,9.79-6.37Zm34.03-25.41c.17,.15,.48,.33,.73,.43,.76-.45,1.49-1.25,1.76-1.93,.27-.7,.38-1.53,.45-2.42-.52,1.26-1.5,2.26-2.9,2.99-.05,.3-.08,.7-.04,.93Zm-9.19-7.89l.02-.03c.28-.61,.8-1.73,.73-2.07-1.54-6.88-10.62-13.37-18.68-13.37-1.03,0-2.02,.11-2.95,.32-2.77,.64-5.25,1.25-7.58,1.93,3.22-.68,6.45-1.2,9.57-1.2,8.2,0,14.16,3.51,18.75,11.04l.51,.84s-.79,2.04-.92,2.39l.55,.16Z"/><path class="cls-1" d="M320.37,255.94c3.31,2.86,3.47,7.73,8.65,7.3-.08,1.18,.13,3.26-.29,3.39-2.31,.75-4.77,1.11-7.2,1.43-1.6,.21-3.24,.24-4.85,.13-8.43-.55-10.68,7.07-15.32,11.52-9.17,8.81-19.5,15.71-30.95,21.41-6.61,3.29-12.49,8.69-13.58,17.33-1.4,11.03-.65,11.54,10.42,8.74,10.19-2.58,17.44-9.55,25.06-15.82,12.72-10.46,21.79-10.81,35.63-.16,3.68,2.83,6.91,6.24,10.43,9.28,3.56,3.08,6.94,3.36,11.16,.45,3.25-2.24,7.38-3.68,11.31-4.32,3.65-.6,6.37,1.84,5.24,5.85-1.57,5.54-3.37,11.12-6.01,16.2-1.38,2.65-4.9,4.13-7.19,6.39-1.07,1.06-1.53,2.75-2.27,4.15,1.39,.67,2.74,1.83,4.16,1.93,4.41,.3,8.86,.11,13.28,.3,1.31,.06,2.58,.77,3.87,1.18-.81,1.13-1.42,2.97-2.46,3.26-4.21,1.15-8.32,3.34-13.02,1.14-2.31-1.08-5.27-1.74-7.73-1.32-4.56,.78-8.41,.38-12.18-2.52-.87-.67-3.07,.35-4.66,.62-3.73,.62-7.43,1.41-11.18,1.84-6.89,.79-13.8,1.45-20.72,2.02-3.11,.26-6.98,1.39-9.22,.02-5.6-3.42-11.44-.71-16.99-1.99-2.81-.65-5.67-1.13-8.53-1.43-2.09-.22-4.22-.04-6.63-.04-.38-1.31-.78-2.66-1.27-4.32-5.1,2.13-8.9,1.75-10.4-4.33-.35-1.44-1.94-2.65-3.1-3.81-7.41-7.41-7.89-13.54-1.76-22,.66-.91,1.16-2.04,1.39-3.14,2.4-11.72,9.81-19.92,19.58-25.67,9.48-5.57,19.72-9.85,29.6-14.74,1.92-.95,3.68-2.2,5.6-3.15,1.92-.94,3.94-1.67,6.82-2.88,.36-3.78,.83-8.65,1.29-13.52l.82,.23c.56-1.66,1.87-3.49,1.54-4.95-2.06-9.17-14.66-16.72-24.03-14.56-4.17,.96-8.35,2-12.35,3.49-1.66,.62-2.84,2.52-3.91,4.57,13.3-2.96,26.61-8.26,35.74,6.7-.22,.57-.44,1.13-.65,1.7-1.92-1.05-4.08-1.82-5.71-3.21-7.54-6.45-15.51-5.48-23.71-1.7-2.91,1.34-4.65,3.3-4.64,6.93,.01,4.27-3.99,4.54-6.87,4.89-.85,.1-3.02-3.16-2.92-4.79,.1-1.61,2.29-3.09,3.69-4.78-2.71-6.4-2.48-7.13,4.11-12.24,11.33-8.78,30.81-8.22,40.36,1.68,3.27,3.39,5.73,7.78,7.76,12.08,.98,2.08,2.24,5.5-1.73,7.2-.58,.25-.89,2.52-.44,3.41,.43,.85,2.32,1.81,3.01,1.5,1.3-.59,2.63-1.89,3.14-3.21,.67-1.73,.57-3.75,.79-5.65h.02Zm25.64,92.19c3.61-4.64,8.28-10.03,12.18-15.92,1.61-2.44,3.14-7.37,1.94-8.73-2.79-3.17-6.23,.15-8.57,2.15-4.43,3.81-9.06,3.63-13.37,.92-7.08-4.47-13.86-9.44-20.54-14.49-5.76-4.36-14.87-4.54-20.23,.14-8.61,7.52-16.88,15.4-28.4,18.65-6.02,1.7-11.58,5.37-18.2,2.51-.69-.3-1.74-.27-2.44,.04-1.09,.47-2.45,1.12-2.88,2.06-.31,.69,.41,2.29,1.16,2.94,5.85,5.16,11.75,9.88,20.13,10.87,7.33,.87,14.44,3.6,21.98,1.35,1.18-.35,2.98-.42,3.85,.24,5.08,3.86,10.46,1.99,15.81,1.21,4.08-.59,8.16-1.2,12.25-1.68,4.11-.48,8.24-.84,12.36-1.21,4.11-.37,8.22-.67,12.99-1.06h-.02Zm-95.92-19.57c.43,.12,.86,.24,1.28,.37,.6-1.91,2.08-4.08,1.62-5.7-1.31-4.58-.63-8.52,2.19-12.13,1.86-2.38,3.75-4.81,6.02-6.75,3.59-3.06,7.41-5.88,11.31-8.54,5.07-3.46,10.31-6.66,15.48-9.98-.2-.48-.4-.95-.61-1.43-3.8,1.01-8.05,1.27-11.32,3.2-6.78,3.98-13.09,8.79-19.48,13.41-1.27,.92-2.1,2.48-3.04,3.82-5.14,7.33-4.75,15.47-3.46,23.74h.01Z"/><path class="cls-1" d="M135.07,177.22c-.83,0-1.37-.34-1.68-.62-1.34-1.19-2.81-1.76-4.61-1.76-1.14,0-2.42,.21-4.13,.68l-.26,.07h-.35c-1.19,.01-2.02-.84-2.75-1.6-.19-.2-.38-.4-.55-.54l-1.94-1.61,2.01-1.52c.2-.15,.4-.35,.6-.54,.7-.66,1.57-1.49,2.82-1.64,2.38-.29,4.78-.42,7.1-.53,.21-.01,.42-.02,.63-.03-.02-.26-.05-.53-.07-.79-.2-2.14-.4-4.35-.37-6.58,.03-2.79,.2-5.73,1.2-8.35,.73-1.89,.59-2.39,.53-2.5,0-.02-.22-.39-1.65-.69-1.14-.25-1.89-.99-2.69-1.78-.1-.09-.19-.19-.3-.29l-2.03,.65,.33-2.15-1.84-1.57,2.21-.71,.39-2.31,1.86,1.56c5.71-2.08,9.83-5.83,11.66-10.64,1.97-5.19,1.19-11.18-2.2-16.87-.17-.28-.62-.64-.96-.82-.21,.25-.44,.62-.47,.81-.04,3.44,.09,7.03,.21,10.5,.05,1.43,.1,2.85,.14,4.28,.03,.85,.02,1.71,.01,2.69,0,.51,0,1.05,0,1.65v2.7l-2.58-.79c-.27-.08-.55-.13-.81-.19-.92-.18-2.18-.43-2.74-1.66-3.27-7.18-5.84-14.28-1.5-22.23,.42-.77,.41-2.05,.4-3.41,0-1.03-.01-2.09,.16-3.15,.08-.52,.16-1.05,.23-1.58,.36-2.54,.74-5.17,1.84-7.6,1.03-2.29,2.58-4.25,4.08-6.15,.51-.64,1.01-1.29,1.5-1.94,1.81-2.46,1.54-4.12-.69-6.79-.08,.14-.17,.28-.25,.42-1.14,1.92-2.22,3.73-3.18,5.57-1.02,1.94-2.36,3.93-4.63,3.93h0c-1.83,0-3.35-1.37-4.72-2.84-.41-.44-.88-.84-1.38-1.22,0,.07,0,.14,0,.21-.12,3.2-.23,5.96-.64,8.75-.23,1.59-1.64,2.52-2.77,3.27-.37,.24-.71,.47-.95,.67l-1.8,1.52-1.2-2.03c-.16-.27-.4-.59-.66-.93-.77-1.02-1.73-2.28-1.58-3.82,.27-2.65-.72-3.86-3.65-4.46-5.38-1.11-9.04-5.19-8.53-9.49,.3-2.53,2.11-4.57,3.99-6.52-.79,.41-1.57,.82-2.35,1.23-.57,.3-1.13,.6-1.7,.9-2.39,1.25-4,4.5-4.21,8.49-.24,4.52,1.41,8.76,4.1,10.55,1.41,.94,2.72,1.94,4.24,3.09,.72,.55,1.48,1.12,2.31,1.75l2.68,1.99-3.02,1.42c-.64,.3-1.17,.56-1.63,.78-.87,.42-1.52,.73-2.18,1.01-2.39,1.02-2.95,1.89-2.03,5.64,1.12,4.54,1.39,9.28,1.64,13.85,.09,1.55,.17,3.1,.29,4.64,.09,1.12-.49,1.91-1.15,2.82-.31,.42-.66,.9-1.06,1.54l-2.79,4.47-.88-5.19c-.28-1.66-.54-3.23-.78-4.72-.61-3.7-1.13-6.9-1.78-10.1-.1-.5-.33-1.03-.61-1.59-.54,.41-1.03,.83-1.43,1.27-3.93,4.45-4.29,9.55-1.14,16.52,1.59,3.52,3.27,7.05,5.06,10.78,.75,1.56,1.52,3.17,2.31,4.85l1.16,2.44-2.67,.39c-.73,.11-1.33,.22-1.84,.31-.88,.17-1.58,.3-2.32,.3-.14,0-.28,0-.41-.01-6.12-.44-12.45-.9-18.68-1.58-1.34-.15-2.49-.79-3.49-1.36-.36-.2-.72-.41-1.09-.58l-2.42-1.13,1.77-2.01c.27-.3,.56-.73,.87-1.17,.93-1.34,1.97-2.85,3.71-3.07,1.52-.2,3.13-.29,5.22-.29,1.08,0,2.18,.02,3.34,.05,.41,0,.84,.02,1.26,.02-.06-.24-.12-.49-.18-.73-.58-2.42-1.18-4.93-2.12-7.22-1.91-4.65-1.39-9.27,1.61-14.14,1.5-2.43,3.07-4.87,4.59-7.22,1.93-2.99,3.93-6.08,5.78-9.18,.24-.4,.44-1.35,.47-1.93-7.99-6.21-6.46-14.3-4.21-20.69,1.64-4.65,1.92-6.59-1.69-8.5-.67-.36-1.14-.99-1.41-1.89-.47-1.58-.38-4.48,.51-6.12,.88-1.61,3.67-4.5,6.1-4.5,.29,0,.56,.04,.83,.12,2.32,.68,6.56,2.28,8.99,5.44,1.37,1.78,2.01,1.78,2.32,1.78,.46,0,1.07-.19,1.86-.57,.63-.3,1.25-.6,1.88-.91,3.39-1.64,6.89-3.33,10.57-4.5,1.38-.44,2.79-.66,4.17-.66,3.44,0,6.83,1.33,10.31,4.07,1.56-1.44,8.2-7.59,8.2-7.59l1.22,2.3c.22,.41,.44,.77,.62,1.06,.52,.83,1.23,1.97,.51,3.2-2.18,3.79-1.73,6.76,1.77,11.75,3.12,4.45,2.59,10.07-1.5,15.84q-4.99,7.03,.69,13.66c6.33,7.39,6.8,22.66,.98,31.41-.37,.56-.59,1.37-.81,2.25,.89,.24,1.72,.45,2.46,.45h.17c4.73-.23,9.54-.52,14.19-.8,4.29-.26,8.73-.53,13.11-.75h.19c1.38,0,4.1,.95,4.59,2.86,.38,1.54,.17,4.37-1.5,5.62-1.46,1.09-3.6,1.76-5.75,1.82-1.59,.04-3.17,.05-4.76,.05-1.18,0-2.35,0-3.53-.01-1.17,0-2.34-.01-3.51-.01-2.67,0-5.84,.03-9.06,.24-3.42,.23-6.96,1.25-10.39,2.24l-1.25,.36c-.17,.23-.37,.68-.39,.89,.05,.58,.1,1.23,.15,1.88,.24,3.28,.49,6.67,1.44,9.66,.77,2.41,3.13,9.75-4.52,13.13-.92,.4-1.89,.8-2.77,.8Zm-22.09-94.05l-.35-6.35-2.94,4.23,3.29,2.12Zm15.02-2.9c-.14-.21-.29-.44-.44-.67-.36-.55-.75-1.14-1.17-1.8l-.71-1.11,3.1-4.51,5.48,1.61,.19-1.02h-.78c-1.3,0-2.66-.07-3.69-1.02-2.3-2.12-4.71-3.1-7.58-3.1s-5.68,.91-8.71,1.96l2.01,1.59c1.5,1.19,2.52,2.79,3.42,4.21,.89,1.4,1.73,2.72,2.48,2.72,.25,0,.83-.1,1.86-.81l1.27-.87s2.83,2.46,3.27,2.83Zm-15.67-8.78l-.02-.41-.35,.12,.37,.28Z"/><path class="cls-1" d="M129.04,144.35c14.67-4.65,19.07-18.37,11.66-30.81-.57-.97-2.12-2.02-3.07-1.89-.83,.11-2.07,1.8-2.08,2.8-.07,4.98,.21,9.96,.35,14.94,.04,1.29,0,2.58,0,4.28-.98-.3-2.11-.32-2.31-.76-3-6.59-5.56-13.14-1.57-20.44,1.07-1.96,.4-4.81,.78-7.21,.46-2.93,.72-6.02,1.92-8.66,1.27-2.81,3.49-5.2,5.36-7.73,3.4-4.62,.78-7.78-2.65-11.33-1.76,3.03-3.41,5.66-4.85,8.41-1.91,3.65-3.26,3.74-6.12,.66-1.41-1.52-3.32-2.57-4.68-3.59-.25,4.83-.24,8.66-.79,12.4-.15,1.03-1.97,1.81-3.03,2.7-.7-1.18-2.08-2.43-1.97-3.53,.41-4.1-1.8-5.91-5.23-6.62-4.15-.86-7.36-3.87-6.95-7.29,.36-3.01,4.04-5.62,6.25-8.41l2.16,1.63c-1.64,2.36-3.29,4.73-5.35,7.7l8.33,5.37-.74-13.22c3.82,3.02,4.38,10.13,10.13,6.2,1.8,1.56,3.34,2.94,5,4.15,.09,.06,1.91-1.61,1.76-1.98-.7-1.64-1.82-3.11-3.27-5.4l1.53-2.23,6.22,1.83,1.01-5.51c-2.57-.21-4.63,.26-5.51-.55-6.53-6.02-13.4-3.26-20.13-.92-3.59,1.25-6.97,3.17-10.36,4.94-6.96,3.64-7.1,17.95-.3,22.48,2.01,1.34,3.9,2.87,6.47,4.78-1.8,.85-2.75,1.34-3.74,1.76-3.76,1.61-4.2,3.85-3.19,7.96,1.45,5.86,1.41,12.09,1.88,18.17,.05,.62-.76,1.31-1.91,3.15-.97-5.75-1.65-10.34-2.57-14.88-.3-1.48-1.23-2.83-1.87-4.24-1.22,.99-2.59,1.83-3.62,2.99-5.14,5.82-4.39,12.2-1.47,18.67,2.26,5.01,4.68,9.96,7.38,15.66-2.1,.31-3.14,.65-4.14,.58-6.21-.45-12.42-.9-18.6-1.57-1.36-.15-2.64-1.15-3.95-1.76,1.1-1.25,2.09-3.42,3.33-3.58,3.7-.48,7.51-.17,12.14-.17-.93-3.4-1.58-7.23-3.02-10.74-1.87-4.54-.9-8.5,1.46-12.33,3.4-5.51,7.06-10.86,10.39-16.42,.68-1.14,1.05-3.76,.46-4.18-7.06-5.14-6.5-11.79-4.03-18.81,1.51-4.29,2.66-8.13-2.64-10.93-.81-.43-.85-3.87-.08-5.28,.87-1.6,3.44-3.76,4.61-3.42,2.91,.85,6.18,2.42,7.96,4.74,2.12,2.76,3.76,3.17,6.63,1.8,4-1.91,7.99-3.97,12.19-5.3,5.42-1.72,10.03,.7,13.95,4.17,2.55-2.37,4.91-4.55,7.58-7.02,.66,1.25,1.35,2.03,1.18,2.32-2.97,5.17-1.43,9.22,1.86,13.91,2.95,4.2,1.58,9.2-1.49,13.53-5.55,7.82-5.43,8.85,.8,16.12,5.81,6.79,6.14,21.02,.83,29-.9,1.35-1.07,3.19-1.58,4.8,1.72,.36,3.46,1.09,5.16,1.01,9.1-.43,18.19-1.1,27.3-1.55,.94-.05,2.58,.7,2.75,1.36,.27,1.09,0,2.95-.76,3.52-1.22,.91-3.03,1.38-4.6,1.42-6.98,.17-13.98-.19-20.93,.27-4.16,.28-8.28,1.6-12.33,2.75-.76,.22-1.63,1.9-1.56,2.83,.33,4.05,.46,8.24,1.68,12.05,1.68,5.24,.97,8.75-3.42,10.69-.73,.32-1.95,.84-2.29,.53-3.25-2.9-6.81-2.57-10.62-1.53-.51,.14-1.4-1.09-2.11-1.68,.82-.62,1.58-1.68,2.46-1.79,3.2-.39,6.43-.47,9.65-.67-.22-3.08-.65-6.15-.61-9.23,.03-2.57,.17-5.31,1.07-7.66,1.21-3.15,1.19-5.06-2.57-5.86-.87-.19-1.56-1.23-2.96-2.41v.06Z"/><path class="cls-1" d="M290.69,154.18c-2.32,0-4.22-1.33-5.62-3.97-.78-1.46-.67-3.11-.58-4.56,.03-.54,.07-1.06,.05-1.51l-.08-2.4,2.38,.36c1.11,.17,2.22,.33,3.47,.51-.24-2.31-.47-4.65-.71-7.01-.79-7.87-1.61-16-2.61-24.08-.81-6.52-1.89-13.12-2.94-19.51-.37-2.28-.75-4.55-1.11-6.83-.86-5.38,1.09-9.42,5.62-11.68,1.75-.87,3.54-1.86,5.27-2.82,4.77-2.65,9.71-5.38,15.05-6.38,1.07-.2,2.23-.3,3.43-.3,3.73,0,7.56,.95,11.27,1.87,1.66,.41,3.22,.8,4.79,1.11,1.97,.39,3.79,1.19,5.55,1.95,.32,.14,.65,.28,.97,.42l3.05-3.16,.82,3.61c.17,.75,.36,1.49,.54,2.24,.43,1.74,.88,3.53,1.12,5.38,.33,2.58,.69,5.15,1.05,7.73,1.06,7.69,2.16,15.64,2.62,23.55,.35,5.95,.06,11.99-.22,17.83-.14,2.86-.28,5.83-.34,8.72-.03,1.58,0,3.2,.01,4.77,.03,2.35,.07,4.78-.08,7.19-.1,1.58-.84,4.81-2.98,5.8-.41,.19-.86,.28-1.35,.28-1.22,0-2.42-.6-3.58-1.19-.34-.17-.67-.34-.97-.47-1-.44-1.97-.95-2.91-1.44-1.68-.88-3.28-1.72-4.88-2.08-3.71-.83-6.93-1.24-9.87-1.24-4.19,0-7.97,.82-11.55,2.5-.65,.31-1.4,.46-2.22,.46-1.5,0-3.07-.5-4.73-1.02-.19-.06-.39-.12-.58-.18v2.56l-.95,.59c-1.74,1.08-3.91,2.42-6.18,2.42Zm7.52-29.31c0,.92-.02,1.85-.04,2.77-.04,2.09-.09,4.07,.09,6.03,.23,2.5,.5,5.34,1.56,7.46,.29,.49,1.8,1.35,2.49,1.42,5.45-2.31,11.8-4.76,18.4-4.76,3.59,0,6.97,.69,10.32,2.11,.82,.35,1.88,.44,3,.54l.32,.03c.23,.02,.44,.03,.64,.03,.67,0,.88-.13,.9-.14,0,0,.18-.38-.07-1.6-.53-2.64-1.06-5.71-.58-8.61,1.93-11.87-.16-23.74-2.18-35.23-.7-3.96-1.42-8.05-1.97-12.11-.67-4.98-4.44-8.15-11.51-9.72-1.91-.42-3.86-.64-5.77-.64-5.41,0-10.86,1.66-16.66,5.09-2.83,1.67-3.42,3.25-2.64,7.01,1.85,8.9,2.88,17.72,3.65,25.17,.36,3.53,.27,7.09,.18,10.54-.04,1.53-.08,3.07-.08,4.6h-.04Z"/><path class="cls-1" d="M292.56,144.96c-1.13-10.8-2.17-22.28-3.59-33.7-1.1-8.84-2.66-17.61-4.06-26.41-.68-4.26,.64-7.63,4.54-9.58,6.52-3.25,12.87-7.73,19.79-9.02,5.88-1.09,12.49,1.44,18.72,2.68,2.55,.51,4.95,1.82,7.41,2.77l1.42-1.47c.56,2.48,1.31,4.93,1.63,7.43,1.34,10.37,3.05,20.72,3.65,31.14,.51,8.75-.37,17.59-.56,26.39-.08,3.96,.17,7.94-.06,11.89-.09,1.47-.78,3.62-1.82,4.1-1,.46-2.84-.77-4.26-1.39-2.73-1.2-5.31-3-8.15-3.64-7.63-1.72-15.17-2.14-22.71,1.4-2.04,.96-5.39-.87-8.69-1.54v4.05c-3.22,1.99-6.49,3.88-8.99-.79-.74-1.39-.23-3.45-.29-5.2,1.8,.27,3.6,.53,6,.88h.02Zm3.69-20.09h-.04c0,3-.21,6.02,.06,8.99,.26,2.78,.55,5.75,1.76,8.17,.68,1.36,3.74,2.93,4.89,2.44,8.88-3.78,17.68-6.8,27.32-2.72,1.2,.51,2.6,.6,3.92,.72,3,.28,4.26-.86,3.61-4.09-.52-2.58-.99-5.35-.57-7.89,2.66-16.34-1.98-32.05-4.14-47.93-.93-6.87-6.77-10.01-13.06-11.4-8.55-1.89-16.42,.28-23.88,4.68-3.79,2.24-4.48,4.83-3.58,9.14,1.71,8.22,2.76,16.61,3.62,24.97,.5,4.93,.09,9.95,.09,14.93h0Z"/><path class="cls-1" d="M292.82,164.59c-2,0-3.86-.52-5.09-1.43-3.02-2.24-5.44-3.63-8.2-3.63-.77,0-1.54,.11-2.36,.33-.29,.08-.62,.12-.97,.12-.98,0-1.88-.35-2.34-.56-3.42-1.65-7.16-2.44-11.46-2.44-4,0-8.06,.66-12.57,1.45-.19,.03-.4,.05-.63,.05-1.75,0-5.28-1.45-5.56-3.71-.75-6.22-1.12-12.43-1.51-19.31-.16-2.83-.25-5.71-.33-8.49-.16-5.03-.32-10.23-.89-15.26-.94-8.39-2.47-16.46-4.37-26.15-.75-3.82,1.94-12.38,6.13-14.75,6.06-3.4,12.3-5.13,18.56-5.13,3.75,0,7.58,.62,11.37,1.85,4.73,1.53,10.02,7.96,9.44,13.28l-.31,2.91-2.15-1.12h-1.75l.09-.82c-.24-.11-.48-.22-.71-.32-1.36-.61-2.65-1.19-3.73-2.17-3.6-3.27-7.52-4.79-12.35-4.79-4.11,0-8.38,1.13-12.01,2.24-2.4,.74-3.81,2-2.89,5.75,3.39,13.72,4.56,25.22,3.65,36.18-.31,3.79-.06,7.59,.21,11.61,.14,2.16,.29,4.4,.34,6.62,.09,4.06,1.51,4.06,2.55,4.06,.27,0,.57-.02,.88-.06l1.47-.2,.62,1.34c1.05,2.26,1.22,4.08,.53,5.56-.26,.57-.62,1.03-1.05,1.41,1.66,.56,3.25,1.03,4.82,1.03,1.14,0,2.21-.25,3.29-.76,1.18-.56,2.64-.84,4.33-.84,1.1,0,2.31,.12,3.59,.35,1.42,.26,2.89,.44,4.45,.63,4.58,.57,9.32,1.16,12.87,3.75,1.75,1.28,3.41,1.9,5.1,1.9,2.31,0,4.49-1.13,6.8-2.33,1.27-.66,2.58-1.34,3.94-1.83,4.63-1.66,9.11-2.47,13.7-2.47,6.11,0,12.31,1.47,18.95,4.48l1.51,.68-.39,1.61c-1.03,4.24-3.72,5.13-5.8,5.13-.82,0-1.73-.13-2.85-.41-1.06-.26-2.12-.51-3.18-.76-2.64-.62-5.37-1.25-8.01-2.13-1.34-.45-2.63-.66-3.94-.66-2.21,0-4.49,.64-6.97,1.97-.67,.35-1.33,.71-1.99,1.07-3.12,1.69-6.34,3.44-9.77,4.67-.89,.32-1.95,.49-3.08,.49Z"/><path class="cls-1" d="M280.08,80.6c-2.14-1.11-3.98-1.65-5.26-2.8-8.08-7.34-17.17-5.75-26.28-2.97-3.78,1.16-5.34,3.71-4.25,8.14,2.88,11.64,4.6,23.41,3.6,35.54-.5,6.09,.41,12.28,.55,18.44,.09,3.92,1.37,6.52,5.7,5.93,2.42,5.24-1.43,5.4-4.77,6.45,5.13,.85,9.51,4.37,15.03,1.76,1.89-.89,4.55-.72,6.72-.33,5.62,1.02,12.26,.93,16.49,4.03,7.28,5.34,12.41-.08,17.7-1.98,10.94-3.93,20.89-2.71,31.15,1.95-.96,3.95-3.43,3.95-6.22,3.25-3.69-.92-7.45-1.65-11.05-2.85-4.47-1.49-8.48-.7-12.48,1.44-3.77,2.01-7.5,4.19-11.49,5.62-1.84,.66-4.8,.44-6.3-.67-3.77-2.8-7.4-4.94-12.27-3.63-.58,.16-1.36-.05-1.94-.32-8.26-3.98-16.7-2.65-25.22-1.15-1.19,.21-3.75-1.1-3.85-1.93-.76-6.36-1.14-12.78-1.5-19.18-.44-7.95-.34-15.96-1.23-23.86-.99-8.82-2.68-17.58-4.39-26.31-.63-3.21,1.96-10.82,5.15-12.62,8.99-5.05,18.44-6.32,28.33-3.12,4.06,1.31,8.52,7.04,8.07,11.17h0Z"/><path class="cls-1" d="M111.59,175.24c-2.86,0-5.06-.1-7.14-.34-2.74-.31-4.27-5.15-4.3-7.06-.13-10.97,.04-19.81,.52-27.84,.12-2.02,1.69-3.56,3.07-4.92,.53-.52,1.02-1.01,1.4-1.47l2.53-3.14,1.47,6c.3,1.22,.59,2.44,.9,3.66,.18,.73,.31,1.46,.44,2.16,.25,1.42,.49,2.76,1.07,3.66,.22,.35,.45,.66,.66,.96,1.61,2.24,2.66,4.4-.91,8.13-1.83,1.9-1.73,6.89-1.63,10.66,.77,.32,2.19,.72,3.12,.99,.92,.26,1.88,.54,2.66,.81,1.08,.38,2.22,.72,3.33,1.04,.51,.15,1.01,.3,1.52,.45l1.61,.49-.49,3.94-1.98-.12v1.87c-1.3,0-2.59,.02-3.89,.04-1.32,.02-2.64,.04-3.96,.04Z"/><path class="cls-1" d="M119.44,173.15c-4.93,0-9.9,.31-14.77-.24-1.06-.12-2.5-3.31-2.52-5.1-.11-9.23-.04-18.49,.52-27.7,.11-1.83,2.62-3.5,4.03-5.25,.47,1.91,.93,3.83,1.41,5.74,.54,2.17,.62,4.64,1.76,6.42,1.57,2.45,3.2,3.27-.01,6.62-2.56,2.67-2.28,8.54-2.16,12.96,.02,.99,4.59,1.89,7.09,2.77,1.62,.57,3.29,1.02,4.93,1.52l-.28,2.27h0Z"/><path class="cls-1" d="M252.75,140.05l3.04-.17c1.29-.07,2.5-.16,3.66-.25,2.27-.17,4.42-.32,6.54-.32h.52c5.78,.07,10.55,.31,15,.74,1.55,.16,2.51,1.43,3.28,2.45,.25,.33,.48,.63,.67,.84l1.71,1.79-2.11,1.3c-.3,.18-.65,.46-1.02,.76-1.04,.82-2.22,1.76-3.68,1.76-.13,0-.26,0-.39-.02-2.58-.3-5.17-.76-7.66-1.21-2.67-.48-5.42-.98-8.12-1.25h-.1c-.59,0-1.56,.46-2.59,.95-.15,.07-.3,.15-.46,.22l.5,1.01h-2.89l-1.33,.51-4.56-9.08Z"/><path class="cls-1" d="M258.3,146.63l-2.39-4.76c4.03-.23,7.31-.6,10.58-.56,4.95,.06,9.91,.25,14.83,.73,.98,.1,1.81,1.75,2.7,2.68-1.27,.78-2.64,2.35-3.81,2.21-5.3-.61-10.52-1.93-15.82-2.47-1.71-.18-3.58,1.22-6.11,2.17h.02Z"/><path class="cls-1" d="M303.11,269.53h-1.15l-.1-.24c-.72-.13-1.38-.25-1.99-.37-1.67-.3-2.99-.55-4.32-.85-.5-.11-1.01-.22-1.53-.32-2.02-.41-4.1-.84-6.02-1.82-1.05-.54-1.51-1.71-1.48-3.78,.04-3.03,.98-3.84,1.69-4.18,2.47-1.17,5.52-2.61,8.48-2.61,.38,0,.75,.02,1.1,.07,5.45,.7,6.09,4.85,6.55,7.88,.19,1.25,.37,2.42,.8,3.44l1.43,3.43-3.45-.66Z"/><path class="cls-1" d="M303.3,267.53c-3.31-.63-5.32-.95-7.31-1.4-2.4-.54-4.94-.88-7.08-1.97-.6-.31-.49-4.06,.17-4.38,2.64-1.25,5.74-2.71,8.45-2.36,5.69,.73,4.06,6.03,5.76,10.11h0Z"/><path class="cls-1" d="M249.27,360.7c-.32,0-.64-.02-.95-.07-3.4-.51-6.49-2.56-9.21-4.38l-.11-.08c-.94-.62-1.34-1.86-1.21-3.76,.13-1.93,.69-3.11,1.72-3.6,1.08-.54,2.49-.86,3.86-.86,.98,0,1.88,.16,2.66,.46,2.54,.97,4.97,2.23,7.32,3.45,.94,.49,1.88,.97,2.82,1.44l.47,.23,1.25,1.83-1.61,1.27,.55,1.75c-.7,.22-1.43,.52-2.2,.85-1.71,.71-3.48,1.45-5.34,1.45Z"/><path class="cls-1" d="M256.22,356.49c-2.55,.8-5.23,2.51-7.6,2.16-3-.45-5.88-2.39-8.51-4.14-.59-.39-.37-3.59,.27-3.9,1.38-.69,3.48-.89,4.92-.33,3.44,1.31,6.67,3.18,9.98,4.82,.32,.47,.63,.93,.95,1.4h-.01Z"/><path class="cls-1" d="M126.3,152.13c-.7-.09-1.36-.15-1.96-.21-1.88-.18-3.51-.34-4.95-1.16-1.44-.84-1.98-2.85-2.15-3.67-.29-1.45-.14-2.58,.46-3.37,1.95-2.57,4.48-4.61,6.69-6.33,.39-.3,.78-.52,1.17-.73l4.62-4.62,.08,4.71c.03,1.84-1.39,2.71-2.32,3.19l-3.46,3.46,.74,.92c.76,.96,3.22,4.07,3.22,4.07l3.14,.47-1.54,1.55,2.02,2.57-3.98-.6-.88,.88-.91-1.14Z"/><path class="cls-1" d="M127.39,150.26c-3.24-.49-5.42-.34-7-1.24-.91-.53-1.64-3.36-1.08-4.1,1.73-2.28,4.03-4.18,6.32-5.95,1.09-.84,2.67-1.05,2.65-2.18-2.15,2.15-4.31,4.31-6.46,6.46l1.85,2.32c.96,1.21,1.92,2.43,3.71,4.7h0Z"/><path class="cls-1" d="M257.15,108.71c-.42-.29-1-.62-1.58-.94-1.85-1.03-3.76-2.09-3.84-4.05-.09-2.1,.75-4.03,1.56-5.89,.3-.69,.58-1.33,.8-1.96l.64-1.81,4.18,1.29,.8,.8,.12,.63,1.71,9.86-3.01,3.03-1.38-.97Z"/><path class="cls-1" d="M257.86,97.13l1.53,8.84-1.09,1.1c-1.62-1.14-4.52-2.22-4.57-3.43-.1-2.33,1.41-4.73,2.25-7.1,.62,.19,1.25,.39,1.87,.58h.01Z"/><path class="cls-1" d="M278.72,109.37c-.42,0-.84-.11-1.19-.31-2.38-1.35-3.96-2.9-4.69-4.59-.71-1.65,.5-3.09,1.68-4.49,.32-.38,.66-.78,.87-1.09l1.39-2.02,1.7,1.77c1.51,1.57,3.02,3.14,5.2,5.42l.55,.58v2.01l-1.06,.57c-.57,.3-1.12,.65-1.6,.95-1.1,.69-1.89,1.2-2.84,1.2Z"/><path class="cls-1" d="M282.23,105.45c-1.81,.96-3.18,2.17-3.7,1.87-1.53-.87-3.2-2.13-3.86-3.65-.32-.74,1.5-2.4,2.36-3.65,1.51,1.57,3.02,3.14,5.2,5.42h0Z"/><path class="cls-1" d="M279.02,122.56c-2.55,0-4.32-1.52-5.56-2.85-1.18-1.23-.48-2.86,.14-4.29,.16-.36,.32-.73,.42-1.04l.69-2.16s7.37,3.43,8.7,4.05l2.25-1.7v2.75l1.85,.86-1.85,1.4v2.15l-1.8-.83c-1.72,1.12-3.31,1.66-4.84,1.66Z"/><path class="cls-1" d="M283.66,118.59c-4.46,3.38-6.81,1.81-8.75-.25-.4-.42,.63-2.19,1-3.34,2.23,1.04,4.47,2.07,7.75,3.6h0Z"/><path class="cls-1" d="M257.98,123.24c-.65-.66-1.31-1.22-1.89-1.72-1.4-1.2-2.62-2.24-2.66-3.85-.05-1.65,.8-3.08,1.55-4.34,.27-.45,.52-.87,.7-1.26l.78-1.61,4.94,1.73v14.5l-3.42-3.45Z"/><path class="cls-1" d="M259.4,113.61v8.22c-2.03-2.05-3.94-3.1-3.97-4.21-.05-1.54,1.31-3.12,2.06-4.68l1.91,.67Z"/><path class="cls-1" d="M263.63,90.38c-.27,0-.53-.03-.78-.08-1.37-.3-2.32-1.32-3.09-2.14-.24-.26-.47-.51-.72-.73l-1.51-1.34,1.35-1.5c.26-.29,.55-.67,.84-1.05,1.07-1.39,1.92-2.49,3.26-2.49h.33l.38,.12c1.39,.48,2.43,1.4,3.74,2.56,.53,.47,1.14,1,1.85,1.59l2.81,2.29-3.44,1.16c-.77,.26-1.43,.54-2.01,.78-1.08,.45-2.02,.84-3.02,.84Z"/><path class="cls-1" d="M268.03,86.86c-2.4,.81-3.7,1.71-4.75,1.48-1.1-.24-1.95-1.57-2.91-2.42,.92-1.02,2.18-3.04,2.68-2.87,1.47,.51,2.63,1.9,4.98,3.81Z"/><path class="cls-1" d="M256.58,89.92c-3.59-1.11-5.79-2.17-6.41-4.32-.68-2.36,1.1-4.67,3.13-7.03l2.41-2.79,4.4,15.23-3.54-1.09Z"/><path class="cls-1" d="M257.17,88.01c-6.21-1.92-6.54-3.28-2.35-8.13,.79,2.73,1.45,5.01,2.35,8.13Z"/><path class="cls-1" d="M265.68,107.87c-.28-.09-.63-.17-.99-.25-1.51-.35-3.22-.75-3.35-2.49-.11-1.5,.1-2.93,.31-4.31,.07-.46,.14-.93,.19-1.39l.24-2,6.6,.81-.53,10.39-2.46-.76Z"/><path class="cls-1" d="M266.58,100c-.1,1.99-.21,3.97-.31,5.96-1.03-.32-2.91-.58-2.94-.98-.13-1.75,.28-3.54,.49-5.32l2.76,.34Z"/><path class="cls-1" d="M262.68,133.17c-.32,0-.64-.06-.93-.19-1.22-.51-2.2-1.35-3.07-2.1-.3-.26-.6-.52-.91-.76l-1.75-1.36,1.53-1.6c.23-.24,.49-.56,.75-.88,1.02-1.25,1.83-2.24,3.13-2.24h.34l.39,.13c1.29,.45,2.25,1.33,3.37,2.35,.42,.39,.89,.82,1.43,1.27l2.15,1.8-2.4,1.45c-.48,.29-.94,.62-1.34,.9-.96,.68-1.71,1.22-2.7,1.22Z"/><path class="cls-1" d="M265.68,129.33c-1.56,.94-2.63,2.03-3.15,1.81-1.31-.55-2.37-1.69-3.53-2.59,.85-.89,2.02-2.66,2.5-2.49,1.32,.46,2.35,1.74,4.18,3.27Z"/><path class="cls-1" d="M273.41,135.33c-.22,0-.45-.03-.66-.09-1.54-.42-3.48-1.66-4.36-3.46-.71-1.46,.26-2.72,1.29-4.06,.37-.47,.74-.97,1.09-1.48l1.52-2.3,6.49,8.18-1.8,1.21c-.22,.15-.45,.35-.68,.55-.8,.68-1.71,1.46-2.89,1.46Z"/><path class="cls-1" d="M272.44,127.34c1.51,1.9,2.47,3.11,3.43,4.32-.88,.59-1.93,1.83-2.6,1.65-1.2-.33-2.55-1.31-3.08-2.4-.26-.53,1.14-1.89,2.25-3.57Z"/><path class="cls-1" d="M269.21,88.21c.07-.31,.13-.7,.18-1.1,.25-1.66,.5-3.38,2.2-3.72,.46-.09,.91-.13,1.41-.13,.91,0,1.78,.14,2.62,.27,.41,.06,.82,.13,1.22,.17l1.79,.19v5.9l-10.05,1.15,.62-2.75Z"/><path class="cls-1" d="M276.64,88.02c-1.83,.21-3.65,.42-5.48,.63,.26-1.15,.36-3.2,.82-3.29,1.48-.28,3.09,.17,4.66,.34v2.32Z"/><path class="cls-1" d="M166.72,371.19c-2.55-.77-4.83-1.61-4.99-3.62-.35-4.42-2.86-5.84-7.64-8.17l-.66-.32c-4.44-2.18-8.11-5.74-11.65-9.18-.51-.49-1.02-.99-1.53-1.47-1.3-1.24-1.41-3.12-1.52-4.79-.04-.59-.07-1.15-.15-1.6l-.5-2.78,2.79,.46c.49,.08,.99,.16,1.48,.23,1.16,.17,2.35,.36,3.54,.62,.71,.16,1.4,.36,2.08,.57,.11-.5,.2-1.03,.14-1.23-1.55-3.59-3.37-7.19-5.12-10.66-.65-1.29-1.31-2.58-1.95-3.88-.94-1.89-1.88-3.78-2.83-5.67-2.37-4.73-4.82-9.63-7.09-14.52-.59-1.27-.99-1.51-1.04-1.54,0,.02-.48,.13-1.65,1.38-1.06,1.12-2.13,2.23-3.2,3.34-2.68,2.77-5.45,5.63-7.84,8.64-5.28,6.65-10.83,14.08-17.46,23.37-.45,.63-.74,1.5-1.04,2.63l8.81-4.35,3,3.85-.78,1.2c-.23,.35-.44,.73-.65,1.1-.56,.99-1.19,2.11-2.18,2.98-3.88,3.48-8.51,7.55-13.38,11.33-1.16,.9-2.82,.99-3.49,.99-.96,0-2.28-.18-3.17-1.02-3.13-2.93-5.15-20.45-2.06-25.09,.46-.69,1-1.22,1.69-1.9,.34-.33,.73-.71,1.18-1.19l2.22-2.32,1.05,2.87,.61,1.15-.13,.14,1.2,3.31c.38-.3,.73-.6,.8-.77,3.77-10.82,11.4-18.64,18.78-26.21,1.65-1.69,3.36-3.44,4.99-5.19,2.01-2.16,3.91-4.55,5.75-6.86,1.3-1.63,2.64-3.32,4.04-4.95,.8-.93,1.79-1.59,2.67-2.17,.33-.22,.66-.44,.98-.67l1.64-1.22,1.18,1.67c.23,.33,.49,.65,.75,.97,.64,.8,1.36,1.7,1.83,2.79,.78,1.82,1.49,3.69,2.18,5.5,.69,1.82,1.41,3.7,2.19,5.5l.65,1.53c2.66,6.22,5.41,12.66,8.35,18.84,2,4.2,4.24,8.39,6.41,12.45,.9,1.69,1.8,3.38,2.69,5.07,0,0,.06,.12,.07,.14,6.02,.54,6.45,5.28,6.71,8.16,.1,1.07,.19,2.09,.46,2.88,.64,1.87,1.37,3.77,2.07,5.6,.86,2.25,1.75,4.58,2.51,6.93,.43,1.3-.36,2.78-1.1,3.8-.32,.44-.99,1.36-2.14,1.37h-.28l-.28-.08Z"/><path class="cls-1" d="M89.31,332.29c.95,2.61,1.59,4.39,2.57,7.09,1.53-1.38,3.19-2.17,3.62-3.39,4.46-12.8,14.54-21.24,23.35-30.7,3.49-3.76,6.49-7.96,9.84-11.87,.89-1.04,2.2-1.71,3.32-2.54,.8,1.13,1.84,2.16,2.37,3.4,1.55,3.62,2.81,7.38,4.37,11,2.93,6.85,5.84,13.72,9.04,20.44,2.84,5.96,6.07,11.74,9.14,17.59,.23,.44,.58,1.15,.88,1.16,7,.14,4.95,5.96,6.24,9.74,1.44,4.2,3.2,8.29,4.57,12.5,.22,.67-1.14,2.61-1.35,2.55-1.3-.39-3.48-1.1-3.54-1.85-.48-6.04-4.64-7.79-9.41-10.13-4.78-2.35-8.74-6.53-12.68-10.3-1.07-1.02-.76-3.49-1.08-5.29,1.64,.27,3.3,.47,4.91,.83,1.36,.3,2.68,.8,4.01,1.2,.2-1.55,1.01-3.36,.48-4.59-2.15-4.98-4.71-9.78-7.12-14.64-3.32-6.71-6.75-13.36-9.89-20.14-1.79-3.86-3.72-3.07-5.96-.69-3.76,4-7.75,7.82-11.15,12.11-6.06,7.64-11.85,15.51-17.52,23.45-1.21,1.69-1.42,4.09-2.54,7.57,4.8-2.37,8.08-3.99,11.36-5.61l1.12,1.44c-.81,1.24-1.41,2.73-2.48,3.68-4.32,3.87-8.7,7.69-13.28,11.25-.9,.7-3.33,.79-4.06,.1-2.81-2.63-3.92-19.3-1.77-22.53,.53-.8,1.32-1.42,2.65-2.81v-.02Z"/><path class="cls-1" d="M162.5,281.66c-1.31,0-2.85-.42-4.69-1.27l-2.14-.99s5.94-8.7,7.01-10.27c-1.32,.13-2.51,.25-3.71,.39-.43,.05-.84,.08-1.23,.08-1.75,0-3.08-.54-3.95-1.59-.96-1.16-1.22-2.75-.81-4.85,.18-.96,.32-1.93,.46-2.96,.25-1.81,.51-3.69,1.07-5.53,.45-1.46,1.45-2.59,2.34-3.58,.32-.36,.64-.72,.92-1.09l.84-1.1,4.42,1.32-.6,9.61c2.02-.98,3.65-1.77,5.01-2.76,.11-.5,.06-1.49-.12-1.83-2.98-4.66-1.44-9.06,.24-12.38,.66-1.31,2.01-1.94,3.09-2.44,.37-.17,.72-.34,.98-.5l2.48-1.5,.53,2.85c.06,.33,.14,.66,.22,.99,.22,.92,.47,1.95,.41,3.06-.05,.88-.3,1.69-.51,2.4-.19,.64-.37,1.24-.34,1.64,.09,1.06,.39,2.11,.83,2.98,.42-.12,.89-.29,1.1-.45,.75-1.21,1.03-2.76,.85-3.21-1.38-3.36-3.47-8.43,.22-13.26,.9-1.17,2.19-1.83,3.33-2.41,.45-.23,.87-.44,1.22-.66l3.37-2.1-.31,3.96c-.03,.4-.01,.9,0,1.42,.06,1.53,.12,3.27-.99,4.55-1.74,2.01-1.88,3.75-.45,5.64,.37,.49,1.44,.91,2.39,1.29h.02c.49-.87,.93-1.7,1.08-2.46,.33-1.7,.54-3.4,.76-5.2,.26-2.13,.53-4.33,1.02-6.5,.51-2.24,3.51-4.76,4.8-4.76h.54l.51,.28c.24,.14,.5,.29,.76,.44,2.43,1.39,5.19,2.97,5.43,5.45,.32,3.29,.83,5.01,3.05,6.53,1.35,.93,1.69,2.51,2.08,4.35,.17,.78,.35,1.65,.63,2.57l.36,1.17-1.83,1.79-1.25-.51s-5.93-2.57-7.27-3.15c.15,.24,.31,.45,.48,.64,3.44,3.92,3.46,7.62,.06,11-.72,.71-1.4,1.66-1.96,2.72-1.25,2.36-2.91,4.77-5.69,4.77h0c-1.41,0-2.82-.61-4.58-2.02l.78,1.12-1.34,1.18c-1.38,1.21-2.81,1.83-4.28,1.83-1.38,0-3.43-.57-5.35-3.29-.6-.85-1.04-1.76-1.44-2.75l-.79,2.13,10.36,8.37-4.39,.73c-1.01,.17-1.81,.33-2.48,.47-1.17,.24-2.01,.41-2.91,.41-.09,0-.19,0-.28,0-.45-.02-.88-.03-1.31-.03-2.74,0-3.82,.5-4.38,3.3-.51,2.52-2.21,3.97-4.67,3.97Z"/><path class="cls-1" d="M204.73,248.44c-4.59-1.99-7.81-3.39-12.28-5.32,1.28,2.47,1.91,4.51,3.2,5.97,2.51,2.86,3.02,5.4,.15,8.26-.93,.92-1.71,2.05-2.32,3.21-2.39,4.5-4.28,4.84-8.17,1.33-1.47-1.32-2.88-2.71-4.4-3.97-.26-.22-.92,.04-2.66,.19,1.83,2.62,3.27,4.67,4.85,6.93-2.83,2.5-5.1,1.1-6.67-1.12-1.28-1.81-1.78-4.16-3.06-7.36-1.35,3.62-2.19,5.89-3.18,8.55,2.05,1.66,4.48,3.62,8.02,6.48-2.82,.47-4.05,.89-5.26,.84-3.73-.15-6.75,.01-7.73,4.87-.64,3.16-3.54,2.68-6.56,1.28,2.6-3.81,5.02-7.37,8.1-11.87-3.3,.34-5.66,.55-8.01,.82-3.07,.36-4.42-.8-3.8-4,.53-2.76,.67-5.62,1.48-8.28,.46-1.51,1.93-2.71,2.94-4.04l1.57,.47c-.21,3.35-.42,6.69-.72,11.48,3.69-1.9,6.45-2.97,8.7-4.69,.74-.57,.77-3.24,.09-4.29-2.35-3.67-1.34-7.09,.34-10.4,.51-1.01,2.19-1.44,3.33-2.13,.22,1.19,.67,2.4,.6,3.57-.09,1.47-.97,2.94-.84,4.35,.15,1.68,.74,3.5,1.72,4.83,.28,.37,3.2-.34,3.81-1.28,.92-1.41,1.66-3.78,1.09-5.17-1.6-3.89-2.84-7.62-.04-11.29,.91-1.19,2.66-1.74,4.02-2.59-.13,1.64,.37,3.82-.5,4.82-2.4,2.77-2.5,5.57-.54,8.16,1.02,1.35,3.23,1.8,4.9,2.65,.74-1.55,1.83-3.03,2.14-4.66,.75-3.85,.91-7.81,1.77-11.63,.29-1.28,2.6-3.36,2.89-3.19,1.99,1.17,5.05,2.7,5.21,4.36,.33,3.41,.91,5.93,3.91,7.99,1.06,.73,1.06,3,1.93,5.85l-.02,.02Z"/><path class="cls-1" d="M127.14,292.18c-.68-.62-1.35-1.15-1.99-1.66-1.38-1.1-2.69-2.13-3.43-3.63-1.29-2.61-1.81-3.13-3.11-3.13-.3,0-.64,.03-1.01,.1-.38,.07-.75,.1-1.09,.1-1.28,0-2.35-.5-3.03-1.41-.85-1.15-.97-2.78-.34-4.83,.3-.99,.34-2.14,.37-3.46-1.23,.19-2.23,.3-3.08,.3-4.43,0-5.07-3.2-6.04-8.04-.58-2.88-1.5-3.34-3.48-3.34-.17,0-.35,0-.53,.02-.76,.04-1.55,.07-2.34,.07-2.95,0-6.15-.31-9.51-.93-1.65-.3-2.88-1.47-3.96-2.51-.4-.38-.78-.74-1.14-1.02l-1.85-1.44,1.71-1.6c.34-.32,.71-.76,1.11-1.23,1.2-1.41,2.44-2.86,4.24-2.86h.14c2.08,.09,3.97,.87,6.15,1.76,.64,.26,1.29,.53,1.98,.79,.08-.06,.17-.13,.25-.2,1.76-1.48,3.44-2.2,5.11-2.2,2.02,0,3.84,1.06,5.4,3.14,.61,.82,1.22,1.64,1.83,2.46,2.31,3.09,4.69,6.29,7.2,9.26,.35,.42,1.01,.8,1.84,1.23v-9.21l3.38,3.24c.6,.57,1.19,1.04,1.76,1.5,1.26,1,2.46,1.95,2.75,3.45,1.07,5.37,1.92,10.67,2.9,16.81,.34,2.13,.7,4.35,1.08,6.67l.93,5.68-4.25-3.88Z"/><path class="cls-1" d="M120.58,271.23v-7.84c1.87,1.79,3.7,2.68,3.94,3.89,1.44,7.23,2.51,14.53,3.97,23.42-2.17-1.98-4.16-3.05-4.98-4.7-1.38-2.8-2.52-4.79-6.27-4.11-2.43,.44-2.91-1.2-2.18-3.58,.59-1.93,.38-4.1,.55-6.42-7.75,1.31-7.83,1.33-9.25-5.76-.7-3.46-2.21-5.15-6.09-4.93-3.78,.22-7.66-.15-11.38-.83-1.55-.28-2.83-2.05-4.23-3.14,1.35-1.26,2.75-3.61,4.04-3.55,2.54,.11,5.02,1.55,8.5,2.78-.26,.18,.55-.3,1.26-.89,2.76-2.32,5.3-2.52,7.64,.6,2.99,3.98,5.9,8.02,9.11,11.81,1.06,1.25,2.92,1.83,5.35,3.27l.02-.02Z"/><path class="cls-1" d="M137.8,291.77c-1.72,0-3.08-2.56-3.1-2.59-.37-.75-.3-1.58,.19-2.22l.56-.75c1.12-1.5,2.28-3.06,3.87-4.26,2.6-1.96,3.39-3.8,2.82-6.58-.73-3.51-1.32-6.68-1.1-9.92,.14-2.19,.87-4.24,1.57-6.22,.3-.85,.58-1.65,.82-2.45l.56-1.88,5.98,1.65v1.75c-.09,.7-.15,1.4-.21,2.1-.13,1.5-.27,3.04-.55,4.58-.59,3.28-.49,4.35-.37,4.7,.06,0,.14,.02,.26,.02,1.13,0,3.18-.66,4.63-1.15,.6-.2,1.16-.28,1.75-.35,.22-.03,.46-.06,.71-.1l1.87-.3,.4,1.85c1.02,4.75-.52,8.36-4.69,11.04-2.01,1.3-3.87,2.82-5.84,4.42-.74,.61-1.49,1.21-2.24,1.81-.2,.33-.49,.75-1.01,1.05-1.87,1.19-3.85,2.45-5.92,3.55l-.44,.24h-.51Z"/><path class="cls-1" d="M147.96,258.09c-.24,2.18-.34,4.39-.73,6.54-1.34,7.4-.23,8.33,7.13,5.81,.59-.2,1.25-.23,2.13-.37,.88,4.1-.47,6.79-3.82,8.94-2.96,1.91-5.62,4.29-8.4,6.48-.25,.2-.35,.61-.62,.77-1.92,1.22-3.84,2.44-5.84,3.51-.14,.08-1.44-1.45-1.34-1.58,1.24-1.63,2.44-3.41,4.05-4.63,2.96-2.23,4.35-4.78,3.57-8.58-.64-3.08-1.27-6.29-1.06-9.38,.18-2.78,1.5-5.49,2.31-8.24l2.62,.72h0Z"/><path class="cls-1" d="M98.35,252.53c-3.93-4.32-4.67-12.2-4.11-17.63,.58-5.58,2.54-9.96,5.39-12.02l3.34-2.41-.17,4.11c-.12,2.94,.17,5.92,.46,8.8,.59,5.94,1.19,12.08-1.6,18.59l-1.23,2.85-2.09-2.3Z"/><path class="cls-1" d="M99.83,251.18c-5.37-5.9-4.93-22.41,.98-26.68-.37,9.09,2.94,17.55-.98,26.68Z"/><path class="cls-1" d="M83.13,240.92c-.28,0-.56-.04-.83-.13l-.82-.26c-4.4-1.38-8.96-2.81-13.23-4.83-1.68-.79-2.34-2.67-2.92-4.33-.21-.58-.4-1.14-.61-1.57l-1.15-2.37,2.6-.47c.43-.08,.93-.23,1.46-.38,.99-.3,2.02-.6,3.07-.6,.63,0,1.21,.11,1.72,.34,3.83,1.64,7.46,3.77,10.97,5.82l1.03,.6c.95,.56,1.55,1.4,2.19,2.29,.27,.38,.57,.8,.93,1.25l1.64,2.01-2.36,1.07c-.37,.17-.74,.39-1.1,.6-.8,.47-1.63,.95-2.59,.95Z"/><path class="cls-1" d="M86,237.55c-1.34,.61-2.4,1.56-3.09,1.34-4.67-1.47-9.39-2.91-13.8-4.99-1.34-.63-1.75-3.25-2.58-4.96,1.72-.31,3.76-1.36,5.1-.78,4.09,1.75,7.94,4.07,11.79,6.32,.89,.52,1.43,1.66,2.58,3.07Z"/><path class="cls-1" d="M90.67,253.01l-.22-.02c-4.02-.55-8.75-1.28-13.44-2.45l-.55-.13c-1.79-.42-4.23-1-5.35-3.06-.66-1.23-.7-2.69-.1-4.35,1.13-3.14,3.26-3.8,4.84-3.8s3.02,.61,4.35,1.15l.51,.21c1.44,.58,2.88,1.14,4.32,1.7,2.39,.93,4.85,1.89,7.27,2.9,.91,.38,1.45,1.08,1.98,1.75,.19,.25,.41,.53,.67,.82l3.03,3.34h-3.81c-.13,.12-.26,.24-.39,.35-.81,.74-1.73,1.58-2.98,1.58h-.13Z"/><path class="cls-1" d="M93.47,249.07c-1.08,.79-2.01,2.03-2.75,1.93-4.44-.61-8.88-1.32-13.22-2.41-2.37-.59-5.98-1.09-4.6-4.92,1.39-3.86,4.42-2.32,7.08-1.26,3.85,1.54,7.73,2.99,11.56,4.59,.65,.27,1.07,1.11,1.94,2.07h-.01Z"/><path class="cls-1" d="M92.01,243.24c-4.6-3.05-5.48-7.28-6.18-10.68-.26-1.27-.51-2.48-.92-3.51-1.14-2.88-1.96-8.36,5.32-12.71l.47-.28h2.4l.16,1.84c.64,8.09,1.2,15.19,1.85,23.52l.32,4.09-3.42-2.26Z"/><path class="cls-1" d="M91.27,218.05c.64,8.09,1.2,15.19,1.85,23.52-5.51-3.65-4.71-9.13-6.35-13.26-1.35-3.42-.69-7.16,4.49-10.26h.01Z"/><path class="cls-1" d="M109.92,253.85c-5.13-5.64-5.17-15.16-.1-21.68l3.58-4.59v30.1l-3.48-3.83Z"/><path class="cls-1" d="M111.4,252.5c-4.42-4.86-4.54-13.27,0-19.1v19.1Z"/><path class="cls-1" d="M118.96,262.95c-2.45-1.43-3.99-3.4-4.59-5.86-.91-3.7,.37-8.24,3.91-13.87l3.69-5.87v27.35l-3.01-1.76Z"/><path class="cls-1" d="M119.97,261.22c-5.27-3.08-5.08-8.85,0-16.93v16.93Z"/><path class="cls-1" d="M299.78,344.81c-4.11,0-8.18-.5-12.11-.99-1.89-.24-3.85-.48-5.78-.66-1.32-.13-3.08-.81-4.04-2.05-.98-1.28-1.75-2.65-2.49-3.98-.29-.5-.57-1.01-.86-1.5l-1.64-2.76,3.2-.25c.53-.04,1.14-.16,1.78-.28,.95-.18,1.93-.36,2.92-.36,.88,0,1.63,.15,2.31,.45,5.88,2.62,12.4,3.89,19.94,3.89h0c2.03,0,4.11-.09,6.37-.27,.15-.03,.5-.27,.85-.54-.1-.09-.19-.17-.28-.26-1.21-1.13-1.99-1.82-2.75-1.82-.43,0-.98,.21-1.63,.62-.48,.3-1.05,.46-1.68,.46-1.46,0-3.11-.82-3.96-1.31-.67-.4-1.06-1.06-1.18-1.99-.1-.86-.03-2.75,1.01-3.76,1.59-1.54,3.37-2.81,5.15-3.66,.35-.17,.74-.26,1.15-.26,.81,0,1.5,.33,2.12,.63,.23,.11,.58,.28,.72,.31,1.88,.33,3.77,.64,5.66,.94,2.6,.42,5.29,.86,7.93,1.35,1.14,.21,2.17,.67,3.08,1.07,.38,.17,.76,.33,1.15,.48l2.33,.88-1.37,2.08c-.18,.27-.34,.57-.5,.87-.5,.92-1.06,1.96-2.09,2.68-.98,.68-1.93,1.39-2.87,2.09-3.47,2.58-7.05,5.26-12.06,6.6-3.23,.87-6.62,1.29-10.38,1.29Z"/><path class="cls-1" d="M313.48,335.62c-3.21-2.26-4.79-5.91-8.98-3.26-.75,.47-2.52-.29-3.58-.9-.34-.2-.27-2.09,.23-2.58,1.35-1.31,2.93-2.48,4.62-3.29,.64-.31,1.81,.68,2.78,.85,4.52,.79,9.06,1.45,13.57,2.29,1.34,.25,2.59,.96,3.88,1.45-.67,1.02-1.13,2.36-2.06,3.01-4.53,3.15-8.36,6.8-14.3,8.4-9.51,2.56-18.41,.44-27.56-.42-.93-.09-2.1-.58-2.64-1.28-1.24-1.63-2.17-3.51-3.22-5.28,2.03-.16,4.4-1.09,6.04-.36,8.78,3.91,17.93,4.54,27.28,3.79,1.18-.1,2.27-1.36,3.94-2.42h0Z"/><path class="cls-1" d="M327.12,103.08c-2.38-.73-4.75-1.46-7.14-2.18l-1.38-.42-.09-3.62-.04-1.48,1.4-.48c.47-.16,1.04-.4,1.61-.63,1.58-.65,2.59-1.05,3.47-1.05,1.02,0,1.6,.54,1.85,.86,1.14,1.45,1.7,3.16,2.24,4.81,.17,.53,.35,1.06,.54,1.58l1.44,3.82-3.9-1.2Z"/><path class="cls-1" d="M320.51,96.8c1.63-.55,4.35-1.95,4.71-1.49,1.27,1.61,1.73,3.85,2.49,5.86-2.38-.73-4.76-1.46-7.15-2.18-.02-.73-.03-1.45-.05-2.18h0Z"/><path class="cls-1" d="M318.48,131.3c-.34-.48-.69-.92-1.01-1.33-.91-1.15-1.77-2.24-2.03-3.66-.13-.73,.11-1.48,.72-2.22,.4-.47,2.34-2.39,3.97-2.39,.38,0,.74,.09,1.06,.27,1.41,.77,2.46,1.88,3.48,2.96,.32,.34,.64,.68,.97,1l1.75,1.71-2.02,1.37c-1.09,.74-2.18,1.48-4.12,2.79l-1.63,1.1-1.13-1.61Z"/><path class="cls-1" d="M320.12,130.15c-1.19-1.7-2.47-2.86-2.71-4.2-.11-.6,2.36-2.48,2.82-2.23,1.54,.84,2.71,2.37,4.01,3.64-1.09,.74-2.18,1.48-4.12,2.79h0Z"/><path class="cls-1" d="M307.54,88.51c-.72-.41-1.44-.83-2.17-1.25l-.29-.17-.22-.26c-.21-.25-.51-.54-.82-.84-.95-.92-2.13-2.06-2.24-3.63-.11-1.65,1.19-2.75,2.33-3.72,.33-.28,.65-.55,.87-.78l1.41-1.47,1.44,1.43c.32,.32,.69,.62,1.05,.93,1.07,.9,2.29,1.92,2.86,3.42,.58,1.51-.16,3.03-.76,4.26-.19,.4-.38,.77-.49,1.08l-.8,2.25-2.17-1.25Z"/><path class="cls-1" d="M306.39,85.53c-.93-1.1-2.51-2.16-2.59-3.32-.06-.92,1.7-1.98,2.65-2.97,1.2,1.19,2.9,2.2,3.45,3.64,.39,1.01-.78,2.61-1.26,3.95-.75-.43-1.5-.86-2.25-1.3Z"/><polygon class="cls-1" points="318.85 87.54 310.99 83.21 314.82 76.95 323.5 82.42 320.51 87.54 318.85 87.54"/><path class="cls-1" d="M319.36,85.54c-1.86-1.02-3.72-2.05-5.57-3.07l1.68-2.75c1.78,1.12,3.55,2.24,5.33,3.36-.48,.82-.95,1.64-1.43,2.46h0Z"/><path class="cls-1" d="M306.2,132.47c-.33-.09-.74-.17-1.15-.26-1.81-.37-3.51-.72-3.56-2.55-.05-1.47,.24-2.88,.51-4.23,.09-.44,.18-.87,.25-1.31l.31-1.77,3.99,.27-.07,1.99,1.92-.11,.32,5.92,.16,2.77-2.68-.73Z"/><path class="cls-1" d="M306.41,124.62c.11,1.97,.21,3.95,.32,5.92-1.14-.31-3.23-.58-3.24-.93-.06-1.7,.44-3.42,.74-5.14l2.19,.15h-.01Z"/><path class="cls-1" d="M304.79,103.36c-1.68,0-2.17-1.07-2.3-1.53-.44-1.42-.71-2.89-.97-4.32-.08-.44-.16-.89-.25-1.33l-.41-2.06,7.09-1.03,1.17,10.04-2.17,.08c-.25,0-.56,.04-.87,.07-.48,.05-.96,.09-1.29,.09Z"/><path class="cls-1" d="M306.2,95.37l.68,5.84c-.86,.03-2.41,.28-2.47,.07-.55-1.78-.82-3.65-1.18-5.48l2.97-.43Z"/><path class="cls-1" d="M309.79,100.07l.36-2.04c.21-1.18,.42-2.38,.62-3.56l.39-2.31,9.35,3.16-1.35,6.06-9.36-1.3Z"/><path class="cls-1" d="M317.61,99.13l-5.49-.76c.21-1.19,.42-2.39,.62-3.58l5.42,1.83-.56,2.51h0Z"/></svg>