<?xml version="1.0" encoding="UTF-8"?><svg id="Layer_1" xmlns="http://www.w3.org/2000/svg" width="362.4" height="420.7" viewBox="0 0 362.4 420.7"><g id="Layer_3"><g><path d="M16.8,1.5c2.7-.5,5.3-1.5,8-1.5,18.1,.2,36.2,.8,54.3,1.1,28.4,.5,56.8,1,85.2,1.1,21.8,.1,43.6-.6,65.4-.3,22.1,.3,44.1,1.4,66.2,1.9,7.6,.2,15.3-.4,23-.8,6.6-.4,12.7,1.7,19.1,3,9,1.8,5.8,6.8,5.9,11.3,.2,13.3-.1,26.6,.2,39.8,.3,10.8,.1,21.8,2.4,32.2,1.5,6.9,2,13.6,2.5,20.5,1.6,22.4,3.4,44.7,5.3,67,.4,5.1,1.3,10.2,2,15.3,1.5,12.3,2.7,24.7,4.5,37,2.6,18.6,1.4,37.3,1.4,56,0,10.5-.8,21-.5,31.4,.5,15.5-7.5,26-19.8,33.5-12.1,7.3-25.1,12.4-38.8,16.5-13.8,4.1-27.1,10-40.5,15.5-10.3,4.2-20.3,9-30.4,13.6-1.9,.9-3.7,2.1-5.4,3.4-7.7,6-15.5,11.9-21.5,19.8-.8,1.1-2.7,1.3-4.2,1.9,0-1.5-.3-3.1,.1-4.4,2.7-8,9.7-12,16-16.6,11.2-8.1,24.2-13.1,36.4-19.4,22.4-11.6,47.1-16.2,70-25.9,6.4-2.7,12.6-6,18.5-9.8,11.9-7.8,15.5-19.8,15.4-33.2-.1-17.3-.7-34.6-1-52-.1-3.3,.5-6.7,.2-10-1.1-13.2-2.6-26.4-3.8-39.6-1-12.1-1.6-24.2-2.6-36.2-1.2-14.6-2.6-29.2-4.3-43.7-1.5-12.7-4-25.4-5.1-38.1-1.2-14.5-1.4-29.2-1.8-43.8-.3-11.4-.4-22.9-.5-34.3,0-3.4-1.4-4.3-4.8-3.4-1.5,.4-3.4-.2-5-.6-2.9-.7-5.6-2.3-8.5-2.4-15.6-.2-31.2,.1-46.9-.1-15.9-.2-31.8-1-47.7-1.3-7.6-.2-15.3,.2-22.9,.3-1.5,0-3,0-4.5-.1-9.8-1.2-10.1-1.1-11.2,8.6-1.2,10.8-2.9,21.5-2.8,32.3,0,12.2,1.9,24.4,2.7,36.6,.5,7.5-.1,15,.8,22.4,1.1,8.9-.1,17.4-.9,26.2-.9,9.5-.3,19.1,.1,28.7,.3,7.2,2.9,9,10,8.9,14.8-.1,29.6,.2,44.3,.2,7.3,0,14.6-.2,21.9-.2,11.6-.1,23.2-.1,34.8-.1,12.5,.1,24.9,.3,37.3,.4,.7,0,1.3,0,2,.1,2.1,.3,5.1,.3,4,3.4-.4,1.3-3.2,2.6-4.8,2.5-6.8-.4-13.5-2-20.2-2.1-11.1-.1-22.2,.9-33.3,.9-12.8,.1-25.6-.4-38.4-.5-14.4-.1-28.8,0-43.2-.1-2.5,0-5-.1-7.5-.3-5.8-.5-8.1,1.6-7.6,7.4,.4,5.4,1.4,10.9,1.5,16.3,.4,16.9,.3,33.8,.7,50.8,.2,8.5,1.1,16.9,1.6,25.4,.7,13,1.2,25.9,1.8,38.9,.1,3.1,.6,6.3,.9,9.4,1,11.3,2.1,22.5,2.8,33.8,.9,13.3,1.4,26.6,2.2,39.8,.4,5.6,1.5,11.1,1.7,16.7,.1,2-1.9,4.1-2.9,6.1-1.7-1-3.9-1.6-4.9-3.1-10.9-16-27.2-23.9-45.1-27.9-7.3-1.6-14.4-2.4-21.4-5.6-5.5-2.5-12.4-1.7-18.5-3.2-19.4-4.6-38.7-9.4-57.9-14.4-7.7-2-14.2-6.5-19.8-12.2-3.4-3.4-7.4-6.3-10.4-10-6.6-8-10.1-17.1-11.2-27.7-1.3-12.7-4.7-25.1-6.3-37.8-1.1-9.4-1.2-19.1-1.1-28.7,.2-20.2,1.8-40.5,1-60.7-.8-19.2,2.7-38,3.2-57.1,.1-3.6-.7-7.3-.5-10.9,.7-18.1,1.7-36.2,2.4-54.3,.3-6.7-.2-13.3,.2-20,.9-13.9,2.2-27.8,3.4-41.7,.1-1,.9-1.9,1.4-2.8l1.9,.1c0,3.6,.3,7.1,0,10.7-.8,12.1-1.9,24.2-2.6,36.3-.6,10.8-.9,21.7-1.3,32.5-.5,12.1-.9,24.2-1.4,36.3-.6,15.2-1.2,30.5-2,45.8-.2,3.9,.9,5.9,5.2,5.9,8.3-.1,16.7-.1,25,.2,7.2,.3,14.5,1.2,21.7,1.6,14.4,.9,28.8,2,43.2,2.2,20.4,.4,40.8,.1,61.3-.1,5.6,0,11.3-.6,16.9-.8,3.5-.1,4.9-1.6,4.8-5.3-.4-12.4-.4-24.9-.6-37.4-.1-13.6,.6-27.3-.6-40.8-2.3-26-2.5-51.8,1.3-77.6,.6-3.8-1.2-4.9-4.4-4.8-14.1,.5-28.2,1.3-42.3,1.3-11.4,0-22.8-1.5-34.2-1.8-13.5-.3-27.1,0-40.6-.2-11.5-.1-22.9-.5-34.4-.8-3.7-.1-7.3-.4-11-.6l-.2-1.7h0ZM192.7,405.8c.1-2.6,.3-3.7,.2-4.8-.8-11.4-1.7-22.9-2.3-34.3-1.3-22.4-2.4-44.8-3.7-67.1-.8-13.6-1.6-27.2-2.3-40.8-.7-14.6-2.5-29.4-1.4-43.9,.9-11.5-1.1-22.5-1.3-33.7-.1-4.3-2.2-6.2-7.1-6-15.3,.8-30.6,1.2-45.9,1.4-7.9,.1-15.9-.7-23.8-1-17.3-.6-34.6-.9-51.8-1.5-12.4-.5-24.9-1.3-37.3-2-9.3-.5-11.4,1.6-10.4,10.4,.1,1.2,.2,2.3,.2,3.5-.3,15.8-.7,31.5-.9,47.3-.1,5.6,1.1,11.6-.3,16.8-2.2,8.5,1.1,16.3,1.1,24.4,0,3.5,2.4,7,2.8,10.5,1.3,10.6,.2,21.6,5.5,31.5,.3,.5-.1,1.3,.1,2,.7,3.7,1.1,7.5,2.4,11,3,8.3,10,13.7,16.4,19.1,6,5.1,12.8,10.2,20.1,12.5,16.2,5.3,32.9,9.3,49.6,13.1,17.4,3.9,35.1,6.2,52.3,10.5,7.8,1.9,15.1,6.5,22.3,10.5,5.1,2.6,9.7,6.4,15.5,10.6h0Z"/><path d="M291.8,228.8c3.3,2.9,3.5,7.7,8.6,7.3-.1,1.2,.1,3.3-.3,3.4-2.3,.8-4.8,1.1-7.2,1.4-1.6,.2-3.2,.2-4.9,.1-8.4-.5-10.7,7.1-15.3,11.5-9.2,8.8-19.5,15.7-31,21.4-6.6,3.3-12.5,8.7-13.6,17.3-1.4,11-.6,11.5,10.4,8.7,10.2-2.6,17.4-9.5,25.1-15.8,12.7-10.5,21.8-10.8,35.6-.2,3.7,2.8,6.9,6.2,10.4,9.3,3.6,3.1,6.9,3.4,11.2,.5,3.2-2.2,7.4-3.7,11.3-4.3,3.6-.6,6.4,1.8,5.2,5.9-1.6,5.5-3.4,11.1-6,16.2-1.4,2.6-4.9,4.1-7.2,6.4-1.1,1.1-1.5,2.8-2.3,4.1,1.4,.7,2.7,1.8,4.2,1.9,4.4,.3,8.9,.1,13.3,.3,1.3,.1,2.6,.8,3.9,1.2-.8,1.1-1.4,3-2.5,3.3-4.2,1.1-8.3,3.3-13,1.1-2.3-1.1-5.3-1.7-7.7-1.3-4.6,.8-8.4,.4-12.2-2.5-.9-.7-3.1,.4-4.7,.6-3.7,.6-7.4,1.4-11.2,1.8-6.9,.8-13.8,1.5-20.7,2-3.1,.3-7,1.4-9.2,0-5.6-3.4-11.4-.7-17-2-2.8-.6-5.7-1.1-8.5-1.4-2.1-.2-4.2,0-6.6,0-.4-1.3-.8-2.7-1.3-4.3-5.1,2.1-8.9,1.8-10.4-4.3-.4-1.4-1.9-2.6-3.1-3.8-7.4-7.4-7.9-13.5-1.8-22,.7-.9,1.2-2,1.4-3.1,2.4-11.7,9.8-19.9,19.6-25.7,9.5-5.6,19.7-9.9,29.6-14.7,1.9-1,3.7-2.2,5.6-3.1,1.9-.9,3.9-1.7,6.8-2.9,.4-3.8,.8-8.6,1.3-13.5l.8,.2c.6-1.7,1.9-3.5,1.5-4.9-2.1-9.2-14.7-16.7-24-14.6-4.2,1-8.4,2-12.4,3.5-1.7,.6-2.8,2.5-3.9,4.6,13.3-3,26.6-8.3,35.7,6.7-.2,.6-.4,1.1-.6,1.7-1.9-1.1-4.1-1.8-5.7-3.2-7.5-6.4-15.5-5.5-23.7-1.7-2.9,1.3-4.6,3.3-4.6,6.9,0,4.3-4,4.5-6.9,4.9-.9,.1-3-3.2-2.9-4.8s2.3-3.1,3.7-4.8c-2.7-6.4-2.5-7.1,4.1-12.2,11.3-8.8,30.8-8.2,40.4,1.7,3.3,3.4,5.7,7.8,7.8,12.1,1,2.1,2.2,5.5-1.7,7.2-.6,.2-.9,2.5-.4,3.4,.4,.9,2.3,1.8,3,1.5,1.3-.6,2.6-1.9,3.1-3.2,.7-1.8,.6-3.9,.9-5.8h0Zm25.6,92.2c3.6-4.6,8.3-10,12.2-15.9,1.6-2.4,3.1-7.4,1.9-8.7-2.8-3.2-6.2,.1-8.6,2.1-4.4,3.8-9.1,3.6-13.4,.9-7.1-4.5-13.9-9.4-20.5-14.5-5.8-4.4-14.9-4.5-20.2,.1-8.6,7.5-16.9,15.4-28.4,18.6-6,1.7-11.6,5.4-18.2,2.5-.7-.3-1.7-.3-2.4,0-1.1,.5-2.4,1.1-2.9,2.1-.3,.7,.4,2.3,1.2,2.9,5.9,5.2,11.7,9.9,20.1,10.9,7.3,.9,14.4,3.6,22,1.4,1.2-.4,3-.4,3.9,.2,5.1,3.9,10.5,2,15.8,1.2,4.1-.6,8.2-1.2,12.2-1.7,4.1-.5,8.2-.8,12.4-1.2,4.1-.2,8.2-.5,12.9-.9h0Zm-95.9-19.5c.4,.1,.9,.2,1.3,.4,.6-1.9,2.1-4.1,1.6-5.7-1.3-4.6-.6-8.5,2.2-12.1,1.9-2.4,3.7-4.8,6-6.8,3.6-3.1,7.4-5.9,11.3-8.5,5.1-3.5,10.3-6.7,15.5-10-.2-.5-.4-1-.6-1.4-3.8,1-8,1.3-11.3,3.2-6.8,4-13.1,8.8-19.5,13.4-1.3,.9-2.1,2.5-3,3.8-5.2,7.3-4.8,15.4-3.5,23.7h0Z"/><path d="M100.4,117.2c14.7-4.6,19.1-18.4,11.7-30.8-.6-1-2.1-2-3.1-1.9-.8,.1-2.1,1.8-2.1,2.8-.1,5,.2,10,.4,14.9v4.3c-1-.3-2.1-.3-2.3-.8-3-6.6-5.6-13.1-1.6-20.4,1.1-2,.4-4.8,.8-7.2,.5-2.9,.7-6,1.9-8.7,1.3-2.8,3.5-5.2,5.4-7.7,3.4-4.6,.8-7.8-2.6-11.3-1.8,3-3.4,5.7-4.9,8.4-1.9,3.7-3.3,3.7-6.1,.7-1.4-1.5-3.3-2.6-4.7-3.6-.2,4.8-.2,8.7-.8,12.4-.2,1-2,1.8-3,2.7-.7-1.2-2.1-2.4-2-3.5,.4-4.1-1.8-5.9-5.2-6.6-4.2-.9-7.4-3.9-7-7.3,.4-3,4-5.6,6.2-8.4l2.2,1.6c-1.6,2.4-3.3,4.7-5.3,7.7l8.3,5.4-.7-13.2c3.8,3,4.4,10.1,10.1,6.2,1.8,1.6,3.3,2.9,5,4.2,.1,.1,1.9-1.6,1.8-2-.7-1.6-1.8-3.1-3.3-5.4l1.5-2.2,6.2,1.8,1-5.5c-2.6-.2-4.6,.3-5.5-.6-6.5-6-13.4-3.3-20.1-.9-3.6,1.2-7,3.2-10.4,4.9-7,3.6-7.1,18-.3,22.5,2,1.3,3.9,2.9,6.5,4.8-1.8,.8-2.8,1.3-3.7,1.8-3.8,1.6-4.2,3.8-3.2,8,1.4,5.9,1.4,12.1,1.9,18.2,.1,.6-.8,1.3-1.9,3.1-1-5.8-1.7-10.3-2.6-14.9-.3-1.5-1.2-2.8-1.9-4.2-1.2,1-2.6,1.8-3.6,3-5.1,5.8-4.4,12.2-1.5,18.7,2.3,5,4.7,10,7.4,15.7-2.1,.3-3.1,.6-4.1,.6-6.2-.4-12.4-.9-18.6-1.6-1.4-.1-2.6-1.1-3.9-1.8,1.1-1.2,2.1-3.4,3.3-3.6,3.7-.5,7.5-.2,12.1-.2-.9-3.4-1.6-7.2-3-10.7-1.9-4.5-.9-8.5,1.5-12.3,3.4-5.5,7.1-10.9,10.4-16.4,.7-1.1,1.1-3.8,.5-4.2-7.1-5.1-6.5-11.8-4-18.8,1.5-4.3,2.7-8.1-2.6-10.9-.8-.4-.8-3.9-.1-5.3,.9-1.6,3.4-3.8,4.6-3.4,2.9,.8,6.2,2.4,8,4.7,2.1,2.8,3.8,3.2,6.6,1.8,4-1.9,8-4,12.2-5.3,5.4-1.7,10,.7,14,4.2,2.6-2.4,4.9-4.5,7.6-7,.7,1.2,1.4,2,1.2,2.3-3,5.2-1.4,9.2,1.9,13.9,2.9,4.2,1.6,9.2-1.5,13.5-5.6,7.8-5.4,8.9,.8,16.1,5.8,6.8,6.1,21,.8,29-.9,1.4-1.1,3.2-1.6,4.8,1.7,.4,3.5,1.1,5.2,1,9.1-.4,18.2-1.1,27.3-1.6,.9-.1,2.6,.7,2.8,1.4,.3,1.1,0,2.9-.8,3.5-1.2,.9-3,1.4-4.6,1.4-7,.2-14-.2-20.9,.3-4.2,.3-8.3,1.6-12.3,2.8-.8,.2-1.6,1.9-1.6,2.8,.3,4,.5,8.2,1.7,12,1.7,5.2,1,8.8-3.4,10.7-.7,.3-1.9,.8-2.3,.5-3.2-2.9-6.8-2.6-10.6-1.5-.5,.1-1.4-1.1-2.1-1.7,.8-.6,1.6-1.7,2.5-1.8,3.2-.4,6.4-.5,9.6-.7-.2-3.1-.6-6.1-.6-9.2,0-2.6,.2-5.3,1.1-7.7,1.2-3.1,1.2-5.1-2.6-5.9-1.3-.2-1.9-1.2-3.4-2.4h0Z"/><path d="M264,117.9c-1.1-10.8-2.2-22.3-3.6-33.7-1.1-8.8-2.7-17.6-4.1-26.4-.7-4.3,.6-7.6,4.5-9.6,6.5-3.2,12.9-7.7,19.8-9,5.9-1.1,12.5,1.4,18.7,2.7,2.5,.5,5,1.8,7.4,2.8l1.4-1.5c.6,2.5,1.3,4.9,1.6,7.4,1.3,10.4,3,20.7,3.6,31.1,.5,8.8-.4,17.6-.6,26.4-.1,4,.2,7.9-.1,11.9-.1,1.5-.8,3.6-1.8,4.1s-2.8-.8-4.3-1.4c-2.7-1.2-5.3-3-8.1-3.6-7.6-1.7-15.2-2.1-22.7,1.4-2,1-5.4-.9-8.7-1.5v4.1c-3.2,2-6.5,3.9-9-.8-.7-1.4-.2-3.4-.3-5.2,2,.1,3.8,.4,6.3,.8h0Zm3.7-20.1h0c0,3-.2,6,0,9,.3,2.8,.5,5.8,1.8,8.2,.7,1.4,3.7,2.9,4.9,2.4,8.9-3.8,17.7-6.8,27.3-2.7,1.2,.5,2.6,.6,3.9,.7,3,.3,4.3-.9,3.6-4.1-.5-2.6-1-5.4-.6-7.9,2.7-16.3-2-32.1-4.1-47.9-.9-6.9-6.8-10-13.1-11.4-8.5-1.9-16.4,.3-23.9,4.7-3.8,2.2-4.5,4.8-3.6,9.1,1.7,8.2,2.8,16.6,3.6,25,.6,4.9,.2,9.9,.2,14.9h0Z"/><path d="M251.5,53.5c-2.1-1.1-4-1.7-5.3-2.8-8.1-7.3-17.2-5.8-26.3-3-3.8,1.2-5.3,3.7-4.2,8.1,2.9,11.6,4.6,23.4,3.6,35.5-.5,6.1,.4,12.3,.6,18.4,.1,3.9,1.4,6.5,5.7,5.9,2.4,5.2-1.4,5.4-4.8,6.4,5.1,.9,9.5,4.4,15,1.8,1.9-.9,4.5-.7,6.7-.3,5.6,1,12.3,.9,16.5,4,7.3,5.3,12.4-.1,17.7-2,10.9-3.9,20.9-2.7,31.1,1.9-1,3.9-3.4,3.9-6.2,3.2-3.7-.9-7.5-1.6-11-2.9-4.5-1.5-8.5-.7-12.5,1.4-3.8,2-7.5,4.2-11.5,5.6-1.8,.7-4.8,.4-6.3-.7-3.8-2.8-7.4-4.9-12.3-3.6-.6,.2-1.4-.1-1.9-.3-8.3-4-16.7-2.6-25.2-1.1-1.2,.2-3.8-1.1-3.9-1.9-.8-6.4-1.1-12.8-1.5-19.2-.4-7.9-.3-16-1.2-23.9-1-8.8-2.7-17.6-4.4-26.3-.6-3.2,2-10.8,5.1-12.6,9-5.1,18.4-6.3,28.3-3.1,4.2,1.6,8.6,7.4,8.2,11.5h0Z"/><path d="M90.8,146c-4.9,0-9.9,.3-14.8-.2-1.1-.1-2.5-3.3-2.5-5.1-.1-9.2,0-18.5,.5-27.7,.1-1.8,2.6-3.5,4-5.2,.5,1.9,.9,3.8,1.4,5.7,.5,2.2,.6,4.6,1.8,6.4,1.6,2.4,3.2,3.3,0,6.6-2.6,2.7-2.3,8.5-2.2,13,0,1,4.6,1.9,7.1,2.8,1.6,.6,3.3,1,4.9,1.5l-.2,2.2h0Z"/><path d="M229.7,119.5l-2.4-4.8c4-.2,7.3-.6,10.6-.6,5,.1,9.9,.2,14.8,.7,1,.1,1.8,1.8,2.7,2.7-1.3,.8-2.6,2.4-3.8,2.2-5.3-.6-10.5-1.9-15.8-2.5-1.7,0-3.6,1.4-6.1,2.3h0Z"/><path d="M274.7,240.4c-3.3-.6-5.3-1-7.3-1.4-2.4-.5-4.9-.9-7.1-2-.6-.3-.5-4.1,.2-4.4,2.6-1.2,5.7-2.7,8.5-2.4,5.6,.8,4,6.1,5.7,10.2h0Z"/><path d="M227.6,329.4c-2.6,.8-5.2,2.5-7.6,2.2-3-.5-5.9-2.4-8.5-4.1-.6-.4-.4-3.6,.3-3.9,1.4-.7,3.5-.9,4.9-.3,3.4,1.3,6.7,3.2,10,4.8,.3,.4,.6,.8,.9,1.3h0Z"/><path d="M98.8,123.2c-3.2-.5-5.4-.3-7-1.2-.9-.5-1.6-3.4-1.1-4.1,1.7-2.3,4-4.2,6.3-5.9,1.1-.8,2.7-1.1,2.7-2.2-2.2,2.1-4.3,4.3-6.5,6.5l1.8,2.3c1,1.1,2,2.3,3.8,4.6h0Z"/><path d="M229.3,70l1.5,8.8-1.1,1.1c-1.6-1.1-4.5-2.2-4.6-3.4-.1-2.3,1.4-4.7,2.2-7.1,.7,.2,1.3,.4,2,.6h0Z"/><path d="M253.6,78.3c-1.8,1-3.2,2.2-3.7,1.9-1.5-.9-3.2-2.1-3.9-3.7-.3-.7,1.5-2.4,2.4-3.7,1.5,1.7,3.1,3.3,5.2,5.5h0Z"/><path d="M255.1,91.5c-4.5,3.4-6.8,1.8-8.8-.2-.4-.4,.6-2.2,1-3.3,2.2,.9,4.5,2,7.8,3.5h0Z"/><path d="M230.8,86.5v8.2c-2-2.1-3.9-3.1-4-4.2-.1-1.5,1.3-3.1,2.1-4.7l1.9,.7Z"/><path d="M239.4,59.8c-2.4,.8-3.7,1.7-4.8,1.5s-2-1.6-2.9-2.4c.9-1,2.2-3,2.7-2.9,1.5,.5,2.7,1.8,5,3.8Z"/><path d="M228.6,60.9c-6.2-1.9-6.5-3.3-2.4-8.1,.8,2.7,1.5,5,2.4,8.1Z"/><path d="M238,72.9c-.1,2-.2,4-.3,6-1-.3-2.9-.6-2.9-1-.1-1.8,.3-3.5,.5-5.3-.1,0,2.7,.3,2.7,.3Z"/><path d="M237.1,102.2c-1.6,.9-2.6,2-3.1,1.8-1.3-.6-2.4-1.7-3.5-2.6,.9-.9,2-2.7,2.5-2.5,1.2,.5,2.3,1.8,4.1,3.3Z"/><path d="M243.8,100.2c1.5,1.9,2.5,3.1,3.4,4.3-.9,.6-1.9,1.8-2.6,1.6-1.2-.3-2.5-1.3-3.1-2.4-.2-.4,1.2-1.8,2.3-3.5Z"/><path d="M248,60.9c-1.8,.2-3.6,.4-5.5,.6,.3-1.2,.4-3.2,.8-3.3,1.5-.3,3.1,.2,4.7,.3v2.4Z"/><path d="M60.7,305.2c.9,2.6,1.6,4.4,2.6,7.1,1.5-1.4,3.2-2.2,3.6-3.4,4.5-12.8,14.5-21.2,23.3-30.7,3.5-3.8,6.5-8,9.8-11.9,.9-1,2.2-1.7,3.3-2.5,.8,1.1,1.8,2.2,2.4,3.4,1.6,3.6,2.8,7.4,4.4,11,2.9,6.9,5.8,13.7,9,20.4,2.8,6,6.1,11.7,9.1,17.6,.2,.4,.6,1.1,.9,1.2,7,.1,4.9,6,6.2,9.7,1.4,4.2,3.2,8.3,4.6,12.5,.2,.7-1.1,2.6-1.4,2.5-1.3-.4-3.5-1.1-3.5-1.9-.5-6-4.6-7.8-9.4-10.1-4.8-2.4-8.7-6.5-12.7-10.3-1.1-1-.8-3.5-1.1-5.3,1.6,.3,3.3,.5,4.9,.8,1.4,.3,2.7,.8,4,1.2,.2-1.5,1-3.4,.5-4.6-2.1-5-4.7-9.8-7.1-14.6-3.3-6.7-6.8-13.4-9.9-20.1-1.8-3.9-3.7-3.1-6-.7-3.8,4-7.8,7.8-11.2,12.1-6.1,7.6-11.8,15.5-17.5,23.5-1.2,1.7-1.4,4.1-2.5,7.6,4.8-2.4,8.1-4,11.4-5.6l1.1,1.4c-.8,1.2-1.4,2.7-2.5,3.7-4.3,3.9-8.7,7.7-13.3,11.2-.9,.7-3.3,.8-4.1,.1-2.8-2.6-3.9-19.3-1.8-22.5,.8-.8,1.6-1.4,2.9-2.8h0Z"/><path d="M176.1,221.3c-4.6-2-7.8-3.4-12.3-5.3,1.3,2.5,1.9,4.5,3.2,6,2.5,2.9,3,5.4,.1,8.3-.9,.9-1.7,2-2.3,3.2-2.4,4.5-4.3,4.8-8.2,1.3-1.5-1.3-2.9-2.7-4.4-4-.3-.2-.9,0-2.7,.2,1.8,2.6,3.3,4.7,4.9,6.9-2.8,2.5-5.1,1.1-6.7-1.1-1.3-1.8-1.8-4.2-3.1-7.4-1.4,3.6-2.2,5.9-3.2,8.5,2.1,1.7,4.5,3.6,8,6.5-2.8,.5-4.1,.9-5.3,.8-3.7-.1-6.8,0-7.7,4.9-.6,3.2-3.5,2.7-6.6,1.3,2.6-3.8,5-7.4,8.1-11.9-3.3,.3-5.7,.5-8,.8-3.1,.4-4.4-.8-3.8-4,.5-2.8,.7-5.6,1.5-8.3,.5-1.5,1.9-2.7,2.9-4l1.6,.5c-.2,3.4-.4,6.7-.7,11.5,3.7-1.9,6.4-3,8.7-4.7,.7-.6,.8-3.2,.1-4.3-2.4-3.7-1.3-7.1,.3-10.4,.5-1,2.2-1.4,3.3-2.1,.2,1.2,.7,2.4,.6,3.6-.1,1.5-1,2.9-.8,4.4,.1,1.7,.7,3.5,1.7,4.8,.3,.4,3.2-.3,3.8-1.3,.9-1.4,1.7-3.8,1.1-5.2-1.6-3.9-2.8-7.6,0-11.3,.9-1.2,2.7-1.7,4-2.6-.1,1.6,.4,3.8-.5,4.8-2.4,2.8-2.5,5.6-.5,8.2,1,1.4,3.2,1.8,4.9,2.6,.7-1.6,1.8-3,2.1-4.7,.8-3.9,.9-7.8,1.8-11.6,.3-1.3,2.6-3.4,2.9-3.2,2,1.2,5.1,2.7,5.2,4.4,.3,3.4,.9,5.9,3.9,8,1.3,.8,1.3,3.1,2.1,5.9h0Z"/><path d="M92,244.1v-7.8c1.9,1.8,3.7,2.7,3.9,3.9,1.4,7.2,2.5,14.5,4,23.4-2.2-2-4.2-3-5-4.7-1.4-2.8-2.5-4.8-6.3-4.1-2.4,.4-2.9-1.2-2.2-3.6,.6-1.9,.4-4.1,.6-6.4q-7.8,1.3-9.2-5.8c-.7-3.5-2.2-5.1-6.1-4.9-3.8,.2-7.7-.1-11.4-.8-1.6-.3-2.8-2-4.2-3.1,1.3-1.3,2.8-3.6,4-3.6,2.5,.1,5,1.6,8.5,2.8-.3,.2,.6-.3,1.3-.9,2.8-2.3,5.3-2.5,7.6,.6,3,4,5.9,8,9.1,11.8,1.1,1.2,2.9,1.8,5.4,3.2h0Z"/><path d="M119.4,231c-.2,2.2-.3,4.4-.7,6.5-1.3,7.4-.2,8.3,7.1,5.8,.6-.2,1.2-.2,2.1-.4,.9,4.1-.5,6.8-3.8,8.9-3,1.9-5.6,4.3-8.4,6.5-.2,.2-.4,.6-.6,.8-1.9,1.2-3.8,2.4-5.8,3.5-.1,.1-1.4-1.5-1.3-1.6,1.2-1.6,2.4-3.4,4.1-4.6,3-2.2,4.4-4.8,3.6-8.6-.6-3.1-1.3-6.3-1.1-9.4,.2-2.8,1.5-5.5,2.3-8.2l2.5,.8h0Z"/><path d="M71.2,224.1c-5.4-5.9-4.9-22.4,1-26.7-.4,9.1,3,17.5-1,26.7Z"/><path d="M57.4,210.4c-1.3,.6-2.4,1.6-3.1,1.3-4.7-1.5-9.4-2.9-13.8-5-1.3-.6-1.8-3.2-2.6-5,1.7-.3,3.8-1.4,5.1-.8,4.1,1.8,7.9,4.1,11.8,6.3,.9,.7,1.5,1.8,2.6,3.2Z"/><path d="M64.9,222c-1.1,.8-2,2-2.7,1.9-4.4-.6-8.9-1.3-13.2-2.4-2.4-.6-6-1.1-4.6-4.9,1.4-3.9,4.4-2.3,7.1-1.3,3.8,1.5,7.7,3,11.6,4.6,.5,.3,.9,1.1,1.8,2.1h0Z"/><path d="M62.7,190.9c.6,8.1,1.2,15.2,1.8,23.5-5.5-3.6-4.7-9.1-6.3-13.3-1.4-3.3-.7-7.1,4.5-10.2h0Z"/><path d="M82.8,225.4c-4.4-4.9-4.5-13.3,0-19.1v19.1Z"/><path d="M91.4,234.1c-5.3-3.1-5.1-8.9,0-16.9v16.9Z"/><path d="M284.9,308.5c-3.2-2.3-4.8-5.9-9-3.3-.8,.5-2.5-.3-3.6-.9-.3-.2-.3-2.1,.2-2.6,1.4-1.3,2.9-2.5,4.6-3.3,.6-.3,1.8,.7,2.8,.9,4.5,.8,9.1,1.5,13.6,2.3,1.3,.2,2.6,1,3.9,1.5-.7,1-1.1,2.4-2.1,3-4.5,3.1-8.4,6.8-14.3,8.4-9.5,2.6-18.4,.4-27.6-.4-.9-.1-2.1-.6-2.6-1.3-1.2-1.6-2.2-3.5-3.2-5.3,2-.2,4.4-1.1,6-.4,8.8,3.9,17.9,4.5,27.3,3.8,1.2-.1,2.3-1.3,4-2.4h0Z"/><path d="M291.9,69.7c1.6-.6,4.4-1.9,4.7-1.5,1.3,1.6,1.7,3.8,2.5,5.9-2.4-.7-4.8-1.5-7.1-2.2-.1-.7-.1-1.5-.1-2.2h0Z"/><path d="M291.5,103c-1.2-1.7-2.5-2.9-2.7-4.2-.1-.6,2.4-2.5,2.8-2.2,1.5,.8,2.7,2.4,4,3.6-1,.8-2.1,1.5-4.1,2.8h0Z"/><path d="M277.8,58.4c-.9-1.1-2.5-2.2-2.6-3.3-.1-.9,1.7-2,2.6-3,1.2,1.2,2.9,2.2,3.5,3.6,.4,1-.8,2.6-1.3,3.9-.7-.3-1.5-.7-2.2-1.2Z"/><path d="M290.8,58.4c-1.9-1-3.7-2.1-5.6-3.1l1.7-2.8c1.8,1.1,3.5,2.2,5.3,3.4-.5,.9-.9,1.7-1.4,2.5h0Z"/><path d="M277.8,97.5c.1,2,.2,4,.3,5.9-1.1-.3-3.2-.6-3.2-.9-.1-1.7,.4-3.4,.7-5.1l2.2,.1h0Z"/><path d="M277.6,68.3l.7,5.8c-.9,0-2.4,.3-2.5,.1-.5-1.8-.8-3.7-1.2-5.5l3-.4Z"/><path d="M289,72l-5.5-.8c.2-1.2,.4-2.4,.6-3.6l5.4,1.8-.5,2.6h0Z"/></g></g></svg>