<?xml version="1.0" encoding="utf-8"?>
<!-- Generator: Adobe Illustrator 26.3.1, SVG Export Plug-In . SVG Version: 6.00 Build 0)  -->
<svg version="1.1" xmlns="http://www.w3.org/2000/svg" xmlns:xlink="http://www.w3.org/1999/xlink" x="0px" y="0px"
	 viewBox="0 0 362.4 420.7" style="enable-background:new 0 0 362.4 420.7;" xml:space="preserve">
<style type="text/css">
	.st0{display:none;}
	.st1{display:inline;}
</style>
<g id="Layer_2_00000057829442043275267870000015498333308687479199_" class="st0">
	<g class="st1">
		<path d="M16.8,1.5C19.5,1,22.1,0,24.8,0C42.9,0.2,61,0.8,79.1,1.1c28.4,0.5,56.8,1,85.2,1.1c21.8,0.1,43.6-0.6,65.4-0.3
			c22.1,0.3,44.1,1.4,66.2,1.9c7.6,0.2,15.3-0.4,23-0.8c6.6-0.4,12.7,1.7,19.1,3c9,1.8,5.8,6.8,5.9,11.3c0.2,13.3-0.1,26.6,0.2,39.8
			c0.3,10.8,0.1,21.8,2.4,32.2c1.5,6.9,2,13.6,2.5,20.5c1.6,22.4,3.4,44.7,5.3,67.1c0.4,5.1,1.3,10.2,2,15.3
			c1.5,12.3,2.7,24.7,4.5,37c2.6,18.6,1.4,37.3,1.4,55.9c0,10.5-0.8,21-0.5,31.4c0.5,15.5-7.5,26-19.8,33.5
			c-12.1,7.3-25.1,12.4-38.8,16.5c-13.8,4.1-27.1,10-40.5,15.5c-10.3,4.2-20.3,9-30.4,13.6c-1.9,0.9-3.7,2.1-5.4,3.4
			c-7.7,6-15.5,11.9-21.5,19.8c-0.8,1.1-2.7,1.3-4.2,1.9c0-1.5-0.3-3.1,0.1-4.4c2.7-8,9.7-12,16-16.6c11.2-8.1,24.2-13.1,36.4-19.4
			c22.4-11.6,47.1-16.2,70-25.9c6.4-2.7,12.6-6,18.5-9.8c11.9-7.8,15.5-19.8,15.4-33.2c-0.1-17.3-0.7-34.6-1-52
			c-0.1-3.3,0.5-6.7,0.2-10c-1.1-13.2-2.6-26.4-3.8-39.6c-1-12.1-1.6-24.2-2.6-36.2c-1.2-14.6-2.6-29.2-4.3-43.7
			c-1.5-12.7-4-25.4-5.1-38.1c-1.2-14.5-1.4-29.2-1.8-43.8c-0.3-11.4-0.4-22.9-0.5-34.3c0-3.4-1.4-4.3-4.8-3.4
			c-1.5,0.4-3.4-0.2-5-0.6c-2.9-0.7-5.6-2.3-8.5-2.4c-15.6-0.2-31.2,0.1-46.9-0.1c-15.9-0.2-31.8-1-47.7-1.3
			c-7.6-0.2-15.3,0.2-22.9,0.3c-1.5,0-3,0-4.5-0.1c-9.8-1.2-10.1-1.1-11.2,8.6c-1.2,10.8-2.9,21.5-2.8,32.3
			c0,12.2,1.9,24.4,2.7,36.6c0.5,7.5-0.1,15,0.8,22.4c1.1,8.9-0.1,17.4-0.9,26.2c-0.9,9.5-0.3,19.1,0.1,28.7c0.3,7.2,2.9,9,10,8.9
			c14.8-0.1,29.6,0.2,44.3,0.2c7.3,0,14.6-0.2,21.9-0.2c11.6-0.1,23.2-0.1,34.8-0.1c12.5,0.1,24.9,0.3,37.3,0.4c0.7,0,1.3,0,2,0.1
			c2.1,0.3,5.1,0.3,4,3.4c-0.4,1.3-3.2,2.6-4.8,2.5c-6.8-0.4-13.5-2-20.2-2.1c-11.1-0.1-22.2,0.9-33.3,0.9
			c-12.8,0.1-25.6-0.4-38.4-0.5c-14.4-0.1-28.8,0-43.2-0.1c-2.5,0-5-0.1-7.5-0.3c-5.8-0.5-8.1,1.6-7.6,7.4
			c0.4,5.4,1.4,10.9,1.5,16.3c0.4,16.9,0.3,33.8,0.7,50.8c0.2,8.5,1.1,16.9,1.6,25.3c0.7,13,1.2,25.9,1.8,38.9
			c0.1,3.1,0.6,6.3,0.9,9.4c1,11.3,2.1,22.5,2.8,33.8c0.9,13.3,1.4,26.6,2.2,39.8c0.4,5.6,1.5,11.1,1.7,16.7c0.1,2-1.9,4.1-2.9,6.1
			c-1.7-1-3.9-1.6-4.9-3.1c-10.9-16-27.2-23.9-45.1-27.9c-7.3-1.6-14.4-2.4-21.4-5.6c-5.5-2.5-12.4-1.7-18.5-3.2
			c-19.4-4.6-38.7-9.4-57.9-14.4c-7.7-2-14.2-6.5-19.8-12.2c-3.4-3.4-7.4-6.3-10.4-10c-6.6-8-10.1-17.1-11.2-27.7
			c-1.3-12.7-4.7-25.1-6.3-37.8C0,267.3-0.1,257.6,0,248c0.2-20.2,1.8-40.5,1-60.7c-0.8-19.2,2.7-38,3.2-57.1
			c0.1-3.6-0.7-7.3-0.5-10.9C4.4,101.2,5.4,83.1,6.1,65c0.3-6.7-0.2-13.3,0.2-20C7.2,31.1,8.5,17.2,9.7,3.3c0.1-1,0.9-1.9,1.4-2.8
			l1.9,0.1c0,3.6,0.3,7.1,0,10.7c-0.8,12.1-1.9,24.2-2.6,36.3C9.8,58.4,9.5,69.3,9.1,80.1c-0.5,12.1-0.9,24.2-1.4,36.3
			c-0.6,15.3-1.2,30.5-2,45.8c-0.2,3.9,0.9,5.9,5.2,5.9c8.3-0.1,16.7-0.1,25,0.2c7.2,0.3,14.5,1.2,21.7,1.6
			c14.4,0.9,28.8,2,43.2,2.2c20.4,0.4,40.8,0.1,61.3-0.1c5.6,0,11.3-0.6,16.9-0.8c3.5-0.1,4.9-1.6,4.8-5.3
			c-0.4-12.4-0.4-24.9-0.6-37.4c-0.1-13.6,0.6-27.3-0.6-40.8c-2.3-26-2.5-51.8,1.3-77.6c0.6-3.8-1.2-4.9-4.4-4.8
			c-14.1,0.5-28.2,1.3-42.3,1.3c-11.4,0-22.8-1.5-34.2-1.8C89.5,4.5,75.9,4.8,62.4,4.6C50.9,4.5,39.5,4.1,28,3.8
			c-3.7-0.1-7.3-0.4-11-0.6L16.8,1.5L16.8,1.5L16.8,1.5z M192.7,405.8c0.1-2.6,0.3-3.7,0.2-4.8c-0.8-11.4-1.7-22.9-2.3-34.3
			c-1.3-22.4-2.4-44.8-3.7-67.1c-0.8-13.6-1.6-27.2-2.3-40.8c-0.7-14.6-2.5-29.4-1.4-43.9c0.9-11.5-1.1-22.5-1.3-33.7
			c-0.1-4.3-2.2-6.2-7.1-6c-15.3,0.8-30.6,1.2-45.9,1.4c-7.9,0.1-15.9-0.7-23.8-1c-17.3-0.6-34.6-0.9-51.8-1.5
			c-12.4-0.5-24.9-1.3-37.3-2c-9.3-0.5-11.4,1.6-10.4,10.4c0.1,1.2,0.2,2.3,0.2,3.5c-0.3,15.8-0.7,31.5-0.9,47.3
			c-0.1,5.6,1.1,11.6-0.3,16.8c-2.2,8.5,1.1,16.3,1.1,24.4c0,3.5,2.4,7,2.8,10.5c1.3,10.6,0.2,21.6,5.5,31.5c0.3,0.5-0.1,1.3,0.1,2
			c0.7,3.7,1.1,7.5,2.4,11c3,8.3,10,13.7,16.4,19.1c6,5.1,12.8,10.2,20.1,12.5c16.2,5.3,32.9,9.3,49.6,13.1
			c17.4,3.9,35.1,6.2,52.3,10.5c7.8,1.9,15.1,6.5,22.3,10.5C182.3,397.8,186.9,401.6,192.7,405.8L192.7,405.8L192.7,405.8z"/>
		<path d="M291.8,228.8c3.3,2.9,3.5,7.7,8.6,7.3c-0.1,1.2,0.1,3.3-0.3,3.4c-2.3,0.8-4.8,1.1-7.2,1.4c-1.6,0.2-3.2,0.2-4.9,0.1
			c-8.4-0.5-10.7,7.1-15.3,11.5c-9.2,8.8-19.5,15.7-31,21.4c-6.6,3.3-12.5,8.7-13.6,17.3c-1.4,11-0.6,11.5,10.4,8.7
			c10.2-2.6,17.4-9.5,25.1-15.8c12.7-10.5,21.8-10.8,35.6-0.2c3.7,2.8,6.9,6.2,10.4,9.3c3.6,3.1,6.9,3.4,11.2,0.5
			c3.2-2.2,7.4-3.7,11.3-4.3c3.6-0.6,6.4,1.8,5.2,5.9c-1.6,5.5-3.4,11.1-6,16.2c-1.4,2.6-4.9,4.1-7.2,6.4c-1.1,1.1-1.5,2.8-2.3,4.1
			c1.4,0.7,2.7,1.8,4.2,1.9c4.4,0.3,8.9,0.1,13.3,0.3c1.3,0.1,2.6,0.8,3.9,1.2c-0.8,1.1-1.4,3-2.5,3.3c-4.2,1.1-8.3,3.3-13,1.1
			c-2.3-1.1-5.3-1.7-7.7-1.3c-4.6,0.8-8.4,0.4-12.2-2.5c-0.9-0.7-3.1,0.4-4.7,0.6c-3.7,0.6-7.4,1.4-11.2,1.8
			c-6.9,0.8-13.8,1.5-20.7,2c-3.1,0.3-7,1.4-9.2,0c-5.6-3.4-11.4-0.7-17-2c-2.8-0.6-5.7-1.1-8.5-1.4c-2.1-0.2-4.2,0-6.6,0
			c-0.4-1.3-0.8-2.7-1.3-4.3c-5.1,2.1-8.9,1.8-10.4-4.3c-0.4-1.4-1.9-2.6-3.1-3.8c-7.4-7.4-7.9-13.5-1.8-22c0.7-0.9,1.2-2,1.4-3.1
			c2.4-11.7,9.8-19.9,19.6-25.7c9.5-5.6,19.7-9.8,29.6-14.7c1.9-1,3.7-2.2,5.6-3.1c1.9-0.9,3.9-1.7,6.8-2.9
			c0.4-3.8,0.8-8.6,1.3-13.5l0.8,0.2c0.6-1.7,1.9-3.5,1.5-4.9c-2.1-9.2-14.7-16.7-24-14.6c-4.2,1-8.4,2-12.4,3.5
			c-1.7,0.6-2.8,2.5-3.9,4.6c13.3-3,26.6-8.3,35.7,6.7c-0.2,0.6-0.4,1.1-0.6,1.7c-1.9-1.1-4.1-1.8-5.7-3.2
			c-7.5-6.4-15.5-5.5-23.7-1.7c-2.9,1.3-4.6,3.3-4.6,6.9c0,4.3-4,4.5-6.9,4.9c-0.9,0.1-3-3.2-2.9-4.8c0.1-1.6,2.3-3.1,3.7-4.8
			c-2.7-6.4-2.5-7.1,4.1-12.2c11.3-8.8,30.8-8.2,40.4,1.7c3.3,3.4,5.7,7.8,7.8,12.1c1,2.1,2.2,5.5-1.7,7.2c-0.6,0.2-0.9,2.5-0.4,3.4
			c0.4,0.9,2.3,1.8,3,1.5c1.3-0.6,2.6-1.9,3.1-3.2C291.6,232.8,291.5,230.7,291.8,228.8L291.8,228.8L291.8,228.8z M317.4,321
			c3.6-4.6,8.3-10,12.2-15.9c1.6-2.4,3.1-7.4,1.9-8.7c-2.8-3.2-6.2,0.1-8.6,2.1c-4.4,3.8-9.1,3.6-13.4,0.9
			c-7.1-4.5-13.9-9.4-20.5-14.5c-5.8-4.4-14.9-4.5-20.2,0.1c-8.6,7.5-16.9,15.4-28.4,18.6c-6,1.7-11.6,5.4-18.2,2.5
			c-0.7-0.3-1.7-0.3-2.4,0c-1.1,0.5-2.4,1.1-2.9,2.1c-0.3,0.7,0.4,2.3,1.2,2.9c5.9,5.2,11.7,9.9,20.1,10.9c7.3,0.9,14.4,3.6,22,1.4
			c1.2-0.4,3-0.4,3.9,0.2c5.1,3.9,10.5,2,15.8,1.2c4.1-0.6,8.2-1.2,12.2-1.7c4.1-0.5,8.2-0.8,12.4-1.2
			C308.6,321.7,312.7,321.4,317.4,321L317.4,321L317.4,321z M221.5,301.5c0.4,0.1,0.9,0.2,1.3,0.4c0.6-1.9,2.1-4.1,1.6-5.7
			c-1.3-4.6-0.6-8.5,2.2-12.1c1.9-2.4,3.7-4.8,6-6.8c3.6-3.1,7.4-5.9,11.3-8.5c5.1-3.5,10.3-6.7,15.5-10c-0.2-0.5-0.4-1-0.6-1.4
			c-3.8,1-8,1.3-11.3,3.2c-6.8,4-13.1,8.8-19.5,13.4c-1.3,0.9-2.1,2.5-3,3.8C219.8,285.1,220.2,293.2,221.5,301.5L221.5,301.5
			L221.5,301.5z"/>
		<path d="M100.4,117.2c14.7-4.6,19.1-18.4,11.7-30.8c-0.6-1-2.1-2-3.1-1.9c-0.8,0.1-2.1,1.8-2.1,2.8c-0.1,5,0.2,10,0.4,14.9
			c0,1.3,0,2.6,0,4.3c-1-0.3-2.1-0.3-2.3-0.8c-3-6.6-5.6-13.1-1.6-20.4c1.1-2,0.4-4.8,0.8-7.2c0.5-2.9,0.7-6,1.9-8.7
			c1.3-2.8,3.5-5.2,5.4-7.7c3.4-4.6,0.8-7.8-2.6-11.3c-1.8,3-3.4,5.7-4.9,8.4c-1.9,3.7-3.3,3.7-6.1,0.7c-1.4-1.5-3.3-2.6-4.7-3.6
			c-0.2,4.8-0.2,8.7-0.8,12.4c-0.2,1-2,1.8-3,2.7c-0.7-1.2-2.1-2.4-2-3.5c0.4-4.1-1.8-5.9-5.2-6.6C78,60,74.8,57,75.2,53.6
			c0.4-3,4-5.6,6.2-8.4l2.2,1.6c-1.6,2.4-3.3,4.7-5.3,7.7l8.3,5.4l-0.7-13.2c3.8,3,4.4,10.1,10.1,6.2c1.8,1.6,3.3,2.9,5,4.2
			c0.1,0.1,1.9-1.6,1.8-2c-0.7-1.6-1.8-3.1-3.3-5.4l1.5-2.2l6.2,1.8l1-5.5c-2.6-0.2-4.6,0.3-5.5-0.6c-6.5-6-13.4-3.3-20.1-0.9
			c-3.6,1.2-7,3.2-10.4,4.9c-7,3.6-7.1,18-0.3,22.5c2,1.3,3.9,2.9,6.5,4.8c-1.8,0.8-2.8,1.3-3.7,1.8c-3.8,1.6-4.2,3.8-3.2,8
			c1.4,5.9,1.4,12.1,1.9,18.2c0.1,0.6-0.8,1.3-1.9,3.1c-1-5.8-1.7-10.3-2.6-14.9c-0.3-1.5-1.2-2.8-1.9-4.2c-1.2,1-2.6,1.8-3.6,3
			c-5.1,5.8-4.4,12.2-1.5,18.7c2.3,5,4.7,10,7.4,15.7c-2.1,0.3-3.1,0.6-4.1,0.6c-6.2-0.4-12.4-0.9-18.6-1.6
			c-1.4-0.1-2.6-1.1-3.9-1.8c1.1-1.2,2.1-3.4,3.3-3.6c3.7-0.5,7.5-0.2,12.1-0.2c-0.9-3.4-1.6-7.2-3-10.7c-1.9-4.5-0.9-8.5,1.5-12.3
			c3.4-5.5,7.1-10.9,10.4-16.4c0.7-1.1,1.1-3.8,0.5-4.2c-7.1-5.1-6.5-11.8-4-18.8c1.5-4.3,2.7-8.1-2.6-10.9
			c-0.8-0.4-0.8-3.9-0.1-5.3c0.9-1.6,3.4-3.8,4.6-3.4c2.9,0.8,6.2,2.4,8,4.7c2.1,2.8,3.8,3.2,6.6,1.8c4-1.9,8-4,12.2-5.3
			c5.4-1.7,10,0.7,14,4.2c2.6-2.4,4.9-4.5,7.6-7c0.7,1.2,1.4,2,1.2,2.3c-3,5.2-1.4,9.2,1.9,13.9c2.9,4.2,1.6,9.2-1.5,13.5
			c-5.6,7.8-5.4,8.8,0.8,16.1c5.8,6.8,6.1,21,0.8,29c-0.9,1.4-1.1,3.2-1.6,4.8c1.7,0.4,3.5,1.1,5.2,1c9.1-0.4,18.2-1.1,27.3-1.6
			c0.9-0.1,2.6,0.7,2.8,1.4c0.3,1.1,0,2.9-0.8,3.5c-1.2,0.9-3,1.4-4.6,1.4c-7,0.2-14-0.2-20.9,0.3c-4.2,0.3-8.3,1.6-12.3,2.8
			c-0.8,0.2-1.6,1.9-1.6,2.8c0.3,4.1,0.5,8.2,1.7,12.1c1.7,5.2,1,8.8-3.4,10.7c-0.7,0.3-1.9,0.8-2.3,0.5c-3.2-2.9-6.8-2.6-10.6-1.5
			c-0.5,0.1-1.4-1.1-2.1-1.7c0.8-0.6,1.6-1.7,2.5-1.8c3.2-0.4,6.4-0.5,9.6-0.7c-0.2-3.1-0.6-6.1-0.6-9.2c0-2.6,0.2-5.3,1.1-7.7
			c1.2-3.1,1.2-5.1-2.6-5.9C102.5,119.4,101.9,118.4,100.4,117.2L100.4,117.2L100.4,117.2z"/>
		<path d="M264,117.9c-1.1-10.8-2.2-22.3-3.6-33.7c-1.1-8.8-2.7-17.6-4.1-26.4c-0.7-4.3,0.6-7.6,4.5-9.6c6.5-3.2,12.9-7.7,19.8-9
			c5.9-1.1,12.5,1.4,18.7,2.7c2.5,0.5,5,1.8,7.4,2.8l1.4-1.5c0.6,2.5,1.3,4.9,1.6,7.4c1.3,10.4,3,20.7,3.6,31.1
			c0.5,8.8-0.4,17.6-0.6,26.4c-0.1,4,0.2,7.9-0.1,11.9c-0.1,1.5-0.8,3.6-1.8,4.1c-1,0.5-2.8-0.8-4.3-1.4c-2.7-1.2-5.3-3-8.1-3.6
			c-7.6-1.7-15.2-2.1-22.7,1.4c-2,1-5.4-0.9-8.7-1.5v4.1c-3.2,2-6.5,3.9-9-0.8c-0.7-1.4-0.2-3.4-0.3-5.2
			C259.7,117.2,261.5,117.5,264,117.9L264,117.9L264,117.9z M267.7,97.8L267.7,97.8c0,3-0.2,6,0,9c0.3,2.8,0.5,5.8,1.8,8.2
			c0.7,1.4,3.7,2.9,4.9,2.4c8.9-3.8,17.7-6.8,27.3-2.7c1.2,0.5,2.6,0.6,3.9,0.7c3,0.3,4.3-0.9,3.6-4.1c-0.5-2.6-1-5.4-0.6-7.9
			c2.7-16.3-2-32.1-4.1-47.9c-0.9-6.9-6.8-10-13.1-11.4c-8.5-1.9-16.4,0.3-23.9,4.7c-3.8,2.2-4.5,4.8-3.6,9.1
			c1.7,8.2,2.8,16.6,3.6,25C268.1,87.8,267.7,92.8,267.7,97.8L267.7,97.8L267.7,97.8z"/>
		<path d="M251.5,53.5c-2.1-1.1-4-1.7-5.3-2.8c-8.1-7.3-17.2-5.8-26.3-3c-3.8,1.2-5.3,3.7-4.2,8.1c2.9,11.6,4.6,23.4,3.6,35.5
			c-0.5,6.1,0.4,12.3,0.6,18.4c0.1,3.9,1.4,6.5,5.7,5.9c2.4,5.2-1.4,5.4-4.8,6.4c5.1,0.9,9.5,4.4,15,1.8c1.9-0.9,4.5-0.7,6.7-0.3
			c5.6,1,12.3,0.9,16.5,4c7.3,5.3,12.4-0.1,17.7-2c10.9-3.9,20.9-2.7,31.1,1.9c-1,4-3.4,4-6.2,3.3c-3.7-0.9-7.5-1.6-11-2.9
			c-4.5-1.5-8.5-0.7-12.5,1.4c-3.8,2-7.5,4.2-11.5,5.6c-1.8,0.7-4.8,0.4-6.3-0.7c-3.8-2.8-7.4-4.9-12.3-3.6
			c-0.6,0.2-1.4-0.1-1.9-0.3c-8.3-4-16.7-2.7-25.2-1.1c-1.2,0.2-3.8-1.1-3.9-1.9c-0.8-6.4-1.1-12.8-1.5-19.2
			c-0.4-7.9-0.3-16-1.2-23.9c-1-8.8-2.7-17.6-4.4-26.3c-0.6-3.2,2-10.8,5.1-12.6c9-5.1,18.4-6.3,28.3-3.1
			C247.5,43.6,251.9,49.4,251.5,53.5L251.5,53.5L251.5,53.5z"/>
		<path d="M90.8,146c-4.9,0-9.9,0.3-14.8-0.2c-1.1-0.1-2.5-3.3-2.5-5.1c-0.1-9.2,0-18.5,0.5-27.7c0.1-1.8,2.6-3.5,4-5.2
			c0.5,1.9,0.9,3.8,1.4,5.7c0.5,2.2,0.6,4.6,1.8,6.4c1.6,2.4,3.2,3.3,0,6.6c-2.6,2.7-2.3,8.5-2.2,13c0,1,4.6,1.9,7.1,2.8
			c1.6,0.6,3.3,1,4.9,1.5L90.8,146L90.8,146L90.8,146z"/>
		<path d="M229.7,119.5l-2.4-4.8c4-0.2,7.3-0.6,10.6-0.6c5,0.1,9.9,0.2,14.8,0.7c1,0.1,1.8,1.8,2.7,2.7c-1.3,0.8-2.6,2.4-3.8,2.2
			c-5.3-0.6-10.5-1.9-15.8-2.5C234.1,117.2,232.2,118.6,229.7,119.5L229.7,119.5z"/>
		<path d="M274.7,240.4c-3.3-0.6-5.3-1-7.3-1.4c-2.4-0.5-4.9-0.9-7.1-2c-0.6-0.3-0.5-4.1,0.2-4.4c2.6-1.2,5.7-2.7,8.5-2.4
			C274.6,231,273,236.3,274.7,240.4L274.7,240.4L274.7,240.4z"/>
		<path d="M227.6,329.4c-2.6,0.8-5.2,2.5-7.6,2.2c-3-0.5-5.9-2.4-8.5-4.1c-0.6-0.4-0.4-3.6,0.3-3.9c1.4-0.7,3.5-0.9,4.9-0.3
			c3.4,1.3,6.7,3.2,10,4.8C227,328.5,227.3,328.9,227.6,329.4L227.6,329.4L227.6,329.4z"/>
		<path d="M98.8,123.2c-3.2-0.5-5.4-0.3-7-1.2c-0.9-0.5-1.6-3.4-1.1-4.1c1.7-2.3,4-4.2,6.3-5.9c1.1-0.8,2.7-1.1,2.7-2.2
			c-2.2,2.1-4.3,4.3-6.5,6.5l1.8,2.3C96,119.7,97,120.9,98.8,123.2L98.8,123.2L98.8,123.2z"/>
		<path d="M229.3,70l1.5,8.8l-1.1,1.1c-1.6-1.1-4.5-2.2-4.6-3.4c-0.1-2.3,1.4-4.7,2.2-7.1C228,69.6,228.6,69.8,229.3,70L229.3,70
			L229.3,70z"/>
		<path d="M253.6,78.3c-1.8,1-3.2,2.2-3.7,1.9c-1.5-0.9-3.2-2.1-3.9-3.7c-0.3-0.7,1.5-2.4,2.4-3.7C249.9,74.5,251.5,76.1,253.6,78.3
			L253.6,78.3L253.6,78.3z"/>
		<path d="M255.1,91.5c-4.5,3.4-6.8,1.8-8.8-0.2c-0.4-0.4,0.6-2.2,1-3.3C249.5,88.9,251.8,90,255.1,91.5L255.1,91.5L255.1,91.5z"/>
		<path d="M230.8,86.5v8.2c-2-2.1-3.9-3.1-4-4.2c-0.1-1.5,1.3-3.1,2.1-4.7L230.8,86.5z"/>
		<path d="M239.4,59.8c-2.4,0.8-3.7,1.7-4.8,1.5c-1.1-0.2-2-1.6-2.9-2.4c0.9-1,2.2-3,2.7-2.9C235.9,56.5,237.1,57.8,239.4,59.8z"/>
		<path d="M228.6,60.9c-6.2-1.9-6.5-3.3-2.4-8.1C227,55.5,227.7,57.8,228.6,60.9z"/>
		<path d="M238,72.9c-0.1,2-0.2,4-0.3,6c-1-0.3-2.9-0.6-2.9-1c-0.1-1.8,0.3-3.5,0.5-5.3C235.2,72.6,238,72.9,238,72.9z"/>
		<path d="M237.1,102.2c-1.6,0.9-2.6,2-3.1,1.8c-1.3-0.6-2.4-1.7-3.5-2.6c0.9-0.9,2-2.7,2.5-2.5C234.2,99.4,235.3,100.7,237.1,102.2
			z"/>
		<path d="M243.8,100.2c1.5,1.9,2.5,3.1,3.4,4.3c-0.9,0.6-1.9,1.8-2.6,1.6c-1.2-0.3-2.5-1.3-3.1-2.4
			C241.3,103.3,242.7,101.9,243.8,100.2z"/>
		<path d="M248,60.9c-1.8,0.2-3.6,0.4-5.5,0.6c0.3-1.2,0.4-3.2,0.8-3.3c1.5-0.3,3.1,0.2,4.7,0.3C248,58.6,248,60.9,248,60.9z"/>
		<path d="M60.7,305.2c0.9,2.6,1.6,4.4,2.6,7.1c1.5-1.4,3.2-2.2,3.6-3.4c4.5-12.8,14.5-21.2,23.3-30.7c3.5-3.8,6.5-8,9.8-11.9
			c0.9-1,2.2-1.7,3.3-2.5c0.8,1.1,1.8,2.2,2.4,3.4c1.6,3.6,2.8,7.4,4.4,11c2.9,6.9,5.8,13.7,9,20.4c2.8,6,6.1,11.7,9.1,17.6
			c0.2,0.4,0.6,1.1,0.9,1.2c7,0.1,4.9,6,6.2,9.7c1.4,4.2,3.2,8.3,4.6,12.5c0.2,0.7-1.1,2.6-1.4,2.5c-1.3-0.4-3.5-1.1-3.5-1.9
			c-0.5-6-4.6-7.8-9.4-10.1c-4.8-2.4-8.7-6.5-12.7-10.3c-1.1-1-0.8-3.5-1.1-5.3c1.6,0.3,3.3,0.5,4.9,0.8c1.4,0.3,2.7,0.8,4,1.2
			c0.2-1.5,1-3.4,0.5-4.6c-2.1-5-4.7-9.8-7.1-14.6c-3.3-6.7-6.8-13.4-9.9-20.1c-1.8-3.9-3.7-3.1-6-0.7c-3.8,4-7.8,7.8-11.2,12.1
			c-6.1,7.6-11.8,15.5-17.5,23.5c-1.2,1.7-1.4,4.1-2.5,7.6c4.8-2.4,8.1-4,11.4-5.6l1.1,1.4c-0.8,1.2-1.4,2.7-2.5,3.7
			c-4.3,3.9-8.7,7.7-13.3,11.2c-0.9,0.7-3.3,0.8-4.1,0.1c-2.8-2.6-3.9-19.3-1.8-22.5C58.6,307.2,59.4,306.6,60.7,305.2L60.7,305.2
			L60.7,305.2z"/>
		<path d="M176.1,221.3c-4.6-2-7.8-3.4-12.3-5.3c1.3,2.5,1.9,4.5,3.2,6c2.5,2.9,3,5.4,0.1,8.3c-0.9,0.9-1.7,2-2.3,3.2
			c-2.4,4.5-4.3,4.8-8.2,1.3c-1.5-1.3-2.9-2.7-4.4-4c-0.3-0.2-0.9,0-2.7,0.2c1.8,2.6,3.3,4.7,4.9,6.9c-2.8,2.5-5.1,1.1-6.7-1.1
			c-1.3-1.8-1.8-4.2-3.1-7.4c-1.4,3.6-2.2,5.9-3.2,8.5c2.1,1.7,4.5,3.6,8,6.5c-2.8,0.5-4.1,0.9-5.3,0.8c-3.7-0.1-6.8,0-7.7,4.9
			c-0.6,3.2-3.5,2.7-6.6,1.3c2.6-3.8,5-7.4,8.1-11.9c-3.3,0.3-5.7,0.5-8,0.8c-3.1,0.4-4.4-0.8-3.8-4c0.5-2.8,0.7-5.6,1.5-8.3
			c0.5-1.5,1.9-2.7,2.9-4l1.6,0.5c-0.2,3.4-0.4,6.7-0.7,11.5c3.7-1.9,6.4-3,8.7-4.7c0.7-0.6,0.8-3.2,0.1-4.3
			c-2.4-3.7-1.3-7.1,0.3-10.4c0.5-1,2.2-1.4,3.3-2.1c0.2,1.2,0.7,2.4,0.6,3.6c-0.1,1.5-1,2.9-0.8,4.4c0.1,1.7,0.7,3.5,1.7,4.8
			c0.3,0.4,3.2-0.3,3.8-1.3c0.9-1.4,1.7-3.8,1.1-5.2c-1.6-3.9-2.8-7.6,0-11.3c0.9-1.2,2.7-1.7,4-2.6c-0.1,1.6,0.4,3.8-0.5,4.8
			c-2.4,2.8-2.5,5.6-0.5,8.2c1,1.4,3.2,1.8,4.9,2.6c0.7-1.6,1.8-3,2.1-4.7c0.8-3.9,0.9-7.8,1.8-11.6c0.3-1.3,2.6-3.4,2.9-3.2
			c2,1.2,5.1,2.7,5.2,4.4c0.3,3.4,0.9,5.9,3.9,8C175.3,216.2,175.3,218.5,176.1,221.3L176.1,221.3L176.1,221.3z"/>
		<path d="M92,244.1v-7.8c1.9,1.8,3.7,2.7,3.9,3.9c1.4,7.2,2.5,14.5,4,23.4c-2.2-2-4.2-3-5-4.7c-1.4-2.8-2.5-4.8-6.3-4.1
			c-2.4,0.4-2.9-1.2-2.2-3.6c0.6-1.9,0.4-4.1,0.6-6.4c-7.8,1.3-7.8,1.3-9.2-5.8c-0.7-3.5-2.2-5.1-6.1-4.9c-3.8,0.2-7.7-0.1-11.4-0.8
			c-1.6-0.3-2.8-2-4.2-3.1c1.3-1.3,2.8-3.6,4-3.6c2.5,0.1,5,1.6,8.5,2.8c-0.3,0.2,0.6-0.3,1.3-0.9c2.8-2.3,5.3-2.5,7.6,0.6
			c3,4,5.9,8,9.1,11.8C87.7,242.1,89.5,242.7,92,244.1L92,244.1L92,244.1z"/>
		<path d="M119.4,231c-0.2,2.2-0.3,4.4-0.7,6.5c-1.3,7.4-0.2,8.3,7.1,5.8c0.6-0.2,1.2-0.2,2.1-0.4c0.9,4.1-0.5,6.8-3.8,8.9
			c-3,1.9-5.6,4.3-8.4,6.5c-0.2,0.2-0.4,0.6-0.6,0.8c-1.9,1.2-3.8,2.4-5.8,3.5c-0.1,0.1-1.4-1.5-1.3-1.6c1.2-1.6,2.4-3.4,4.1-4.6
			c3-2.2,4.4-4.8,3.6-8.6c-0.6-3.1-1.3-6.3-1.1-9.4c0.2-2.8,1.5-5.5,2.3-8.2L119.4,231L119.4,231L119.4,231z"/>
		<path d="M71.2,224.1c-5.4-5.9-4.9-22.4,1-26.7C71.8,206.5,75.2,214.9,71.2,224.1z"/>
		<path d="M57.4,210.4c-1.3,0.6-2.4,1.6-3.1,1.3c-4.7-1.5-9.4-2.9-13.8-5c-1.3-0.6-1.8-3.2-2.6-5c1.7-0.3,3.8-1.4,5.1-0.8
			c4.1,1.8,7.9,4.1,11.8,6.3C55.7,207.9,56.3,209,57.4,210.4z"/>
		<path d="M64.9,222c-1.1,0.8-2,2-2.7,1.9c-4.4-0.6-8.9-1.3-13.2-2.4c-2.4-0.6-6-1.1-4.6-4.9c1.4-3.9,4.4-2.3,7.1-1.3
			c3.8,1.5,7.7,3,11.6,4.6C63.6,220.2,64,221,64.9,222L64.9,222z"/>
		<path d="M62.7,190.9c0.6,8.1,1.2,15.2,1.8,23.5c-5.5-3.6-4.7-9.1-6.3-13.3C56.8,197.8,57.5,194,62.7,190.9L62.7,190.9L62.7,190.9z
			"/>
		<path d="M82.8,225.4c-4.4-4.9-4.5-13.3,0-19.1V225.4z"/>
		<path d="M91.4,234.1c-5.3-3.1-5.1-8.9,0-16.9V234.1z"/>
		<path d="M284.9,308.5c-3.2-2.3-4.8-5.9-9-3.3c-0.8,0.5-2.5-0.3-3.6-0.9c-0.3-0.2-0.3-2.1,0.2-2.6c1.4-1.3,2.9-2.5,4.6-3.3
			c0.6-0.3,1.8,0.7,2.8,0.9c4.5,0.8,9.1,1.5,13.6,2.3c1.3,0.2,2.6,1,3.9,1.5c-0.7,1-1.1,2.4-2.1,3c-4.5,3.1-8.4,6.8-14.3,8.4
			c-9.5,2.6-18.4,0.4-27.6-0.4c-0.9-0.1-2.1-0.6-2.6-1.3c-1.2-1.6-2.2-3.5-3.2-5.3c2-0.2,4.4-1.1,6-0.4c8.8,3.9,17.9,4.5,27.3,3.8
			C282.1,310.8,283.2,309.6,284.9,308.5L284.9,308.5L284.9,308.5z"/>
		<path d="M291.9,69.7c1.6-0.6,4.4-1.9,4.7-1.5c1.3,1.6,1.7,3.8,2.5,5.9c-2.4-0.7-4.8-1.5-7.1-2.2C291.9,71.2,291.9,70.4,291.9,69.7
			L291.9,69.7L291.9,69.7z"/>
		<path d="M291.5,103c-1.2-1.7-2.5-2.9-2.7-4.2c-0.1-0.6,2.4-2.5,2.8-2.2c1.5,0.8,2.7,2.4,4,3.6C294.6,101,293.5,101.7,291.5,103
			L291.5,103L291.5,103z"/>
		<path d="M277.8,58.4c-0.9-1.1-2.5-2.2-2.6-3.3c-0.1-0.9,1.7-2,2.6-3c1.2,1.2,2.9,2.2,3.5,3.6c0.4,1-0.8,2.6-1.3,3.9
			C279.3,59.3,278.5,58.9,277.8,58.4z"/>
		<path d="M290.8,58.4c-1.9-1-3.7-2.1-5.6-3.1l1.7-2.8c1.8,1.1,3.5,2.2,5.3,3.4C291.7,56.8,291.3,57.6,290.8,58.4L290.8,58.4
			L290.8,58.4z"/>
		<path d="M277.8,97.5c0.1,2,0.2,4,0.3,5.9c-1.1-0.3-3.2-0.6-3.2-0.9c-0.1-1.7,0.4-3.4,0.7-5.1L277.8,97.5L277.8,97.5L277.8,97.5z"
			/>
		<path d="M277.6,68.3l0.7,5.8c-0.9,0-2.4,0.3-2.5,0.1c-0.5-1.8-0.8-3.7-1.2-5.5L277.6,68.3z"/>
		<path d="M289,72l-5.5-0.8c0.2-1.2,0.4-2.4,0.6-3.6l5.4,1.8L289,72L289,72L289,72z"/>
	</g>
</g>
<g id="Layer_3">
	<g>
		<path d="M16.8,1.5C19.5,1,22.1,0,24.8,0C42.9,0.2,61,0.8,79.1,1.1c28.4,0.5,56.8,1,85.2,1.1c21.8,0.1,43.6-0.6,65.4-0.3
			c22.1,0.3,44.1,1.4,66.2,1.9c7.6,0.2,15.3-0.4,23-0.8c6.6-0.4,12.7,1.7,19.1,3c9,1.8,5.8,6.8,5.9,11.3c0.2,13.3-0.1,26.6,0.2,39.8
			c0.3,10.8,0.1,21.8,2.4,32.2c1.5,6.9,2,13.6,2.5,20.5c1.6,22.4,3.4,44.7,5.3,67c0.4,5.1,1.3,10.2,2,15.3c1.5,12.3,2.7,24.7,4.5,37
			c2.6,18.6,1.4,37.3,1.4,56c0,10.5-0.8,21-0.5,31.4c0.5,15.5-7.5,26-19.8,33.5c-12.1,7.3-25.1,12.4-38.8,16.5
			c-13.8,4.1-27.1,10-40.5,15.5c-10.3,4.2-20.3,9-30.4,13.6c-1.9,0.9-3.7,2.1-5.4,3.4c-7.7,6-15.5,11.9-21.5,19.8
			c-0.8,1.1-2.7,1.3-4.2,1.9c0-1.5-0.3-3.1,0.1-4.4c2.7-8,9.7-12,16-16.6c11.2-8.1,24.2-13.1,36.4-19.4c22.4-11.6,47.1-16.2,70-25.9
			c6.4-2.7,12.6-6,18.5-9.8c11.9-7.8,15.5-19.8,15.4-33.2c-0.1-17.3-0.7-34.6-1-52c-0.1-3.3,0.5-6.7,0.2-10
			c-1.1-13.2-2.6-26.4-3.8-39.6c-1-12.1-1.6-24.2-2.6-36.2c-1.2-14.6-2.6-29.2-4.3-43.7c-1.5-12.7-4-25.4-5.1-38.1
			c-1.2-14.5-1.4-29.2-1.8-43.8c-0.3-11.4-0.4-22.9-0.5-34.3c0-3.4-1.4-4.3-4.8-3.4c-1.5,0.4-3.4-0.2-5-0.6
			c-2.9-0.7-5.6-2.3-8.5-2.4c-15.6-0.2-31.2,0.1-46.9-0.1c-15.9-0.2-31.8-1-47.7-1.3c-7.6-0.2-15.3,0.2-22.9,0.3c-1.5,0-3,0-4.5-0.1
			c-9.8-1.2-10.1-1.1-11.2,8.6c-1.2,10.8-2.9,21.5-2.8,32.3c0,12.2,1.9,24.4,2.7,36.6c0.5,7.5-0.1,15,0.8,22.4
			c1.1,8.9-0.1,17.4-0.9,26.2c-0.9,9.5-0.3,19.1,0.1,28.7c0.3,7.2,2.9,9,10,8.9c14.8-0.1,29.6,0.2,44.3,0.2c7.3,0,14.6-0.2,21.9-0.2
			c11.6-0.1,23.2-0.1,34.8-0.1c12.5,0.1,24.9,0.3,37.3,0.4c0.7,0,1.3,0,2,0.1c2.1,0.3,5.1,0.3,4,3.4c-0.4,1.3-3.2,2.6-4.8,2.5
			c-6.8-0.4-13.5-2-20.2-2.1c-11.1-0.1-22.2,0.9-33.3,0.9c-12.8,0.1-25.6-0.4-38.4-0.5c-14.4-0.1-28.8,0-43.2-0.1
			c-2.5,0-5-0.1-7.5-0.3c-5.8-0.5-8.1,1.6-7.6,7.4c0.4,5.4,1.4,10.9,1.5,16.3c0.4,16.9,0.3,33.8,0.7,50.8c0.2,8.5,1.1,16.9,1.6,25.4
			c0.7,13,1.2,25.9,1.8,38.9c0.1,3.1,0.6,6.3,0.9,9.4c1,11.3,2.1,22.5,2.8,33.8c0.9,13.3,1.4,26.6,2.2,39.8
			c0.4,5.6,1.5,11.1,1.7,16.7c0.1,2-1.9,4.1-2.9,6.1c-1.7-1-3.9-1.6-4.9-3.1c-10.9-16-27.2-23.9-45.1-27.9
			c-7.3-1.6-14.4-2.4-21.4-5.6c-5.5-2.5-12.4-1.7-18.5-3.2c-19.4-4.6-38.7-9.4-57.9-14.4c-7.7-2-14.2-6.5-19.8-12.2
			c-3.4-3.4-7.4-6.3-10.4-10c-6.6-8-10.1-17.1-11.2-27.7c-1.3-12.7-4.7-25.1-6.3-37.8C0,267.3-0.1,257.6,0,248
			c0.2-20.2,1.8-40.5,1-60.7c-0.8-19.2,2.7-38,3.2-57.1c0.1-3.6-0.7-7.3-0.5-10.9C4.4,101.2,5.4,83.1,6.1,65
			c0.3-6.7-0.2-13.3,0.2-20C7.2,31.1,8.5,17.2,9.7,3.3c0.1-1,0.9-1.9,1.4-2.8l1.9,0.1c0,3.6,0.3,7.1,0,10.7
			c-0.8,12.1-1.9,24.2-2.6,36.3C9.8,58.4,9.5,69.3,9.1,80.1c-0.5,12.1-0.9,24.2-1.4,36.3c-0.6,15.2-1.2,30.5-2,45.8
			c-0.2,3.9,0.9,5.9,5.2,5.9c8.3-0.1,16.7-0.1,25,0.2c7.2,0.3,14.5,1.2,21.7,1.6c14.4,0.9,28.8,2,43.2,2.2
			c20.4,0.4,40.8,0.1,61.3-0.1c5.6,0,11.3-0.6,16.9-0.8c3.5-0.1,4.9-1.6,4.8-5.3c-0.4-12.4-0.4-24.9-0.6-37.4
			c-0.1-13.6,0.6-27.3-0.6-40.8c-2.3-26-2.5-51.8,1.3-77.6c0.6-3.8-1.2-4.9-4.4-4.8c-14.1,0.5-28.2,1.3-42.3,1.3
			c-11.4,0-22.8-1.5-34.2-1.8C89.5,4.5,75.9,4.8,62.4,4.6C50.9,4.5,39.5,4.1,28,3.8c-3.7-0.1-7.3-0.4-11-0.6L16.8,1.5L16.8,1.5
			L16.8,1.5z M192.7,405.8c0.1-2.6,0.3-3.7,0.2-4.8c-0.8-11.4-1.7-22.9-2.3-34.3c-1.3-22.4-2.4-44.8-3.7-67.1
			c-0.8-13.6-1.6-27.2-2.3-40.8c-0.7-14.6-2.5-29.4-1.4-43.9c0.9-11.5-1.1-22.5-1.3-33.7c-0.1-4.3-2.2-6.2-7.1-6
			c-15.3,0.8-30.6,1.2-45.9,1.4c-7.9,0.1-15.9-0.7-23.8-1c-17.3-0.6-34.6-0.9-51.8-1.5c-12.4-0.5-24.9-1.3-37.3-2
			c-9.3-0.5-11.4,1.6-10.4,10.4c0.1,1.2,0.2,2.3,0.2,3.5c-0.3,15.8-0.7,31.5-0.9,47.3c-0.1,5.6,1.1,11.6-0.3,16.8
			c-2.2,8.5,1.1,16.3,1.1,24.4c0,3.5,2.4,7,2.8,10.5c1.3,10.6,0.2,21.6,5.5,31.5c0.3,0.5-0.1,1.3,0.1,2c0.7,3.7,1.1,7.5,2.4,11
			c3,8.3,10,13.7,16.4,19.1c6,5.1,12.8,10.2,20.1,12.5c16.2,5.3,32.9,9.3,49.6,13.1c17.4,3.9,35.1,6.2,52.3,10.5
			c7.8,1.9,15.1,6.5,22.3,10.5C182.3,397.8,186.9,401.6,192.7,405.8L192.7,405.8L192.7,405.8z"/>
		<path d="M291.8,228.8c3.3,2.9,3.5,7.7,8.6,7.3c-0.1,1.2,0.1,3.3-0.3,3.4c-2.3,0.8-4.8,1.1-7.2,1.4c-1.6,0.2-3.2,0.2-4.9,0.1
			c-8.4-0.5-10.7,7.1-15.3,11.5c-9.2,8.8-19.5,15.7-31,21.4c-6.6,3.3-12.5,8.7-13.6,17.3c-1.4,11-0.6,11.5,10.4,8.7
			c10.2-2.6,17.4-9.5,25.1-15.8c12.7-10.5,21.8-10.8,35.6-0.2c3.7,2.8,6.9,6.2,10.4,9.3c3.6,3.1,6.9,3.4,11.2,0.5
			c3.2-2.2,7.4-3.7,11.3-4.3c3.6-0.6,6.4,1.8,5.2,5.9c-1.6,5.5-3.4,11.1-6,16.2c-1.4,2.6-4.9,4.1-7.2,6.4c-1.1,1.1-1.5,2.8-2.3,4.1
			c1.4,0.7,2.7,1.8,4.2,1.9c4.4,0.3,8.9,0.1,13.3,0.3c1.3,0.1,2.6,0.8,3.9,1.2c-0.8,1.1-1.4,3-2.5,3.3c-4.2,1.1-8.3,3.3-13,1.1
			c-2.3-1.1-5.3-1.7-7.7-1.3c-4.6,0.8-8.4,0.4-12.2-2.5c-0.9-0.7-3.1,0.4-4.7,0.6c-3.7,0.6-7.4,1.4-11.2,1.8
			c-6.9,0.8-13.8,1.5-20.7,2c-3.1,0.3-7,1.4-9.2,0c-5.6-3.4-11.4-0.7-17-2c-2.8-0.6-5.7-1.1-8.5-1.4c-2.1-0.2-4.2,0-6.6,0
			c-0.4-1.3-0.8-2.7-1.3-4.3c-5.1,2.1-8.9,1.8-10.4-4.3c-0.4-1.4-1.9-2.6-3.1-3.8c-7.4-7.4-7.9-13.5-1.8-22c0.7-0.9,1.2-2,1.4-3.1
			c2.4-11.7,9.8-19.9,19.6-25.7c9.5-5.6,19.7-9.9,29.6-14.7c1.9-1,3.7-2.2,5.6-3.1c1.9-0.9,3.9-1.7,6.8-2.9
			c0.4-3.8,0.8-8.6,1.3-13.5l0.8,0.2c0.6-1.7,1.9-3.5,1.5-4.9c-2.1-9.2-14.7-16.7-24-14.6c-4.2,1-8.4,2-12.4,3.5
			c-1.7,0.6-2.8,2.5-3.9,4.6c13.3-3,26.6-8.3,35.7,6.7c-0.2,0.6-0.4,1.1-0.6,1.7c-1.9-1.1-4.1-1.8-5.7-3.2
			c-7.5-6.4-15.5-5.5-23.7-1.7c-2.9,1.3-4.6,3.3-4.6,6.9c0,4.3-4,4.5-6.9,4.9c-0.9,0.1-3-3.2-2.9-4.8c0.1-1.6,2.3-3.1,3.7-4.8
			c-2.7-6.4-2.5-7.1,4.1-12.2c11.3-8.8,30.8-8.2,40.4,1.7c3.3,3.4,5.7,7.8,7.8,12.1c1,2.1,2.2,5.5-1.7,7.2c-0.6,0.2-0.9,2.5-0.4,3.4
			c0.4,0.9,2.3,1.8,3,1.5c1.3-0.6,2.6-1.9,3.1-3.2C291.6,232.8,291.5,230.7,291.8,228.8L291.8,228.8L291.8,228.8z M317.4,321
			c3.6-4.6,8.3-10,12.2-15.9c1.6-2.4,3.1-7.4,1.9-8.7c-2.8-3.2-6.2,0.1-8.6,2.1c-4.4,3.8-9.1,3.6-13.4,0.9
			c-7.1-4.5-13.9-9.4-20.5-14.5c-5.8-4.4-14.9-4.5-20.2,0.1c-8.6,7.5-16.9,15.4-28.4,18.6c-6,1.7-11.6,5.4-18.2,2.5
			c-0.7-0.3-1.7-0.3-2.4,0c-1.1,0.5-2.4,1.1-2.9,2.1c-0.3,0.7,0.4,2.3,1.2,2.9c5.9,5.2,11.7,9.9,20.1,10.9c7.3,0.9,14.4,3.6,22,1.4
			c1.2-0.4,3-0.4,3.9,0.2c5.1,3.9,10.5,2,15.8,1.2c4.1-0.6,8.2-1.2,12.2-1.7c4.1-0.5,8.2-0.8,12.4-1.2
			C308.6,321.7,312.7,321.4,317.4,321L317.4,321L317.4,321z M221.5,301.5c0.4,0.1,0.9,0.2,1.3,0.4c0.6-1.9,2.1-4.1,1.6-5.7
			c-1.3-4.6-0.6-8.5,2.2-12.1c1.9-2.4,3.7-4.8,6-6.8c3.6-3.1,7.4-5.9,11.3-8.5c5.1-3.5,10.3-6.7,15.5-10c-0.2-0.5-0.4-1-0.6-1.4
			c-3.8,1-8,1.3-11.3,3.2c-6.8,4-13.1,8.8-19.5,13.4c-1.3,0.9-2.1,2.5-3,3.8C219.8,285.1,220.2,293.2,221.5,301.5L221.5,301.5
			L221.5,301.5z"/>
		<path d="M100.4,117.2c14.7-4.6,19.1-18.4,11.7-30.8c-0.6-1-2.1-2-3.1-1.9c-0.8,0.1-2.1,1.8-2.1,2.8c-0.1,5,0.2,10,0.4,14.9
			c0,1.3,0,2.6,0,4.3c-1-0.3-2.1-0.3-2.3-0.8c-3-6.6-5.6-13.1-1.6-20.4c1.1-2,0.4-4.8,0.8-7.2c0.5-2.9,0.7-6,1.9-8.7
			c1.3-2.8,3.5-5.2,5.4-7.7c3.4-4.6,0.8-7.8-2.6-11.3c-1.8,3-3.4,5.7-4.9,8.4c-1.9,3.7-3.3,3.7-6.1,0.7c-1.4-1.5-3.3-2.6-4.7-3.6
			c-0.2,4.8-0.2,8.7-0.8,12.4c-0.2,1-2,1.8-3,2.7c-0.7-1.2-2.1-2.4-2-3.5c0.4-4.1-1.8-5.9-5.2-6.6C78,60,74.8,57,75.2,53.6
			c0.4-3,4-5.6,6.2-8.4l2.2,1.6c-1.6,2.4-3.3,4.7-5.3,7.7l8.3,5.4l-0.7-13.2c3.8,3,4.4,10.1,10.1,6.2c1.8,1.6,3.3,2.9,5,4.2
			c0.1,0.1,1.9-1.6,1.8-2c-0.7-1.6-1.8-3.1-3.3-5.4l1.5-2.2l6.2,1.8l1-5.5c-2.6-0.2-4.6,0.3-5.5-0.6c-6.5-6-13.4-3.3-20.1-0.9
			c-3.6,1.2-7,3.2-10.4,4.9c-7,3.6-7.1,18-0.3,22.5c2,1.3,3.9,2.9,6.5,4.8c-1.8,0.8-2.8,1.3-3.7,1.8c-3.8,1.6-4.2,3.8-3.2,8
			c1.4,5.9,1.4,12.1,1.9,18.2c0.1,0.6-0.8,1.3-1.9,3.1c-1-5.8-1.7-10.3-2.6-14.9c-0.3-1.5-1.2-2.8-1.9-4.2c-1.2,1-2.6,1.8-3.6,3
			c-5.1,5.8-4.4,12.2-1.5,18.7c2.3,5,4.7,10,7.4,15.7c-2.1,0.3-3.1,0.6-4.1,0.6c-6.2-0.4-12.4-0.9-18.6-1.6
			c-1.4-0.1-2.6-1.1-3.9-1.8c1.1-1.2,2.1-3.4,3.3-3.6c3.7-0.5,7.5-0.2,12.1-0.2c-0.9-3.4-1.6-7.2-3-10.7c-1.9-4.5-0.9-8.5,1.5-12.3
			c3.4-5.5,7.1-10.9,10.4-16.4c0.7-1.1,1.1-3.8,0.5-4.2c-7.1-5.1-6.5-11.8-4-18.8c1.5-4.3,2.7-8.1-2.6-10.9
			c-0.8-0.4-0.8-3.9-0.1-5.3c0.9-1.6,3.4-3.8,4.6-3.4c2.9,0.8,6.2,2.4,8,4.7c2.1,2.8,3.8,3.2,6.6,1.8c4-1.9,8-4,12.2-5.3
			c5.4-1.7,10,0.7,14,4.2c2.6-2.4,4.9-4.5,7.6-7c0.7,1.2,1.4,2,1.2,2.3c-3,5.2-1.4,9.2,1.9,13.9c2.9,4.2,1.6,9.2-1.5,13.5
			c-5.6,7.8-5.4,8.9,0.8,16.1c5.8,6.8,6.1,21,0.8,29c-0.9,1.4-1.1,3.2-1.6,4.8c1.7,0.4,3.5,1.1,5.2,1c9.1-0.4,18.2-1.1,27.3-1.6
			c0.9-0.1,2.6,0.7,2.8,1.4c0.3,1.1,0,2.9-0.8,3.5c-1.2,0.9-3,1.4-4.6,1.4c-7,0.2-14-0.2-20.9,0.3c-4.2,0.3-8.3,1.6-12.3,2.8
			c-0.8,0.2-1.6,1.9-1.6,2.8c0.3,4,0.5,8.2,1.7,12c1.7,5.2,1,8.8-3.4,10.7c-0.7,0.3-1.9,0.8-2.3,0.5c-3.2-2.9-6.8-2.6-10.6-1.5
			c-0.5,0.1-1.4-1.1-2.1-1.7c0.8-0.6,1.6-1.7,2.5-1.8c3.2-0.4,6.4-0.5,9.6-0.7c-0.2-3.1-0.6-6.1-0.6-9.2c0-2.6,0.2-5.3,1.1-7.7
			c1.2-3.1,1.2-5.1-2.6-5.9C102.5,119.4,101.9,118.4,100.4,117.2L100.4,117.2L100.4,117.2z"/>
		<path d="M264,117.9c-1.1-10.8-2.2-22.3-3.6-33.7c-1.1-8.8-2.7-17.6-4.1-26.4c-0.7-4.3,0.6-7.6,4.5-9.6c6.5-3.2,12.9-7.7,19.8-9
			c5.9-1.1,12.5,1.4,18.7,2.7c2.5,0.5,5,1.8,7.4,2.8l1.4-1.5c0.6,2.5,1.3,4.9,1.6,7.4c1.3,10.4,3,20.7,3.6,31.1
			c0.5,8.8-0.4,17.6-0.6,26.4c-0.1,4,0.2,7.9-0.1,11.9c-0.1,1.5-0.8,3.6-1.8,4.1c-1,0.5-2.8-0.8-4.3-1.4c-2.7-1.2-5.3-3-8.1-3.6
			c-7.6-1.7-15.2-2.1-22.7,1.4c-2,1-5.4-0.9-8.7-1.5v4.1c-3.2,2-6.5,3.9-9-0.8c-0.7-1.4-0.2-3.4-0.3-5.2
			C259.7,117.2,261.5,117.5,264,117.9L264,117.9L264,117.9z M267.7,97.8L267.7,97.8c0,3-0.2,6,0,9c0.3,2.8,0.5,5.8,1.8,8.2
			c0.7,1.4,3.7,2.9,4.9,2.4c8.9-3.8,17.7-6.8,27.3-2.7c1.2,0.5,2.6,0.6,3.9,0.7c3,0.3,4.3-0.9,3.6-4.1c-0.5-2.6-1-5.4-0.6-7.9
			c2.7-16.3-2-32.1-4.1-47.9c-0.9-6.9-6.8-10-13.1-11.4c-8.5-1.9-16.4,0.3-23.9,4.7c-3.8,2.2-4.5,4.8-3.6,9.1
			c1.7,8.2,2.8,16.6,3.6,25C268.1,87.8,267.7,92.8,267.7,97.8L267.7,97.8L267.7,97.8z"/>
		<path d="M251.5,53.5c-2.1-1.1-4-1.7-5.3-2.8c-8.1-7.3-17.2-5.8-26.3-3c-3.8,1.2-5.3,3.7-4.2,8.1c2.9,11.6,4.6,23.4,3.6,35.5
			c-0.5,6.1,0.4,12.3,0.6,18.4c0.1,3.9,1.4,6.5,5.7,5.9c2.4,5.2-1.4,5.4-4.8,6.4c5.1,0.9,9.5,4.4,15,1.8c1.9-0.9,4.5-0.7,6.7-0.3
			c5.6,1,12.3,0.9,16.5,4c7.3,5.3,12.4-0.1,17.7-2c10.9-3.9,20.9-2.7,31.1,1.9c-1,3.9-3.4,3.9-6.2,3.2c-3.7-0.9-7.5-1.6-11-2.9
			c-4.5-1.5-8.5-0.7-12.5,1.4c-3.8,2-7.5,4.2-11.5,5.6c-1.8,0.7-4.8,0.4-6.3-0.7c-3.8-2.8-7.4-4.9-12.3-3.6
			c-0.6,0.2-1.4-0.1-1.9-0.3c-8.3-4-16.7-2.6-25.2-1.1c-1.2,0.2-3.8-1.1-3.9-1.9c-0.8-6.4-1.1-12.8-1.5-19.2
			c-0.4-7.9-0.3-16-1.2-23.9c-1-8.8-2.7-17.6-4.4-26.3c-0.6-3.2,2-10.8,5.1-12.6c9-5.1,18.4-6.3,28.3-3.1
			C247.5,43.6,251.9,49.4,251.5,53.5L251.5,53.5L251.5,53.5z"/>
		<path d="M90.8,146c-4.9,0-9.9,0.3-14.8-0.2c-1.1-0.1-2.5-3.3-2.5-5.1c-0.1-9.2,0-18.5,0.5-27.7c0.1-1.8,2.6-3.5,4-5.2
			c0.5,1.9,0.9,3.8,1.4,5.7c0.5,2.2,0.6,4.6,1.8,6.4c1.6,2.4,3.2,3.3,0,6.6c-2.6,2.7-2.3,8.5-2.2,13c0,1,4.6,1.9,7.1,2.8
			c1.6,0.6,3.3,1,4.9,1.5L90.8,146L90.8,146L90.8,146z"/>
		<path d="M229.7,119.5l-2.4-4.8c4-0.2,7.3-0.6,10.6-0.6c5,0.1,9.9,0.2,14.8,0.7c1,0.1,1.8,1.8,2.7,2.7c-1.3,0.8-2.6,2.4-3.8,2.2
			c-5.3-0.6-10.5-1.9-15.8-2.5C234.1,117.2,232.2,118.6,229.7,119.5L229.7,119.5z"/>
		<path d="M274.7,240.4c-3.3-0.6-5.3-1-7.3-1.4c-2.4-0.5-4.9-0.9-7.1-2c-0.6-0.3-0.5-4.1,0.2-4.4c2.6-1.2,5.7-2.7,8.5-2.4
			C274.6,231,273,236.3,274.7,240.4L274.7,240.4L274.7,240.4z"/>
		<path d="M227.6,329.4c-2.6,0.8-5.2,2.5-7.6,2.2c-3-0.5-5.9-2.4-8.5-4.1c-0.6-0.4-0.4-3.6,0.3-3.9c1.4-0.7,3.5-0.9,4.9-0.3
			c3.4,1.3,6.7,3.2,10,4.8C227,328.5,227.3,328.9,227.6,329.4L227.6,329.4L227.6,329.4z"/>
		<path d="M98.8,123.2c-3.2-0.5-5.4-0.3-7-1.2c-0.9-0.5-1.6-3.4-1.1-4.1c1.7-2.3,4-4.2,6.3-5.9c1.1-0.8,2.7-1.1,2.7-2.2
			c-2.2,2.1-4.3,4.3-6.5,6.5l1.8,2.3C96,119.7,97,120.9,98.8,123.2L98.8,123.2L98.8,123.2z"/>
		<path d="M229.3,70l1.5,8.8l-1.1,1.1c-1.6-1.1-4.5-2.2-4.6-3.4c-0.1-2.3,1.4-4.7,2.2-7.1C228,69.6,228.6,69.8,229.3,70L229.3,70
			L229.3,70z"/>
		<path d="M253.6,78.3c-1.8,1-3.2,2.2-3.7,1.9c-1.5-0.9-3.2-2.1-3.9-3.7c-0.3-0.7,1.5-2.4,2.4-3.7C249.9,74.5,251.5,76.1,253.6,78.3
			L253.6,78.3L253.6,78.3z"/>
		<path d="M255.1,91.5c-4.5,3.4-6.8,1.8-8.8-0.2c-0.4-0.4,0.6-2.2,1-3.3C249.5,88.9,251.8,90,255.1,91.5L255.1,91.5L255.1,91.5z"/>
		<path d="M230.8,86.5v8.2c-2-2.1-3.9-3.1-4-4.2c-0.1-1.5,1.3-3.1,2.1-4.7L230.8,86.5z"/>
		<path d="M239.4,59.8c-2.4,0.8-3.7,1.7-4.8,1.5c-1.1-0.2-2-1.6-2.9-2.4c0.9-1,2.2-3,2.7-2.9C235.9,56.5,237.1,57.8,239.4,59.8z"/>
		<path d="M228.6,60.9c-6.2-1.9-6.5-3.3-2.4-8.1C227,55.5,227.7,57.8,228.6,60.9z"/>
		<path d="M238,72.9c-0.1,2-0.2,4-0.3,6c-1-0.3-2.9-0.6-2.9-1c-0.1-1.8,0.3-3.5,0.5-5.3C235.2,72.6,238,72.9,238,72.9z"/>
		<path d="M237.1,102.2c-1.6,0.9-2.6,2-3.1,1.8c-1.3-0.6-2.4-1.7-3.5-2.6c0.9-0.9,2-2.7,2.5-2.5C234.2,99.4,235.3,100.7,237.1,102.2
			z"/>
		<path d="M243.8,100.2c1.5,1.9,2.5,3.1,3.4,4.3c-0.9,0.6-1.9,1.8-2.6,1.6c-1.2-0.3-2.5-1.3-3.1-2.4
			C241.3,103.3,242.7,101.9,243.8,100.2z"/>
		<path d="M248,60.9c-1.8,0.2-3.6,0.4-5.5,0.6c0.3-1.2,0.4-3.2,0.8-3.3c1.5-0.3,3.1,0.2,4.7,0.3C248,58.6,248,60.9,248,60.9z"/>
		<path d="M60.7,305.2c0.9,2.6,1.6,4.4,2.6,7.1c1.5-1.4,3.2-2.2,3.6-3.4c4.5-12.8,14.5-21.2,23.3-30.7c3.5-3.8,6.5-8,9.8-11.9
			c0.9-1,2.2-1.7,3.3-2.5c0.8,1.1,1.8,2.2,2.4,3.4c1.6,3.6,2.8,7.4,4.4,11c2.9,6.9,5.8,13.7,9,20.4c2.8,6,6.1,11.7,9.1,17.6
			c0.2,0.4,0.6,1.1,0.9,1.2c7,0.1,4.9,6,6.2,9.7c1.4,4.2,3.2,8.3,4.6,12.5c0.2,0.7-1.1,2.6-1.4,2.5c-1.3-0.4-3.5-1.1-3.5-1.9
			c-0.5-6-4.6-7.8-9.4-10.1c-4.8-2.4-8.7-6.5-12.7-10.3c-1.1-1-0.8-3.5-1.1-5.3c1.6,0.3,3.3,0.5,4.9,0.8c1.4,0.3,2.7,0.8,4,1.2
			c0.2-1.5,1-3.4,0.5-4.6c-2.1-5-4.7-9.8-7.1-14.6c-3.3-6.7-6.8-13.4-9.9-20.1c-1.8-3.9-3.7-3.1-6-0.7c-3.8,4-7.8,7.8-11.2,12.1
			c-6.1,7.6-11.8,15.5-17.5,23.5c-1.2,1.7-1.4,4.1-2.5,7.6c4.8-2.4,8.1-4,11.4-5.6l1.1,1.4c-0.8,1.2-1.4,2.7-2.5,3.7
			c-4.3,3.9-8.7,7.7-13.3,11.2c-0.9,0.7-3.3,0.8-4.1,0.1c-2.8-2.6-3.9-19.3-1.8-22.5C58.6,307.2,59.4,306.6,60.7,305.2L60.7,305.2
			L60.7,305.2z"/>
		<path d="M176.1,221.3c-4.6-2-7.8-3.4-12.3-5.3c1.3,2.5,1.9,4.5,3.2,6c2.5,2.9,3,5.4,0.1,8.3c-0.9,0.9-1.7,2-2.3,3.2
			c-2.4,4.5-4.3,4.8-8.2,1.3c-1.5-1.3-2.9-2.7-4.4-4c-0.3-0.2-0.9,0-2.7,0.2c1.8,2.6,3.3,4.7,4.9,6.9c-2.8,2.5-5.1,1.1-6.7-1.1
			c-1.3-1.8-1.8-4.2-3.1-7.4c-1.4,3.6-2.2,5.9-3.2,8.5c2.1,1.7,4.5,3.6,8,6.5c-2.8,0.5-4.1,0.9-5.3,0.8c-3.7-0.1-6.8,0-7.7,4.9
			c-0.6,3.2-3.5,2.7-6.6,1.3c2.6-3.8,5-7.4,8.1-11.9c-3.3,0.3-5.7,0.5-8,0.8c-3.1,0.4-4.4-0.8-3.8-4c0.5-2.8,0.7-5.6,1.5-8.3
			c0.5-1.5,1.9-2.7,2.9-4l1.6,0.5c-0.2,3.4-0.4,6.7-0.7,11.5c3.7-1.9,6.4-3,8.7-4.7c0.7-0.6,0.8-3.2,0.1-4.3
			c-2.4-3.7-1.3-7.1,0.3-10.4c0.5-1,2.2-1.4,3.3-2.1c0.2,1.2,0.7,2.4,0.6,3.6c-0.1,1.5-1,2.9-0.8,4.4c0.1,1.7,0.7,3.5,1.7,4.8
			c0.3,0.4,3.2-0.3,3.8-1.3c0.9-1.4,1.7-3.8,1.1-5.2c-1.6-3.9-2.8-7.6,0-11.3c0.9-1.2,2.7-1.7,4-2.6c-0.1,1.6,0.4,3.8-0.5,4.8
			c-2.4,2.8-2.5,5.6-0.5,8.2c1,1.4,3.2,1.8,4.9,2.6c0.7-1.6,1.8-3,2.1-4.7c0.8-3.9,0.9-7.8,1.8-11.6c0.3-1.3,2.6-3.4,2.9-3.2
			c2,1.2,5.1,2.7,5.2,4.4c0.3,3.4,0.9,5.9,3.9,8C175.3,216.2,175.3,218.5,176.1,221.3L176.1,221.3L176.1,221.3z"/>
		<path d="M92,244.1v-7.8c1.9,1.8,3.7,2.7,3.9,3.9c1.4,7.2,2.5,14.5,4,23.4c-2.2-2-4.2-3-5-4.7c-1.4-2.8-2.5-4.8-6.3-4.1
			c-2.4,0.4-2.9-1.2-2.2-3.6c0.6-1.9,0.4-4.1,0.6-6.4c-7.8,1.3-7.8,1.3-9.2-5.8c-0.7-3.5-2.2-5.1-6.1-4.9c-3.8,0.2-7.7-0.1-11.4-0.8
			c-1.6-0.3-2.8-2-4.2-3.1c1.3-1.3,2.8-3.6,4-3.6c2.5,0.1,5,1.6,8.5,2.8c-0.3,0.2,0.6-0.3,1.3-0.9c2.8-2.3,5.3-2.5,7.6,0.6
			c3,4,5.9,8,9.1,11.8C87.7,242.1,89.5,242.7,92,244.1L92,244.1L92,244.1z"/>
		<path d="M119.4,231c-0.2,2.2-0.3,4.4-0.7,6.5c-1.3,7.4-0.2,8.3,7.1,5.8c0.6-0.2,1.2-0.2,2.1-0.4c0.9,4.1-0.5,6.8-3.8,8.9
			c-3,1.9-5.6,4.3-8.4,6.5c-0.2,0.2-0.4,0.6-0.6,0.8c-1.9,1.2-3.8,2.4-5.8,3.5c-0.1,0.1-1.4-1.5-1.3-1.6c1.2-1.6,2.4-3.4,4.1-4.6
			c3-2.2,4.4-4.8,3.6-8.6c-0.6-3.1-1.3-6.3-1.1-9.4c0.2-2.8,1.5-5.5,2.3-8.2L119.4,231L119.4,231L119.4,231z"/>
		<path d="M71.2,224.1c-5.4-5.9-4.9-22.4,1-26.7C71.8,206.5,75.2,214.9,71.2,224.1z"/>
		<path d="M57.4,210.4c-1.3,0.6-2.4,1.6-3.1,1.3c-4.7-1.5-9.4-2.9-13.8-5c-1.3-0.6-1.8-3.2-2.6-5c1.7-0.3,3.8-1.4,5.1-0.8
			c4.1,1.8,7.9,4.1,11.8,6.3C55.7,207.9,56.3,209,57.4,210.4z"/>
		<path d="M64.9,222c-1.1,0.8-2,2-2.7,1.9c-4.4-0.6-8.9-1.3-13.2-2.4c-2.4-0.6-6-1.1-4.6-4.9c1.4-3.9,4.4-2.3,7.1-1.3
			c3.8,1.5,7.7,3,11.6,4.6C63.6,220.2,64,221,64.9,222L64.9,222z"/>
		<path d="M62.7,190.9c0.6,8.1,1.2,15.2,1.8,23.5c-5.5-3.6-4.7-9.1-6.3-13.3C56.8,197.8,57.5,194,62.7,190.9L62.7,190.9L62.7,190.9z
			"/>
		<path d="M82.8,225.4c-4.4-4.9-4.5-13.3,0-19.1V225.4z"/>
		<path d="M91.4,234.1c-5.3-3.1-5.1-8.9,0-16.9V234.1z"/>
		<path d="M284.9,308.5c-3.2-2.3-4.8-5.9-9-3.3c-0.8,0.5-2.5-0.3-3.6-0.9c-0.3-0.2-0.3-2.1,0.2-2.6c1.4-1.3,2.9-2.5,4.6-3.3
			c0.6-0.3,1.8,0.7,2.8,0.9c4.5,0.8,9.1,1.5,13.6,2.3c1.3,0.2,2.6,1,3.9,1.5c-0.7,1-1.1,2.4-2.1,3c-4.5,3.1-8.4,6.8-14.3,8.4
			c-9.5,2.6-18.4,0.4-27.6-0.4c-0.9-0.1-2.1-0.6-2.6-1.3c-1.2-1.6-2.2-3.5-3.2-5.3c2-0.2,4.4-1.1,6-0.4c8.8,3.9,17.9,4.5,27.3,3.8
			C282.1,310.8,283.2,309.6,284.9,308.5L284.9,308.5L284.9,308.5z"/>
		<path d="M291.9,69.7c1.6-0.6,4.4-1.9,4.7-1.5c1.3,1.6,1.7,3.8,2.5,5.9c-2.4-0.7-4.8-1.5-7.1-2.2C291.9,71.2,291.9,70.4,291.9,69.7
			L291.9,69.7L291.9,69.7z"/>
		<path d="M291.5,103c-1.2-1.7-2.5-2.9-2.7-4.2c-0.1-0.6,2.4-2.5,2.8-2.2c1.5,0.8,2.7,2.4,4,3.6C294.6,101,293.5,101.7,291.5,103
			L291.5,103L291.5,103z"/>
		<path d="M277.8,58.4c-0.9-1.1-2.5-2.2-2.6-3.3c-0.1-0.9,1.7-2,2.6-3c1.2,1.2,2.9,2.2,3.5,3.6c0.4,1-0.8,2.6-1.3,3.9
			C279.3,59.3,278.5,58.9,277.8,58.4z"/>
		<path d="M290.8,58.4c-1.9-1-3.7-2.1-5.6-3.1l1.7-2.8c1.8,1.1,3.5,2.2,5.3,3.4C291.7,56.8,291.3,57.6,290.8,58.4L290.8,58.4
			L290.8,58.4z"/>
		<path d="M277.8,97.5c0.1,2,0.2,4,0.3,5.9c-1.1-0.3-3.2-0.6-3.2-0.9c-0.1-1.7,0.4-3.4,0.7-5.1L277.8,97.5L277.8,97.5L277.8,97.5z"
			/>
		<path d="M277.6,68.3l0.7,5.8c-0.9,0-2.4,0.3-2.5,0.1c-0.5-1.8-0.8-3.7-1.2-5.5L277.6,68.3z"/>
		<path d="M289,72l-5.5-0.8c0.2-1.2,0.4-2.4,0.6-3.6l5.4,1.8L289,72L289,72L289,72z"/>
	</g>
</g>
</svg>
