<?xml version="1.0" encoding="UTF-8"?><svg id="Layer_2" xmlns="http://www.w3.org/2000/svg" width="419.56" height="474.93" viewBox="0 0 419.56 474.93"><defs><style>.cls-1{fill:#fff;}</style></defs><path class="cls-1" d="M45.39,28.59c2.66-.52,5.33-1.52,7.98-1.48,18.11,.24,36.21,.78,54.31,1.07,28.42,.46,56.83,.97,85.25,1.13,21.79,.12,43.59-.61,65.38-.34,22.07,.27,44.14,1.43,66.21,1.93,7.64,.17,15.31-.37,22.96-.77,6.64-.35,12.73,1.72,19.06,3,8.99,1.82,5.8,6.83,5.86,11.31,.18,13.28-.14,26.57,.23,39.84,.3,10.78,.13,21.8,2.44,32.21,1.53,6.92,2.03,13.63,2.53,20.55,1.59,22.36,3.44,44.71,5.3,67.05,.43,5.11,1.34,10.17,1.96,15.26,1.49,12.34,2.73,24.71,4.45,37.01,2.6,18.61,1.35,37.29,1.38,55.95,.02,10.47-.82,20.96-.51,31.41,.46,15.52-7.46,26.02-19.79,33.45-12.08,7.28-25.13,12.43-38.78,16.49-13.8,4.1-27.11,9.97-40.47,15.45-10.26,4.21-20.28,9-30.37,13.64-1.91,.88-3.71,2.09-5.38,3.38-7.71,5.98-15.48,11.89-21.5,19.76-.82,1.07-2.74,1.31-4.16,1.93,.03-1.48-.31-3.08,.14-4.41,2.74-7.98,9.72-12.02,16.01-16.58,11.24-8.15,24.17-13.11,36.39-19.43,22.4-11.59,47.12-16.16,70.03-25.87,6.39-2.71,12.63-6.01,18.45-9.79,11.92-7.75,15.5-19.81,15.41-33.2-.12-17.32-.67-34.63-.97-51.95-.06-3.32,.52-6.67,.24-9.96-1.14-13.22-2.64-26.41-3.75-39.63-1.02-12.07-1.56-24.18-2.6-36.25-1.25-14.59-2.6-29.18-4.28-43.72-1.47-12.74-4.02-25.36-5.07-38.12-1.19-14.54-1.35-29.18-1.77-43.78-.33-11.44-.41-22.9-.55-34.35-.04-3.41-1.42-4.35-4.76-3.43-1.5,.42-3.37-.18-5-.59-2.85-.72-5.65-2.33-8.48-2.37-15.62-.23-31.24,.09-46.86-.13-15.9-.23-31.78-.98-47.68-1.29-7.64-.15-15.3,.21-22.95,.32-1.5,.02-3.01,.04-4.49-.14-9.76-1.19-10.05-1.14-11.16,8.63-1.22,10.75-2.87,21.55-2.84,32.32,.04,12.21,1.88,24.41,2.66,36.63,.48,7.47-.13,15.03,.76,22.44,1.06,8.87-.07,17.45-.91,26.22-.9,9.47-.3,19.12,.07,28.68,.28,7.18,2.95,8.98,9.97,8.93,14.78-.1,29.56,.17,44.33,.2,7.31,0,14.61-.21,21.92-.25,11.6-.06,23.19-.12,34.79-.06,12.45,.06,24.9,.27,37.34,.41,.67,0,1.34-.04,2,.05,2.12,.28,5.06,.28,4,3.43-.43,1.29-3.21,2.64-4.82,2.53-6.77-.45-13.5-2.03-20.25-2.11-11.1-.12-22.21,.85-33.32,.92-12.81,.09-25.63-.37-38.44-.46-14.41-.1-28.82-.04-43.22-.1-2.49,0-4.99-.12-7.47-.34-5.8-.53-8.06,1.57-7.58,7.44,.44,5.45,1.42,10.87,1.54,16.31,.37,16.92,.29,33.84,.69,50.76,.2,8.46,1.15,16.9,1.59,25.35,.67,12.96,1.16,25.94,1.8,38.9,.15,3.14,.59,6.27,.86,9.41,.97,11.26,2.08,22.5,2.83,33.77,.88,13.27,1.36,26.57,2.2,39.84,.36,5.58,1.53,11.12,1.67,16.7,.05,2.01-1.86,4.07-2.87,6.11-1.66-1.02-3.89-1.65-4.88-3.11-10.88-16.02-27.21-23.93-45.05-27.85-7.29-1.6-14.38-2.35-21.41-5.64-5.47-2.55-12.42-1.72-18.52-3.17-19.37-4.59-38.68-9.44-57.95-14.43-7.74-2.01-14.15-6.5-19.78-12.16-3.4-3.41-7.37-6.32-10.43-9.99-6.64-7.97-10.07-17.13-11.16-27.69-1.3-12.69-4.74-25.15-6.32-37.82-1.19-9.52-1.29-19.23-1.21-28.84,.19-20.25,1.8-40.54,.98-60.74-.78-19.24,2.71-38.03,3.23-57.08,.1-3.64-.66-7.31-.51-10.94,.7-18.09,1.64-36.18,2.35-54.27,.26-6.65-.21-13.33,.23-19.96,.92-13.91,2.19-27.8,3.4-41.69,.09-.98,.89-1.89,1.36-2.84l1.88,.15c.03,3.56,.28,7.13,.05,10.67-.78,12.1-1.86,24.19-2.56,36.29-.63,10.84-.9,21.7-1.32,32.55-.47,12.09-.92,24.17-1.42,36.26-.63,15.25-1.25,30.51-2,45.76-.19,3.91,.94,5.92,5.24,5.85,8.32-.13,16.66-.15,24.97,.16,7.24,.28,14.46,1.2,21.7,1.63,14.4,.86,28.79,1.99,43.2,2.24,20.41,.35,40.84,.07,61.26-.07,5.65-.04,11.3-.57,16.95-.8,3.5-.14,4.93-1.64,4.83-5.34-.35-12.45-.43-24.9-.56-37.35-.15-13.6,.62-27.28-.56-40.79-2.28-25.95-2.48-51.76,1.31-77.55,.56-3.78-1.22-4.89-4.43-4.78-14.11,.45-28.23,1.35-42.34,1.3-11.4-.04-22.79-1.47-34.19-1.78-13.57-.37-27.15-.12-40.72-.28-11.45-.14-22.89-.46-34.33-.76-3.66-.1-7.32-.4-10.98-.61l-.28-1.79,.03,.04ZM221.33,432.87c.12-2.59,.27-3.7,.2-4.81-.76-11.43-1.66-22.86-2.32-34.3-1.29-22.37-2.45-44.76-3.68-67.13-.75-13.61-1.63-27.22-2.28-40.84-.7-14.64-2.52-29.4-1.39-43.92,.89-11.47-1.06-22.5-1.27-33.74-.08-4.3-2.2-6.25-7.12-6-15.28,.8-30.59,1.2-45.89,1.37-7.93,.09-15.87-.71-23.81-.97-17.27-.55-34.55-.89-51.82-1.54-12.44-.47-24.87-1.33-37.31-2-9.28-.5-11.39,1.64-10.36,10.42,.14,1.16,.23,2.33,.2,3.49-.3,15.76-.65,31.52-.93,47.28-.1,5.63,1.07,11.56-.31,16.84-2.22,8.46,1.13,16.29,1.1,24.44,0,3.5,2.38,6.95,2.83,10.53,1.34,10.59,.19,21.59,5.51,31.5,.28,.51-.07,1.32,.06,1.96,.74,3.67,1.12,7.47,2.39,10.95,3.04,8.32,10.03,13.66,16.37,19.07,5.97,5.1,12.77,10.16,20.09,12.54,16.22,5.29,32.89,9.33,49.56,13.06,17.36,3.89,35.08,6.21,52.33,10.46,7.83,1.93,15.09,6.55,22.29,10.54,5.13,2.85,9.72,6.68,15.59,10.8h-.03Z"/><path class="cls-1" d="M320.37,255.94c3.31,2.86,3.47,7.73,8.65,7.3-.08,1.18,.13,3.26-.29,3.39-2.31,.75-4.77,1.11-7.2,1.43-1.6,.21-3.24,.24-4.85,.13-8.43-.55-10.68,7.07-15.32,11.52-9.17,8.81-19.5,15.71-30.95,21.41-6.61,3.29-12.49,8.69-13.58,17.33-1.4,11.03-.65,11.54,10.42,8.74,10.19-2.58,17.44-9.55,25.06-15.82,12.72-10.46,21.79-10.81,35.63-.16,3.68,2.83,6.91,6.24,10.43,9.28,3.56,3.08,6.94,3.36,11.16,.45,3.25-2.24,7.38-3.68,11.31-4.32,3.65-.6,6.37,1.84,5.24,5.85-1.57,5.54-3.37,11.12-6.01,16.2-1.38,2.65-4.9,4.13-7.19,6.39-1.07,1.06-1.53,2.75-2.27,4.15,1.39,.67,2.74,1.83,4.16,1.93,4.41,.3,8.86,.11,13.28,.3,1.31,.06,2.58,.77,3.87,1.18-.81,1.13-1.42,2.97-2.46,3.26-4.21,1.15-8.32,3.34-13.02,1.14-2.31-1.08-5.27-1.74-7.73-1.32-4.56,.78-8.41,.38-12.18-2.52-.87-.67-3.07,.35-4.66,.62-3.73,.62-7.43,1.41-11.18,1.84-6.89,.79-13.8,1.45-20.72,2.02-3.11,.26-6.98,1.39-9.22,.02-5.6-3.42-11.44-.71-16.99-1.99-2.81-.65-5.67-1.13-8.53-1.43-2.09-.22-4.22-.04-6.63-.04-.38-1.31-.78-2.66-1.27-4.32-5.1,2.13-8.9,1.75-10.4-4.33-.35-1.44-1.94-2.65-3.1-3.81-7.41-7.41-7.89-13.54-1.76-22,.66-.91,1.16-2.04,1.39-3.14,2.4-11.72,9.81-19.92,19.58-25.67,9.48-5.57,19.72-9.85,29.6-14.74,1.92-.95,3.68-2.2,5.6-3.15,1.92-.94,3.94-1.67,6.82-2.88,.36-3.78,.83-8.65,1.29-13.52l.82,.23c.56-1.66,1.87-3.49,1.54-4.95-2.06-9.17-14.66-16.72-24.03-14.56-4.17,.96-8.35,2-12.35,3.49-1.66,.62-2.84,2.52-3.91,4.57,13.3-2.96,26.61-8.26,35.74,6.7-.22,.57-.44,1.13-.65,1.7-1.92-1.05-4.08-1.82-5.71-3.21-7.54-6.45-15.51-5.48-23.71-1.7-2.91,1.34-4.65,3.3-4.64,6.93,.01,4.27-3.99,4.54-6.87,4.89-.85,.1-3.02-3.16-2.92-4.79,.1-1.61,2.29-3.09,3.69-4.78-2.71-6.4-2.48-7.13,4.11-12.24,11.33-8.78,30.81-8.22,40.36,1.68,3.27,3.39,5.73,7.78,7.76,12.08,.98,2.08,2.24,5.5-1.73,7.2-.58,.25-.89,2.52-.44,3.41,.43,.85,2.32,1.81,3.01,1.5,1.3-.59,2.63-1.89,3.14-3.21,.67-1.73,.57-3.75,.79-5.65h.02Zm25.64,92.19c3.61-4.64,8.28-10.03,12.18-15.92,1.61-2.44,3.14-7.37,1.94-8.73-2.79-3.17-6.23,.15-8.57,2.15-4.43,3.81-9.06,3.63-13.37,.92-7.08-4.47-13.86-9.44-20.54-14.49-5.76-4.36-14.87-4.54-20.23,.14-8.61,7.52-16.88,15.4-28.4,18.65-6.02,1.7-11.58,5.37-18.2,2.51-.69-.3-1.74-.27-2.44,.04-1.09,.47-2.45,1.12-2.88,2.06-.31,.69,.41,2.29,1.16,2.94,5.85,5.16,11.75,9.88,20.13,10.87,7.33,.87,14.44,3.6,21.98,1.35,1.18-.35,2.98-.42,3.85,.24,5.08,3.86,10.46,1.99,15.81,1.21,4.08-.59,8.16-1.2,12.25-1.68,4.11-.48,8.24-.84,12.36-1.21,4.11-.37,8.22-.67,12.99-1.06h-.02Zm-95.92-19.57c.43,.12,.86,.24,1.28,.37,.6-1.91,2.08-4.08,1.62-5.7-1.31-4.58-.63-8.52,2.19-12.13,1.86-2.38,3.75-4.81,6.02-6.75,3.59-3.06,7.41-5.88,11.31-8.54,5.07-3.46,10.31-6.66,15.48-9.98-.2-.48-.4-.95-.61-1.43-3.8,1.01-8.05,1.27-11.32,3.2-6.78,3.98-13.09,8.79-19.48,13.41-1.27,.92-2.1,2.48-3.04,3.82-5.14,7.33-4.75,15.47-3.46,23.74h.01Z"/><path class="cls-1" d="M129.04,144.35c14.67-4.65,19.07-18.37,11.66-30.81-.57-.97-2.12-2.02-3.07-1.89-.83,.11-2.07,1.8-2.08,2.8-.07,4.98,.21,9.96,.35,14.94,.04,1.29,0,2.58,0,4.28-.98-.3-2.11-.32-2.31-.76-3-6.59-5.56-13.14-1.57-20.44,1.07-1.96,.4-4.81,.78-7.21,.46-2.93,.72-6.02,1.92-8.66,1.27-2.81,3.49-5.2,5.36-7.73,3.4-4.62,.78-7.78-2.65-11.33-1.76,3.03-3.41,5.66-4.85,8.41-1.91,3.65-3.26,3.74-6.12,.66-1.41-1.52-3.32-2.57-4.68-3.59-.25,4.83-.24,8.66-.79,12.4-.15,1.03-1.97,1.81-3.03,2.7-.7-1.18-2.08-2.43-1.97-3.53,.41-4.1-1.8-5.91-5.23-6.62-4.15-.86-7.36-3.87-6.95-7.29,.36-3.01,4.04-5.62,6.25-8.41l2.16,1.63c-1.64,2.36-3.29,4.73-5.35,7.7l8.33,5.37-.74-13.22c3.82,3.02,4.38,10.13,10.13,6.2,1.8,1.56,3.34,2.94,5,4.15,.09,.06,1.91-1.61,1.76-1.98-.7-1.64-1.82-3.11-3.27-5.4l1.53-2.23,6.22,1.83,1.01-5.51c-2.57-.21-4.63,.26-5.51-.55-6.53-6.02-13.4-3.26-20.13-.92-3.59,1.25-6.97,3.17-10.36,4.94-6.96,3.64-7.1,17.95-.3,22.48,2.01,1.34,3.9,2.87,6.47,4.78-1.8,.85-2.75,1.34-3.74,1.76-3.76,1.61-4.2,3.85-3.19,7.96,1.45,5.86,1.41,12.09,1.88,18.17,.05,.62-.76,1.31-1.91,3.15-.97-5.75-1.65-10.34-2.57-14.88-.3-1.48-1.23-2.83-1.87-4.24-1.22,.99-2.59,1.83-3.62,2.99-5.14,5.82-4.39,12.2-1.47,18.67,2.26,5.01,4.68,9.96,7.38,15.66-2.1,.31-3.14,.65-4.14,.58-6.21-.45-12.42-.9-18.6-1.57-1.36-.15-2.64-1.15-3.95-1.76,1.1-1.25,2.09-3.42,3.33-3.58,3.7-.48,7.51-.17,12.14-.17-.93-3.4-1.58-7.23-3.02-10.74-1.87-4.54-.9-8.5,1.46-12.33,3.4-5.51,7.06-10.86,10.39-16.42,.68-1.14,1.05-3.76,.46-4.18-7.06-5.14-6.5-11.79-4.03-18.81,1.51-4.29,2.66-8.13-2.64-10.93-.81-.43-.85-3.87-.08-5.28,.87-1.6,3.44-3.76,4.61-3.42,2.91,.85,6.18,2.42,7.96,4.74,2.12,2.76,3.76,3.17,6.63,1.8,4-1.91,7.99-3.97,12.19-5.3,5.42-1.72,10.03,.7,13.95,4.17,2.55-2.37,4.91-4.55,7.58-7.02,.66,1.25,1.35,2.03,1.18,2.32-2.97,5.17-1.43,9.22,1.86,13.91,2.95,4.2,1.58,9.2-1.49,13.53-5.55,7.82-5.43,8.85,.8,16.12,5.81,6.79,6.14,21.02,.83,29-.9,1.35-1.07,3.19-1.58,4.8,1.72,.36,3.46,1.09,5.16,1.01,9.1-.43,18.19-1.1,27.3-1.55,.94-.05,2.58,.7,2.75,1.36,.27,1.09,0,2.95-.76,3.52-1.22,.91-3.03,1.38-4.6,1.42-6.98,.17-13.98-.19-20.93,.27-4.16,.28-8.28,1.6-12.33,2.75-.76,.22-1.63,1.9-1.56,2.83,.33,4.05,.46,8.24,1.68,12.05,1.68,5.24,.97,8.75-3.42,10.69-.73,.32-1.95,.84-2.29,.53-3.25-2.9-6.81-2.57-10.62-1.53-.51,.14-1.4-1.09-2.11-1.68,.82-.62,1.58-1.68,2.46-1.79,3.2-.39,6.43-.47,9.65-.67-.22-3.08-.65-6.15-.61-9.23,.03-2.57,.17-5.31,1.07-7.66,1.21-3.15,1.19-5.06-2.57-5.86-.87-.19-1.56-1.23-2.96-2.41v.06Z"/><path class="cls-1" d="M292.56,144.96c-1.13-10.8-2.17-22.28-3.59-33.7-1.1-8.84-2.66-17.61-4.06-26.41-.68-4.26,.64-7.63,4.54-9.58,6.52-3.25,12.87-7.73,19.79-9.02,5.88-1.09,12.49,1.44,18.72,2.68,2.55,.51,4.95,1.82,7.41,2.77l1.42-1.47c.56,2.48,1.31,4.93,1.63,7.43,1.34,10.37,3.05,20.72,3.65,31.14,.51,8.75-.37,17.59-.56,26.39-.08,3.96,.17,7.94-.06,11.89-.09,1.47-.78,3.62-1.82,4.1-1,.46-2.84-.77-4.26-1.39-2.73-1.2-5.31-3-8.15-3.64-7.63-1.72-15.17-2.14-22.71,1.4-2.04,.96-5.39-.87-8.69-1.54v4.05c-3.22,1.99-6.49,3.88-8.99-.79-.74-1.39-.23-3.45-.29-5.2,1.8,.27,3.6,.53,6,.88h.02Zm3.69-20.09h-.04c0,3-.21,6.02,.06,8.99,.26,2.78,.55,5.75,1.76,8.17,.68,1.36,3.74,2.93,4.89,2.44,8.88-3.78,17.68-6.8,27.32-2.72,1.2,.51,2.6,.6,3.92,.72,3,.28,4.26-.86,3.61-4.09-.52-2.58-.99-5.35-.57-7.89,2.66-16.34-1.98-32.05-4.14-47.93-.93-6.87-6.77-10.01-13.06-11.4-8.55-1.89-16.42,.28-23.88,4.68-3.79,2.24-4.48,4.83-3.58,9.14,1.71,8.22,2.76,16.61,3.62,24.97,.5,4.93,.09,9.95,.09,14.93h0Z"/><path class="cls-1" d="M280.08,80.6c-2.14-1.11-3.98-1.65-5.26-2.8-8.08-7.34-17.17-5.75-26.28-2.97-3.78,1.16-5.34,3.71-4.25,8.14,2.88,11.64,4.6,23.41,3.6,35.54-.5,6.09,.41,12.28,.55,18.44,.09,3.92,1.37,6.52,5.7,5.93,2.42,5.24-1.43,5.4-4.77,6.45,5.13,.85,9.51,4.37,15.03,1.76,1.89-.89,4.55-.72,6.72-.33,5.62,1.02,12.26,.93,16.49,4.03,7.28,5.34,12.41-.08,17.7-1.98,10.94-3.93,20.89-2.71,31.15,1.95-.96,3.95-3.43,3.95-6.22,3.25-3.69-.92-7.45-1.65-11.05-2.85-4.47-1.49-8.48-.7-12.48,1.44-3.77,2.01-7.5,4.19-11.49,5.62-1.84,.66-4.8,.44-6.3-.67-3.77-2.8-7.4-4.94-12.27-3.63-.58,.16-1.36-.05-1.94-.32-8.26-3.98-16.7-2.65-25.22-1.15-1.19,.21-3.75-1.1-3.85-1.93-.76-6.36-1.14-12.78-1.5-19.18-.44-7.95-.34-15.96-1.23-23.86-.99-8.82-2.68-17.58-4.39-26.31-.63-3.21,1.96-10.82,5.15-12.62,8.99-5.05,18.44-6.32,28.33-3.12,4.06,1.31,8.52,7.04,8.07,11.17h0Z"/><path class="cls-1" d="M119.44,173.15c-4.93,0-9.9,.31-14.77-.24-1.06-.12-2.5-3.31-2.52-5.1-.11-9.23-.04-18.49,.52-27.7,.11-1.83,2.62-3.5,4.03-5.25,.47,1.91,.93,3.83,1.41,5.74,.54,2.17,.62,4.64,1.76,6.42,1.57,2.45,3.2,3.27-.01,6.62-2.56,2.67-2.28,8.54-2.16,12.96,.02,.99,4.59,1.89,7.09,2.77,1.62,.57,3.29,1.02,4.93,1.52l-.28,2.27h0Z"/><path class="cls-1" d="M258.3,146.63l-2.39-4.76c4.03-.23,7.31-.6,10.58-.56,4.95,.06,9.91,.25,14.83,.73,.98,.1,1.81,1.75,2.7,2.68-1.27,.78-2.64,2.35-3.81,2.21-5.3-.61-10.52-1.93-15.82-2.47-1.71-.18-3.58,1.22-6.11,2.17h.02Z"/><path class="cls-1" d="M303.3,267.53c-3.31-.63-5.32-.95-7.31-1.4-2.4-.54-4.94-.88-7.08-1.97-.6-.31-.49-4.06,.17-4.38,2.64-1.25,5.74-2.71,8.45-2.36,5.69,.73,4.06,6.03,5.76,10.11h0Z"/><path class="cls-1" d="M256.22,356.49c-2.55,.8-5.23,2.51-7.6,2.16-3-.45-5.88-2.39-8.51-4.14-.59-.39-.37-3.59,.27-3.9,1.38-.69,3.48-.89,4.92-.33,3.44,1.31,6.67,3.18,9.98,4.82,.32,.47,.63,.93,.95,1.4h-.01Z"/><path class="cls-1" d="M127.39,150.26c-3.24-.49-5.42-.34-7-1.24-.91-.53-1.64-3.36-1.08-4.1,1.73-2.28,4.03-4.18,6.32-5.95,1.09-.84,2.67-1.05,2.65-2.18-2.15,2.15-4.31,4.31-6.46,6.46l1.85,2.32c.96,1.21,1.92,2.43,3.71,4.7h0Z"/><path class="cls-1" d="M257.86,97.13l1.53,8.84-1.09,1.1c-1.62-1.14-4.52-2.22-4.57-3.43-.1-2.33,1.41-4.73,2.25-7.1,.62,.19,1.25,.39,1.87,.58h.01Z"/><path class="cls-1" d="M282.23,105.45c-1.81,.96-3.18,2.17-3.7,1.87-1.53-.87-3.2-2.13-3.86-3.65-.32-.74,1.5-2.4,2.36-3.65,1.51,1.57,3.02,3.14,5.2,5.42h0Z"/><path class="cls-1" d="M283.66,118.59c-4.46,3.38-6.81,1.81-8.75-.25-.4-.42,.63-2.19,1-3.34,2.23,1.04,4.47,2.07,7.75,3.6h0Z"/><path class="cls-1" d="M259.4,113.61v8.22c-2.03-2.05-3.94-3.1-3.97-4.21-.05-1.54,1.31-3.12,2.06-4.68l1.91,.67Z"/><path class="cls-1" d="M268.03,86.86c-2.4,.81-3.7,1.71-4.75,1.48-1.1-.24-1.95-1.57-2.91-2.42,.92-1.02,2.18-3.04,2.68-2.87,1.47,.51,2.63,1.9,4.98,3.81Z"/><path class="cls-1" d="M257.17,88.01c-6.21-1.92-6.54-3.28-2.35-8.13,.79,2.73,1.45,5.01,2.35,8.13Z"/><path class="cls-1" d="M266.58,100c-.1,1.99-.21,3.97-.31,5.96-1.03-.32-2.91-.58-2.94-.98-.13-1.75,.28-3.54,.49-5.32l2.76,.34Z"/><path class="cls-1" d="M265.68,129.33c-1.56,.94-2.63,2.03-3.15,1.81-1.31-.55-2.37-1.69-3.53-2.59,.85-.89,2.02-2.66,2.5-2.49,1.32,.46,2.35,1.74,4.18,3.27Z"/><path class="cls-1" d="M272.44,127.34c1.51,1.9,2.47,3.11,3.43,4.32-.88,.59-1.93,1.83-2.6,1.65-1.2-.33-2.55-1.31-3.08-2.4-.26-.53,1.14-1.89,2.25-3.57Z"/><path class="cls-1" d="M276.64,88.02c-1.83,.21-3.65,.42-5.48,.63,.26-1.15,.36-3.2,.82-3.29,1.48-.28,3.09,.17,4.66,.34v2.32Z"/><path class="cls-1" d="M89.31,332.29c.95,2.61,1.59,4.39,2.57,7.09,1.53-1.38,3.19-2.17,3.62-3.39,4.46-12.8,14.54-21.24,23.35-30.7,3.49-3.76,6.49-7.96,9.84-11.87,.89-1.04,2.2-1.71,3.32-2.54,.8,1.13,1.84,2.16,2.37,3.4,1.55,3.62,2.81,7.38,4.37,11,2.93,6.85,5.84,13.72,9.04,20.44,2.84,5.96,6.07,11.74,9.14,17.59,.23,.44,.58,1.15,.88,1.16,7,.14,4.95,5.96,6.24,9.74,1.44,4.2,3.2,8.29,4.57,12.5,.22,.67-1.14,2.61-1.35,2.55-1.3-.39-3.48-1.1-3.54-1.85-.48-6.04-4.64-7.79-9.41-10.13-4.78-2.35-8.74-6.53-12.68-10.3-1.07-1.02-.76-3.49-1.08-5.29,1.64,.27,3.3,.47,4.91,.83,1.36,.3,2.68,.8,4.01,1.2,.2-1.55,1.01-3.36,.48-4.59-2.15-4.98-4.71-9.78-7.12-14.64-3.32-6.71-6.75-13.36-9.89-20.14-1.79-3.86-3.72-3.07-5.96-.69-3.76,4-7.75,7.82-11.15,12.11-6.06,7.64-11.85,15.51-17.52,23.45-1.21,1.69-1.42,4.09-2.54,7.57,4.8-2.37,8.08-3.99,11.36-5.61l1.12,1.44c-.81,1.24-1.41,2.73-2.48,3.68-4.32,3.87-8.7,7.69-13.28,11.25-.9,.7-3.33,.79-4.06,.1-2.81-2.63-3.92-19.3-1.77-22.53,.53-.8,1.32-1.42,2.65-2.81v-.02Z"/><path class="cls-1" d="M204.73,248.44c-4.59-1.99-7.81-3.39-12.28-5.32,1.28,2.47,1.91,4.51,3.2,5.97,2.51,2.86,3.02,5.4,.15,8.26-.93,.92-1.71,2.05-2.32,3.21-2.39,4.5-4.28,4.84-8.17,1.33-1.47-1.32-2.88-2.71-4.4-3.97-.26-.22-.92,.04-2.66,.19,1.83,2.62,3.27,4.67,4.85,6.93-2.83,2.5-5.1,1.1-6.67-1.12-1.28-1.81-1.78-4.16-3.06-7.36-1.35,3.62-2.19,5.89-3.18,8.55,2.05,1.66,4.48,3.62,8.02,6.48-2.82,.47-4.05,.89-5.26,.84-3.73-.15-6.75,.01-7.73,4.87-.64,3.16-3.54,2.68-6.56,1.28,2.6-3.81,5.02-7.37,8.1-11.87-3.3,.34-5.66,.55-8.01,.82-3.07,.36-4.42-.8-3.8-4,.53-2.76,.67-5.62,1.48-8.28,.46-1.51,1.93-2.71,2.94-4.04l1.57,.47c-.21,3.35-.42,6.69-.72,11.48,3.69-1.9,6.45-2.97,8.7-4.69,.74-.57,.77-3.24,.09-4.29-2.35-3.67-1.34-7.09,.34-10.4,.51-1.01,2.19-1.44,3.33-2.13,.22,1.19,.67,2.4,.6,3.57-.09,1.47-.97,2.94-.84,4.35,.15,1.68,.74,3.5,1.72,4.83,.28,.37,3.2-.34,3.81-1.28,.92-1.41,1.66-3.78,1.09-5.17-1.6-3.89-2.84-7.62-.04-11.29,.91-1.19,2.66-1.74,4.02-2.59-.13,1.64,.37,3.82-.5,4.82-2.4,2.77-2.5,5.57-.54,8.16,1.02,1.35,3.23,1.8,4.9,2.65,.74-1.55,1.83-3.03,2.14-4.66,.75-3.85,.91-7.81,1.77-11.63,.29-1.28,2.6-3.36,2.89-3.19,1.99,1.17,5.05,2.7,5.21,4.36,.33,3.41,.91,5.93,3.91,7.99,1.06,.73,1.06,3,1.93,5.85l-.02,.02Z"/><path class="cls-1" d="M120.58,271.23v-7.84c1.87,1.79,3.7,2.68,3.94,3.89,1.44,7.23,2.51,14.53,3.97,23.42-2.17-1.98-4.16-3.05-4.98-4.7-1.38-2.8-2.52-4.79-6.27-4.11-2.43,.44-2.91-1.2-2.18-3.58,.59-1.93,.38-4.1,.55-6.42-7.75,1.31-7.83,1.33-9.25-5.76-.7-3.46-2.21-5.15-6.09-4.93-3.78,.22-7.66-.15-11.38-.83-1.55-.28-2.83-2.05-4.23-3.14,1.35-1.26,2.75-3.61,4.04-3.55,2.54,.11,5.02,1.55,8.5,2.78-.26,.18,.55-.3,1.26-.89,2.76-2.32,5.3-2.52,7.64,.6,2.99,3.98,5.9,8.02,9.11,11.81,1.06,1.25,2.92,1.83,5.35,3.27l.02-.02Z"/><path class="cls-1" d="M147.96,258.09c-.24,2.18-.34,4.39-.73,6.54-1.34,7.4-.23,8.33,7.13,5.81,.59-.2,1.25-.23,2.13-.37,.88,4.1-.47,6.79-3.82,8.94-2.96,1.91-5.62,4.29-8.4,6.48-.25,.2-.35,.61-.62,.77-1.92,1.22-3.84,2.44-5.84,3.51-.14,.08-1.44-1.45-1.34-1.58,1.24-1.63,2.44-3.41,4.05-4.63,2.96-2.23,4.35-4.78,3.57-8.58-.64-3.08-1.27-6.29-1.06-9.38,.18-2.78,1.5-5.49,2.31-8.24l2.62,.72h0Z"/><path class="cls-1" d="M99.83,251.18c-5.37-5.9-4.93-22.41,.98-26.68-.37,9.09,2.94,17.55-.98,26.68Z"/><path class="cls-1" d="M86,237.55c-1.34,.61-2.4,1.56-3.09,1.34-4.67-1.47-9.39-2.91-13.8-4.99-1.34-.63-1.75-3.25-2.58-4.96,1.72-.31,3.76-1.36,5.1-.78,4.09,1.75,7.94,4.07,11.79,6.32,.89,.52,1.43,1.66,2.58,3.07Z"/><path class="cls-1" d="M93.47,249.07c-1.08,.79-2.01,2.03-2.75,1.93-4.44-.61-8.88-1.32-13.22-2.41-2.37-.59-5.98-1.09-4.6-4.92,1.39-3.86,4.42-2.32,7.08-1.26,3.85,1.54,7.73,2.99,11.56,4.59,.65,.27,1.07,1.11,1.94,2.07h-.01Z"/><path class="cls-1" d="M91.27,218.05c.64,8.09,1.2,15.19,1.85,23.52-5.51-3.65-4.71-9.13-6.35-13.26-1.35-3.42-.69-7.16,4.49-10.26h.01Z"/><path class="cls-1" d="M111.4,252.5c-4.42-4.86-4.54-13.27,0-19.1v19.1Z"/><path class="cls-1" d="M119.97,261.22c-5.27-3.08-5.08-8.85,0-16.93v16.93Z"/><path class="cls-1" d="M313.48,335.62c-3.21-2.26-4.79-5.91-8.98-3.26-.75,.47-2.52-.29-3.58-.9-.34-.2-.27-2.09,.23-2.58,1.35-1.31,2.93-2.48,4.62-3.29,.64-.31,1.81,.68,2.78,.85,4.52,.79,9.06,1.45,13.57,2.29,1.34,.25,2.59,.96,3.88,1.45-.67,1.02-1.13,2.36-2.06,3.01-4.53,3.15-8.36,6.8-14.3,8.4-9.51,2.56-18.41,.44-27.56-.42-.93-.09-2.1-.58-2.64-1.28-1.24-1.63-2.17-3.51-3.22-5.28,2.03-.16,4.4-1.09,6.04-.36,8.78,3.91,17.93,4.54,27.28,3.79,1.18-.1,2.27-1.36,3.94-2.42h0Z"/><path class="cls-1" d="M320.51,96.8c1.63-.55,4.35-1.95,4.71-1.49,1.27,1.61,1.73,3.85,2.49,5.86-2.38-.73-4.76-1.46-7.15-2.18-.02-.73-.03-1.45-.05-2.18h0Z"/><path class="cls-1" d="M320.12,130.15c-1.19-1.7-2.47-2.86-2.71-4.2-.11-.6,2.36-2.48,2.82-2.23,1.54,.84,2.71,2.37,4.01,3.64-1.09,.74-2.18,1.48-4.12,2.79h0Z"/><path class="cls-1" d="M306.39,85.53c-.93-1.1-2.51-2.16-2.59-3.32-.06-.92,1.7-1.98,2.65-2.97,1.2,1.19,2.9,2.2,3.45,3.64,.39,1.01-.78,2.61-1.26,3.95-.75-.43-1.5-.86-2.25-1.3Z"/><path class="cls-1" d="M319.36,85.54c-1.86-1.02-3.72-2.05-5.57-3.07l1.68-2.75c1.78,1.12,3.55,2.24,5.33,3.36-.48,.82-.95,1.64-1.43,2.46h0Z"/><path class="cls-1" d="M306.41,124.62c.11,1.97,.21,3.95,.32,5.92-1.14-.31-3.23-.58-3.24-.93-.06-1.7,.44-3.42,.74-5.14l2.19,.15h-.01Z"/><path class="cls-1" d="M306.2,95.37l.68,5.84c-.86,.03-2.41,.28-2.47,.07-.55-1.78-.82-3.65-1.18-5.48l2.97-.43Z"/><path class="cls-1" d="M317.61,99.13l-5.49-.76c.21-1.19,.42-2.39,.62-3.58l5.42,1.83-.56,2.51h0Z"/></svg>